<svg width="500" height="500" viewBox="0 0 500 500" fill="none" xmlns="http://www.w3.org/2000/svg">
<path d="M357.662 426.536C336.76 446.75 313.698 443.599 291.716 434.069C268.346 424.346 246.981 423.731 222.299 434.069C191.563 447.288 175.25 443.445 156.739 426.536C52.2284 319.319 67.6543 155.995 186.434 149.846C215.242 151.383 235.411 165.717 252.38 166.908C277.601 161.797 301.743 147.156 328.738 149.077C361.171 151.69 385.429 164.449 401.626 187.391C334.909 227.358 350.72 314.976 412 339.571C399.736 371.659 384.002 403.364 357.624 426.805L357.662 426.536ZM250.066 148.693C246.942 101.041 285.7 61.8429 330.281 58C336.413 112.954 280.147 154.073 250.066 148.693Z" fill="white"/>
</svg>
