<svg width="858" height="803" viewBox="0 0 858 803" fill="none" xmlns="http://www.w3.org/2000/svg">
<g clip-path="url(#clip0_15_2)">
<rect width="858" height="803" fill="white"/>
<rect width="858" height="803" fill="#0000FF"/>
<path d="M1125.08 94.7931H267.493C241.44 94.7931 220.319 115.919 220.319 141.98V660.468C220.319 686.528 241.44 707.655 267.493 707.655H1125.08C1151.14 707.655 1172.26 686.528 1172.26 660.468V141.98C1172.26 115.919 1151.14 94.7931 1125.08 94.7931Z" stroke="white" stroke-width="2"/>
<path fill-rule="evenodd" clip-rule="evenodd" d="M315.257 653.391C313.314 656.155 310.637 657.537 307.139 657.537C303.642 657.537 300.922 656.155 298.979 653.391C297.036 650.584 296.086 646.827 296.086 642.076C296.086 637.326 297.036 633.568 298.979 630.804C300.922 627.997 303.642 626.615 307.139 626.615C310.637 626.615 313.314 627.997 315.257 630.804C317.199 633.568 318.193 637.326 318.193 642.076C318.193 646.827 317.199 650.584 315.257 653.391ZM299.886 642.076C299.886 645.402 300.404 648.166 301.483 650.282L310.464 631.063C309.471 630.416 308.392 630.07 307.139 630.07C302.52 630.07 299.886 634.648 299.886 642.076ZM307.139 654.082C311.759 654.082 314.393 649.504 314.393 642.076C314.393 638.664 313.875 635.944 312.796 633.871L303.815 653.089C304.808 653.737 305.887 654.082 307.139 654.082ZM344.314 657.192H325.662V655.507L337.579 640.737C339.478 638.362 340.04 636.937 340.04 634.993C340.04 633.568 339.651 632.445 338.917 631.538C338.097 630.545 336.888 630.07 335.29 630.07C332.484 630.07 330.454 632.273 329.98 635.555L326.31 634.864C326.525 632.489 327.519 630.545 329.246 628.99C330.973 627.392 333.002 626.615 335.29 626.615C338.097 626.615 340.299 627.479 341.853 629.25C343.105 630.675 343.753 632.618 343.753 634.993C343.753 637.326 342.932 639.528 341.335 641.558L331.577 653.737H344.314V657.192ZM349.97 659.351L367.499 624.801H371.213L353.683 659.351H349.97ZM397.852 657.192H379.2V655.507L391.117 640.737C393.016 638.362 393.578 636.937 393.578 634.993C393.578 633.568 393.189 632.445 392.455 631.538C391.635 630.545 390.426 630.07 388.828 630.07C386.022 630.07 383.993 632.273 383.518 635.555L379.848 634.864C380.064 632.489 381.057 630.545 382.784 628.99C384.511 627.392 386.54 626.615 388.828 626.615C391.635 626.615 393.837 627.479 395.391 629.25C396.643 630.675 397.291 632.618 397.291 634.993C397.291 637.326 396.471 639.528 394.873 641.558L385.115 653.737H397.852V657.192ZM422.333 653.391C420.39 656.155 417.713 657.537 414.216 657.537C410.719 657.537 407.999 656.155 406.056 653.391C404.113 650.584 403.163 646.827 403.163 642.076C403.163 637.326 404.113 633.568 406.056 630.804C407.999 627.997 410.719 626.615 414.216 626.615C417.713 626.615 420.39 627.997 422.333 630.804C424.276 633.568 425.269 637.326 425.269 642.076C425.269 646.827 424.276 650.584 422.333 653.391ZM406.962 642.076C406.962 645.402 407.48 648.166 408.56 650.282L417.54 631.063C416.547 630.416 415.468 630.07 414.216 630.07C409.596 630.07 406.962 634.648 406.962 642.076ZM414.216 654.082C418.836 654.082 421.469 649.504 421.469 642.076C421.469 638.664 420.951 635.944 419.872 633.871L410.891 653.089C411.884 653.737 412.964 654.082 414.216 654.082ZM451.39 657.192H432.738V655.507L444.655 640.737C446.555 638.362 447.116 636.937 447.116 634.993C447.116 633.568 446.727 632.445 445.993 631.538C445.173 630.545 443.964 630.07 442.367 630.07C439.56 630.07 437.531 632.273 437.056 635.555L433.386 634.864C433.602 632.489 434.595 630.545 436.322 628.99C438.049 627.392 440.078 626.615 442.367 626.615C445.173 626.615 447.375 627.479 448.929 629.25C450.181 630.675 450.829 632.618 450.829 634.993C450.829 637.326 450.009 639.528 448.411 641.558L438.653 653.737H451.39V657.192ZM478.16 657.192H459.507V655.507L471.424 640.737C473.324 638.362 473.885 636.937 473.885 634.993C473.885 633.568 473.497 632.445 472.763 631.538C471.942 630.545 470.733 630.07 469.136 630.07C466.329 630.07 464.3 632.273 463.825 635.555L460.155 634.864C460.371 632.489 461.364 630.545 463.091 628.99C464.818 627.392 466.847 626.615 469.136 626.615C471.942 626.615 474.144 627.479 475.698 629.25C476.951 630.675 477.598 632.618 477.598 634.993C477.598 637.326 476.778 639.528 475.18 641.558L465.423 653.737H478.16V657.192Z" fill="white"/>
<path fill-rule="evenodd" clip-rule="evenodd" d="M296.086 597.038V562.488H300.725L308.077 581.638L315.429 562.488H320.068V597.038H315.725V571.718L309.705 587.117H306.449L300.429 571.718V597.038H296.086ZM376.862 576.604V562.488H381.205V597.038H376.862V580.75H361.665V597.038H357.322V562.488H361.665V576.604H376.862ZM410.466 581.342V597.038H407.11L406.518 593.533C404.939 595.853 401.436 597.433 397.735 597.433C393.343 597.433 390.037 594.767 390.037 589.881C390.037 584.501 394.232 581.737 401.288 581.737H406.321V580.651C406.321 577.048 403.952 575.518 400.597 575.518C397.784 575.518 395.515 577.246 394.725 579.763L391.074 578.776C392.208 574.482 396.008 571.767 400.597 571.767C406.716 571.767 410.466 574.778 410.466 581.342ZM394.281 589.881C394.281 592.25 395.86 593.682 398.376 593.682C400.35 593.682 402.176 593.04 403.804 591.806C405.482 590.523 406.321 588.598 406.321 586.081V585.291H400.893C396.699 585.291 394.281 587.068 394.281 589.881ZM422.16 580.108C422.16 577.591 422.999 575.567 424.627 574.037C426.305 572.507 428.427 571.767 430.943 571.767C432.72 571.767 434.348 572.211 435.829 573.05L441.01 570.385L442.885 573.791L438.691 575.962C439.381 577.147 439.727 578.529 439.727 580.108C439.727 582.626 438.888 584.649 437.26 586.179C435.631 587.709 433.509 588.45 430.943 588.45C429.216 588.45 427.687 588.104 426.355 587.413C424.825 588.005 424.085 588.845 424.085 589.98C424.085 591.362 425.269 592.053 427.588 592.053H434.052C439.381 592.053 442.391 594.422 442.391 598.913C442.391 601.825 441.256 603.948 438.987 605.379C436.717 606.811 433.953 607.502 430.746 607.502C423.493 607.502 419.249 604.639 419.249 599.308C419.249 597.087 420.088 595.31 421.815 593.978C420.631 593.04 420.038 591.806 420.038 590.177C420.038 587.956 421.371 586.031 423.69 585.192C422.654 583.81 422.16 582.132 422.16 580.108ZM433.953 595.606H428.082C427.045 595.606 426.206 595.557 425.516 595.409C424.085 596.149 423.394 597.383 423.394 599.16C423.394 602.072 426.256 603.849 430.746 603.849C435.434 603.849 438.148 602.122 438.148 599.308C438.148 596.84 436.766 595.606 433.953 595.606ZM427.539 576.604C426.651 577.443 426.206 578.628 426.206 580.108C426.206 581.589 426.651 582.774 427.539 583.613C428.476 584.452 429.611 584.896 430.943 584.896C432.276 584.896 433.411 584.501 434.299 583.662C435.236 582.823 435.681 581.638 435.681 580.108C435.681 578.578 435.236 577.443 434.299 576.604C433.411 575.765 432.276 575.321 430.943 575.321C429.611 575.321 428.476 575.765 427.539 576.604ZM452.754 580.108C452.754 577.591 453.592 575.567 455.221 574.037C456.898 572.507 459.02 571.767 461.537 571.767C463.313 571.767 464.941 572.211 466.422 573.05L471.603 570.385L473.478 573.791L469.284 575.962C469.975 577.147 470.32 578.529 470.32 580.108C470.32 582.626 469.481 584.649 467.853 586.179C466.224 587.709 464.103 588.45 461.537 588.45C459.81 588.45 458.28 588.104 456.948 587.413C455.418 588.005 454.678 588.845 454.678 589.98C454.678 591.362 455.862 592.053 458.181 592.053H464.645C469.975 592.053 472.985 594.422 472.985 598.913C472.985 601.825 471.85 603.948 469.58 605.379C467.31 606.811 464.547 607.502 461.339 607.502C454.086 607.502 449.842 604.639 449.842 599.308C449.842 597.087 450.681 595.31 452.408 593.978C451.224 593.04 450.632 591.806 450.632 590.177C450.632 587.956 451.964 586.031 454.283 585.192C453.247 583.81 452.754 582.132 452.754 580.108ZM464.547 595.606H458.675C457.639 595.606 456.8 595.557 456.109 595.409C454.678 596.149 453.987 597.383 453.987 599.16C453.987 602.072 456.849 603.849 461.339 603.849C466.027 603.849 468.741 602.122 468.741 599.308C468.741 596.84 467.359 595.606 464.547 595.606ZM458.132 576.604C457.244 577.443 456.8 578.628 456.8 580.108C456.8 581.589 457.244 582.774 458.132 583.613C459.07 584.452 460.204 584.896 461.537 584.896C462.869 584.896 464.004 584.501 464.892 583.662C465.83 582.823 466.274 581.638 466.274 580.108C466.274 578.578 465.83 577.443 464.892 576.604C464.004 575.765 462.869 575.321 461.537 575.321C460.204 575.321 459.07 575.765 458.132 576.604ZM503.775 583.761V585.488H484.334C484.58 590.424 487.59 593.682 491.982 593.682C495.535 593.682 498.199 592.053 499.976 588.746L503.282 590.473C500.864 595.113 497.114 597.433 491.982 597.433C488.429 597.433 485.567 596.199 483.347 593.78C481.176 591.362 480.09 588.302 480.09 584.6C480.09 580.997 481.176 577.937 483.297 575.469C485.469 573.001 488.38 571.767 491.982 571.767C495.683 571.767 498.594 572.902 500.667 575.222C502.739 577.492 503.775 580.355 503.775 583.761ZM491.982 575.518C488.084 575.518 485.469 577.838 484.63 581.737H499.384C498.643 577.788 495.979 575.518 491.982 575.518ZM532.691 579.713V597.038H528.546V580.602C528.546 577.196 527.016 575.518 523.957 575.518C521.934 575.518 520.207 576.555 518.776 578.677C517.345 580.75 516.654 583.514 516.654 587.018V597.038H512.509V572.162H516.654V576.752C518.48 573.791 521.687 571.767 525.092 571.767C530.174 571.767 532.691 574.778 532.691 579.713Z" fill="white"/>
<path fill-rule="evenodd" clip-rule="evenodd" d="M320.048 414.709C317.827 417.868 314.768 419.447 310.771 419.447C306.774 419.447 303.666 417.868 301.445 414.709C299.225 411.501 298.139 407.207 298.139 401.778C298.139 396.348 299.225 392.054 301.445 388.895C303.666 385.687 306.774 384.108 310.771 384.108C314.768 384.108 317.827 385.687 320.048 388.895C322.268 392.054 323.403 396.348 323.403 401.778C323.403 407.207 322.268 411.501 320.048 414.709ZM302.481 401.778C302.481 405.578 303.074 408.737 304.307 411.155L314.571 389.191C313.436 388.451 312.202 388.056 310.771 388.056C305.491 388.056 302.481 393.288 302.481 401.778ZM310.771 415.499C316.051 415.499 319.061 410.267 319.061 401.778C319.061 397.878 318.469 394.769 317.235 392.4L306.972 414.364C308.107 415.104 309.34 415.499 310.771 415.499ZM344.424 391.314L355.625 384.503H357.204V415.301H366.086V419.053H344.177V415.301H353.059V390.722L344.424 395.855V391.314ZM408.522 419.053H387.205V417.128L400.824 400.247C402.995 397.533 403.637 395.904 403.637 393.683C403.637 392.054 403.192 390.771 402.354 389.734C401.416 388.599 400.034 388.056 398.209 388.056C395.001 388.056 392.682 390.573 392.139 394.325L387.945 393.535C388.192 390.82 389.327 388.599 391.301 386.822C393.274 384.996 395.594 384.108 398.209 384.108C401.416 384.108 403.933 385.095 405.709 387.118C407.14 388.747 407.88 390.968 407.88 393.683C407.88 396.348 406.943 398.865 405.117 401.185L393.965 415.104H408.522V419.053ZM451.698 386.329L436.302 419.053H431.713L446.27 388.451H429.542V384.503H451.698V386.329ZM514.068 409.576L518.213 409.033C518.855 413.327 521.125 415.499 525.072 415.499C529.217 415.499 531.98 412.784 531.98 408.194C531.98 403.505 529.266 400.889 525.072 400.889C523.937 400.889 522.901 401.087 522.013 401.531L520.286 399.211L528.131 388.451H515.697V384.503H534.447V385.835L525.664 397.73C525.96 397.632 526.404 397.582 527.046 397.582C529.71 397.582 531.882 398.569 533.609 400.544C535.336 402.469 536.224 405.035 536.224 408.194C536.224 411.501 535.188 414.216 533.115 416.338C531.043 418.411 528.378 419.447 525.072 419.447C522.161 419.447 519.694 418.559 517.621 416.733C515.549 414.907 514.364 412.537 514.068 409.576ZM580.485 386.329L565.09 419.053H560.501L575.058 388.451H558.33V384.503H580.485V386.329ZM599.927 409.576L604.072 409.033C604.713 413.327 606.983 415.499 610.931 415.499C615.076 415.499 617.839 412.784 617.839 408.194C617.839 403.505 615.125 400.889 610.931 400.889C609.796 400.889 608.759 401.087 607.871 401.531L606.144 399.211L613.99 388.451H601.555V384.503H620.306V385.835L611.523 397.73C611.819 397.632 612.263 397.582 612.904 397.582C615.569 397.582 617.74 398.569 619.467 400.544C621.194 402.469 622.082 405.035 622.082 408.194C622.082 411.501 621.046 414.216 618.974 416.338C616.901 418.411 614.237 419.447 610.931 419.447C608.019 419.447 605.552 418.559 603.48 416.733C601.407 414.907 600.223 412.537 599.927 409.576ZM663.482 414.709C661.261 417.868 658.202 419.447 654.205 419.447C650.208 419.447 647.1 417.868 644.879 414.709C642.659 411.501 641.573 407.207 641.573 401.778C641.573 396.348 642.659 392.054 644.879 388.895C647.1 385.687 650.208 384.108 654.205 384.108C658.202 384.108 661.261 385.687 663.482 388.895C665.702 392.054 666.837 396.348 666.837 401.778C666.837 407.207 665.702 411.501 663.482 414.709ZM645.915 401.778C645.915 405.578 646.508 408.737 647.741 411.155L658.005 389.191C656.87 388.451 655.636 388.056 654.205 388.056C648.925 388.056 645.915 393.288 645.915 401.778ZM654.205 415.499C659.485 415.499 662.495 410.267 662.495 401.778C662.495 397.878 661.903 394.769 660.669 392.4L650.406 414.364C651.541 415.104 652.774 415.499 654.205 415.499ZM730.787 391.314L741.988 384.503H743.567V415.301H752.449V419.053H730.54V415.301H739.422V390.722L730.787 395.855V391.314ZM772.384 410.02L776.578 409.23C777.17 413.327 779.687 415.499 783.24 415.499C787.434 415.499 790.247 412.389 790.247 407.799C790.247 403.11 787.779 400.099 783.634 400.099C780.526 400.099 777.615 401.728 775.888 403.949L773.174 403.357L775.147 384.503H792.023V388.451H778.749L777.466 398.471C778.848 397.138 781.611 396.151 783.931 396.151C790.493 396.151 794.49 400.642 794.49 407.799C794.49 411.205 793.454 414.018 791.332 416.19C789.26 418.362 786.546 419.447 783.24 419.447C777.368 419.447 772.976 416.091 772.384 410.02ZM816.646 391.314L827.847 384.503H829.426V415.301H838.308V419.053H816.399V415.301H825.281V390.722L816.646 395.855V391.314ZM869.789 396.941C872.947 396.941 875.513 397.977 877.487 400.099C879.51 402.172 880.497 404.887 880.497 408.194C880.497 411.402 879.46 414.067 877.388 416.239C875.365 418.362 872.75 419.447 869.592 419.447C866.434 419.447 863.818 418.362 861.746 416.239C859.723 414.067 858.687 411.402 858.687 408.194C858.687 405.874 859.279 403.752 860.463 401.728L870.677 384.108H875.414L867.914 397.286C868.407 397.039 869.049 396.941 869.789 396.941ZM863.029 408.194C863.029 412.389 865.792 415.499 869.592 415.499C873.391 415.499 876.154 412.389 876.154 408.194C876.154 403.801 873.49 400.889 869.592 400.889C865.693 400.889 863.029 403.801 863.029 408.194ZM961.717 419.053H957.473V411.698H942.473V409.971L957.079 384.503H961.717V407.75H966.947V411.698H961.717V419.053ZM957.473 391.018L948.098 407.75H957.473V391.018ZM997.096 406.615C993.938 406.615 991.373 405.578 989.349 403.505C987.376 401.383 986.389 398.668 986.389 395.361C986.389 392.153 987.425 389.488 989.448 387.365C991.521 385.194 994.136 384.108 997.294 384.108C1000.45 384.108 1003.07 385.194 1005.09 387.365C1007.16 389.488 1008.2 392.153 1008.2 395.361C1008.2 397.681 1007.61 399.803 1006.42 401.827L996.208 419.447H991.471L998.972 406.269C998.478 406.516 997.837 406.615 997.096 406.615ZM1003.86 395.361C1003.86 391.166 1001.09 388.056 997.294 388.056C993.494 388.056 990.731 391.166 990.731 395.361C990.731 399.754 993.396 402.666 997.294 402.666C1001.19 402.666 1003.86 399.754 1003.86 395.361ZM1029.22 409.576L1033.36 409.033C1034.01 413.327 1036.28 415.499 1040.22 415.499C1044.37 415.499 1047.13 412.784 1047.13 408.194C1047.13 403.505 1044.42 400.889 1040.22 400.889C1039.09 400.889 1038.05 401.087 1037.16 401.531L1035.44 399.211L1043.28 388.451H1030.85V384.503H1049.6V385.835L1040.82 397.73C1041.11 397.632 1041.56 397.582 1042.2 397.582C1044.86 397.582 1047.03 398.569 1048.76 400.544C1050.49 402.469 1051.37 405.035 1051.37 408.194C1051.37 411.501 1050.34 414.216 1048.27 416.338C1046.19 418.411 1043.53 419.447 1040.22 419.447C1037.31 419.447 1034.84 418.559 1032.77 416.733C1030.7 414.907 1029.52 412.537 1029.22 409.576ZM1093.02 393.337C1093.02 396.25 1091.39 399.211 1089.07 400.445C1092.23 401.876 1094.21 404.986 1094.21 409.132C1094.21 412.291 1093.17 414.808 1091.1 416.683C1089.02 418.51 1086.51 419.447 1083.5 419.447C1080.49 419.447 1077.97 418.51 1075.9 416.683C1073.83 414.808 1072.79 412.291 1072.79 409.132C1072.79 404.986 1074.76 401.876 1077.92 400.445C1075.6 399.211 1073.97 396.25 1073.97 393.337C1073.97 390.722 1074.86 388.55 1076.64 386.773C1078.46 384.996 1080.73 384.108 1083.5 384.108C1086.26 384.108 1088.53 384.996 1090.31 386.773C1092.13 388.55 1093.02 390.722 1093.02 393.337ZM1088.09 404.492C1086.9 403.357 1085.37 402.765 1083.5 402.765C1081.62 402.765 1080.09 403.357 1078.91 404.492C1077.72 405.627 1077.13 407.207 1077.13 409.132C1077.13 411.057 1077.72 412.636 1078.91 413.771C1080.09 414.907 1081.62 415.499 1083.5 415.499C1085.37 415.499 1086.9 414.907 1088.09 413.771C1089.27 412.636 1089.86 411.057 1089.86 409.132C1089.86 407.207 1089.27 405.627 1088.09 404.492ZM1087.35 389.389C1086.41 388.352 1085.13 387.859 1083.5 387.859C1081.87 387.859 1080.59 388.352 1079.65 389.389C1078.71 390.425 1078.22 391.709 1078.22 393.337C1078.22 394.966 1078.71 396.25 1079.65 397.286C1080.59 398.323 1081.87 398.816 1083.5 398.816C1085.13 398.816 1086.41 398.323 1087.35 397.286C1088.28 396.25 1088.78 394.966 1088.78 393.337C1088.78 391.709 1088.28 390.425 1087.35 389.389Z" fill="white"/>
<path fill-rule="evenodd" clip-rule="evenodd" d="M347.9 209.052H409.004V216.94H347.9V209.052Z" fill="#00FFBB"/>
<path d="M295.177 216.94V208.29H338.511V216.94H295.177Z" fill="#00FFBB"/>
<path fill-rule="evenodd" clip-rule="evenodd" d="M356.701 158.433V266.797H348.054V158.433H356.701Z" fill="#00FFBB"/>
</g>
<defs>
<clipPath id="clip0_15_2">
<rect width="858" height="803" fill="white"/>
</clipPath>
</defs>
</svg>
