<svg width="500" height="500" viewBox="0 0 500 500" fill="none" xmlns="http://www.w3.org/2000/svg">
<path d="M211.764 325.368L214.718 333.8L207.544 328.319L199.948 333.8L202.902 324.946L195.728 319.887H204.59L207.544 311.455L210.076 319.887H218.938L211.764 325.368Z" fill="white"/>
<path d="M254.386 336.33L257.34 345.183L249.744 339.702L242.57 345.183L245.102 336.33L237.928 331.27H246.79L249.744 322.838L252.698 331.27L261.56 330.849L254.386 336.33Z" fill="white"/>
<path d="M327.814 294.17L330.768 303.023L323.172 297.121L315.998 302.602L318.53 294.17L311.356 289.11L320.218 288.689L323.172 280.257L326.126 288.689H334.988L327.814 294.17Z" fill="white"/>
<path d="M296.586 325.368L299.54 333.8L292.366 328.319L284.77 333.8L287.724 324.946L280.55 319.887H289.412L292.366 311.455L294.898 319.887H303.76L296.586 325.368Z" fill="white"/>
<path d="M180.958 294.17L183.912 303.023L176.316 297.121L169.142 302.602L171.674 294.17L164.5 289.11L173.362 288.689L176.316 280.257L178.848 288.689H188.132L180.958 294.17Z" fill="white"/>
<path d="M169.564 252.01L172.518 260.442L164.922 254.961L157.326 260.442L160.28 251.588L153.106 246.529H161.968L164.922 238.097L167.454 246.529H176.738L169.564 252.01Z" fill="white"/>
<path d="M211.764 178.651L214.718 187.505L207.544 181.602L199.948 187.083L202.902 178.651L195.728 173.17H204.59L207.544 164.738L210.076 173.17H218.938L211.764 178.651Z" fill="white"/>
<path d="M180.958 209.428L183.912 218.282L176.316 212.379L169.142 217.86L171.674 209.428L164.5 203.947H173.362L176.316 195.515L178.848 203.947H188.132L180.958 209.428Z" fill="white"/>
<path d="M254.386 166.846L257.34 175.7L249.744 169.798L242.57 175.278L245.102 166.846L237.928 161.366H246.79L249.744 152.934L252.698 161.366H261.56L254.386 166.846Z" fill="white"/>
<path d="M296.586 178.651L299.54 187.505L292.366 181.602L284.77 187.083L287.724 178.651L280.55 173.17H289.412L292.366 164.738L294.898 173.17H303.76L296.586 178.651Z" fill="white"/>
<path d="M339.63 252.01L342.162 260.442L334.988 254.961L327.392 260.442L330.346 251.588L323.172 246.529H332.034L334.988 238.097L337.52 246.529H346.382L339.63 252.01Z" fill="white"/>
<path d="M327.814 209.428L330.768 218.282L323.172 212.379L315.998 217.86L318.53 209.428L311.356 203.947H320.218L323.172 195.515L326.126 203.947H334.988L327.814 209.428Z" fill="white"/>
<path d="M440.91 123H59V377.225H440.91V123Z" stroke="white" stroke-width="4" stroke-miterlimit="10"/>
</svg>
