<svg width="500" height="500" viewBox="0 0 500 500" fill="none" xmlns="http://www.w3.org/2000/svg">
<path d="M87.9498 45.0007C87.66 44.9971 87.3702 45.0082 87.0815 45.034C84.902 45.1535 82.8508 46.1012 81.3482 47.683C79.8457 49.2647 79.0056 51.3608 79.0001 53.5414V446.418C78.9929 447.937 79.3913 449.43 80.1543 450.744C80.9173 452.058 82.0173 453.145 83.3409 453.893C84.6645 454.641 86.1638 455.023 87.6842 454.999C89.2046 454.975 90.6911 454.546 91.9905 453.757L125.151 433.707C125.821 433.41 126.449 433.029 127.021 432.572L416.851 257.319C418.117 256.56 419.164 255.487 419.891 254.204C420.618 252.92 421 251.471 421 249.996C421 248.522 420.618 247.072 419.891 245.789C419.164 244.506 418.117 243.432 416.851 242.673L127.155 67.5203C127.1 67.4863 127.044 67.453 126.988 67.4202C126.38 66.9184 125.706 66.503 124.984 66.1858L91.9905 46.2351C90.7682 45.4923 89.3789 45.0679 87.9498 45.0007V45.0007ZM96.098 68.688L116.135 80.7986L255.523 250.046L116.302 419.061L96.098 431.271V68.688ZM160.249 107.489L302.208 193.33L266.576 236.601L160.249 107.489ZM317.002 202.271L395.846 249.98L316.935 297.721L277.663 250.046L317.002 202.271ZM266.576 263.491L302.141 306.662L160.449 392.371L266.576 263.491Z" fill="white"/>
</svg>
