<svg width="858" height="803" viewBox="0 0 858 803" fill="none" xmlns="http://www.w3.org/2000/svg">
<rect width="858" height="803" fill="white"/>
<rect width="858" height="803" fill="#181818"/>
<path d="M84 394.029V316.184H101.358V377.45H134.976V394.029H84Z" fill="white"/>
<path d="M137.614 394.029V339.461H154.313V394.029H137.614ZM136.186 322.772C136.186 321.454 136.442 320.21 136.955 319.039C137.468 317.794 138.163 316.733 139.042 315.855C139.921 314.976 140.947 314.281 142.118 313.769C143.29 313.256 144.535 313 145.854 313C148.637 313 150.981 313.952 152.885 315.855C154.789 317.758 155.741 320.064 155.741 322.772C155.741 325.48 154.789 327.786 152.885 329.689C150.981 331.592 148.637 332.544 145.854 332.544C144.535 332.544 143.29 332.287 142.118 331.775C140.947 331.263 139.921 330.567 139.042 329.689C138.163 328.811 137.468 327.786 136.955 326.615C136.442 325.37 136.186 324.089 136.186 322.772Z" fill="white"/>
<path d="M194.836 394.029H178.028L155.616 339.461H173.743L186.377 373.388L198.022 339.461H215.6L194.836 394.029Z" fill="white"/>
<path d="M251.228 360.212C251.155 359.187 250.898 358.126 250.459 357.028C250.093 355.93 249.47 354.942 248.591 354.064C247.712 353.185 246.577 352.453 245.186 351.868C243.867 351.282 242.219 350.989 240.242 350.989C238.484 350.989 236.946 351.282 235.628 351.868C234.309 352.453 233.174 353.185 232.222 354.064C231.343 354.942 230.647 355.93 230.135 357.028C229.695 358.126 229.439 359.187 229.366 360.212H251.228ZM266.389 378.328C265.73 380.671 264.704 382.903 263.313 385.026C261.921 387.149 260.163 389.015 258.039 390.625C255.915 392.163 253.425 393.37 250.569 394.249C247.786 395.2 244.673 395.676 241.231 395.676C237.495 395.676 233.906 395.017 230.464 393.7C227.022 392.382 223.982 390.479 221.346 387.99C218.709 385.502 216.622 382.464 215.084 378.877C213.546 375.291 212.776 371.192 212.776 366.58C212.776 362.188 213.509 358.236 214.974 354.722C216.512 351.136 218.526 348.098 221.016 345.609C223.58 343.121 226.509 341.217 229.805 339.9C233.101 338.509 236.507 337.814 240.022 337.814C248.518 337.814 255.183 340.266 260.017 345.17C264.924 350.074 267.378 356.955 267.378 365.812C267.378 366.983 267.341 368.117 267.268 369.215C267.195 370.24 267.121 370.826 267.048 370.972H229.036C229.109 372.509 229.475 373.936 230.135 375.254C230.867 376.498 231.783 377.596 232.881 378.548C234.053 379.499 235.371 380.231 236.836 380.744C238.301 381.256 239.839 381.512 241.45 381.512C244.526 381.512 246.907 380.854 248.591 379.536C250.349 378.219 251.631 376.498 252.436 374.376L266.389 378.328Z" fill="white"/>
<path d="M287.459 378.987C287.459 376.572 287.862 374.412 288.668 372.509C289.546 370.606 290.718 368.996 292.183 367.678C293.648 366.287 295.332 365.189 297.237 364.384C299.214 363.506 301.338 362.884 303.609 362.518L316.462 360.541C317.927 360.322 318.953 359.883 319.539 359.224C320.125 358.565 320.417 357.76 320.417 356.808C320.417 355.198 319.722 353.807 318.33 352.636C317.012 351.465 315.034 350.879 312.398 350.879C309.468 350.879 307.197 351.721 305.586 353.405C304.048 355.015 303.206 356.845 303.059 358.895L288.558 355.93C288.704 353.954 289.29 351.904 290.315 349.781C291.341 347.659 292.806 345.719 294.71 343.962C296.687 342.206 299.141 340.742 302.071 339.571C305 338.399 308.479 337.814 312.507 337.814C316.902 337.814 320.637 338.399 323.713 339.571C326.789 340.668 329.28 342.206 331.184 344.182C333.161 346.085 334.553 348.318 335.359 350.879C336.238 353.441 336.677 356.113 336.677 358.895V385.575C336.677 387.698 336.75 389.564 336.897 391.174C337.116 392.785 337.263 393.736 337.336 394.029H322.285C322.212 393.809 322.102 393.224 321.956 392.272C321.809 391.248 321.736 389.784 321.736 387.881C320.271 390.223 318.257 392.089 315.693 393.48C313.13 394.871 310.017 395.566 306.355 395.566C303.352 395.566 300.679 395.09 298.335 394.139C295.992 393.26 294.014 392.053 292.403 390.516C290.792 388.978 289.546 387.222 288.668 385.245C287.862 383.269 287.459 381.183 287.459 378.987ZM310.42 383.489C311.665 383.489 312.874 383.342 314.046 383.05C315.291 382.684 316.353 382.098 317.231 381.293C318.184 380.414 318.953 379.28 319.539 377.889C320.125 376.498 320.417 374.742 320.417 372.619V370.203L310.091 371.85C308.333 372.143 306.868 372.765 305.696 373.717C304.524 374.595 303.938 375.986 303.938 377.889C303.938 379.353 304.414 380.671 305.366 381.842C306.392 382.94 308.076 383.489 310.42 383.489Z" fill="white"/>
<path d="M360.003 394.029H343.304V339.461H359.454V345.719C360.186 344.402 361.138 343.267 362.31 342.315C363.482 341.364 364.727 340.595 366.045 340.01C367.437 339.351 368.865 338.875 370.33 338.582C371.868 338.216 373.333 338.033 374.724 338.033C378.167 338.033 381.133 338.619 383.623 339.79C386.113 340.888 388.164 342.425 389.775 344.402C391.46 346.378 392.668 348.684 393.401 351.319C394.206 353.954 394.609 356.772 394.609 359.773V394.029H377.91V362.628C377.91 359.919 377.178 357.687 375.713 355.93C374.321 354.1 372.088 353.185 369.011 353.185C366.228 353.185 364.031 354.1 362.42 355.93C360.808 357.687 360.003 359.956 360.003 362.737V394.029Z" fill="white"/>
<path d="M404.038 415L416.453 386.673L393.492 339.461H412.168L425.461 368.666L437.546 339.461H455.234L421.616 415H404.038Z" fill="white"/>
<path d="M506.709 339.461L517.366 371.85L526.484 339.461H542.853L525.935 394.029H509.346L497.481 358.785L485.835 394.029H468.917L451.778 339.461H469.136L478.255 371.741L489.021 339.461H506.709Z" fill="white"/>
<path d="M562.143 394.029H545.445V314.537H562.143V342.974C563.828 341.291 565.952 340.046 568.515 339.241C571.152 338.436 573.679 338.033 576.096 338.033C579.685 338.033 582.761 338.619 585.324 339.79C587.961 340.888 590.122 342.425 591.806 344.402C593.491 346.378 594.736 348.684 595.541 351.319C596.347 353.954 596.75 356.772 596.75 359.773V394.029H580.051V362.628C580.051 359.919 579.319 357.687 577.854 355.93C576.462 354.1 574.228 353.185 571.152 353.185C568.515 353.185 566.391 354.027 564.78 355.71C563.169 357.321 562.29 359.407 562.143 361.969V394.029Z" fill="white"/>
<path d="M639.528 360.212C639.455 359.187 639.198 358.126 638.759 357.028C638.393 355.93 637.77 354.942 636.891 354.064C636.012 353.185 634.877 352.453 633.486 351.868C632.167 351.282 630.519 350.989 628.542 350.989C626.784 350.989 625.246 351.282 623.928 351.868C622.609 352.453 621.474 353.185 620.522 354.064C619.643 354.942 618.947 355.93 618.435 357.028C617.995 358.126 617.739 359.187 617.666 360.212H639.528ZM654.689 378.328C654.03 380.671 653.004 382.903 651.613 385.026C650.221 387.149 648.463 389.015 646.339 390.625C644.215 392.163 641.725 393.37 638.869 394.249C636.086 395.2 632.973 395.676 629.531 395.676C625.795 395.676 622.207 395.017 618.764 393.7C615.322 392.382 612.282 390.479 609.646 387.99C607.009 385.502 604.922 382.464 603.384 378.877C601.846 375.291 601.076 371.192 601.076 366.58C601.076 362.188 601.809 358.236 603.274 354.722C604.812 351.136 606.826 348.098 609.316 345.609C611.88 343.121 614.809 341.217 618.105 339.9C621.401 338.509 624.807 337.814 628.322 337.814C636.818 337.814 643.483 340.266 648.317 345.17C653.224 350.074 655.678 356.955 655.678 365.812C655.678 366.983 655.641 368.117 655.568 369.215C655.495 370.24 655.421 370.826 655.348 370.972H617.336C617.409 372.509 617.775 373.936 618.435 375.254C619.167 376.498 620.083 377.596 621.181 378.548C622.353 379.499 623.671 380.231 625.136 380.744C626.601 381.256 628.139 381.512 629.75 381.512C632.826 381.512 635.207 380.854 636.891 379.536C638.649 378.219 639.931 376.498 640.736 374.376L654.689 378.328Z" fill="white"/>
<path d="M695.073 355.93C694.121 355.71 693.206 355.564 692.327 355.491C691.448 355.418 690.606 355.381 689.8 355.381C688.115 355.381 686.504 355.637 684.966 356.15C683.428 356.662 682.073 357.504 680.901 358.675C679.729 359.846 678.777 361.383 678.045 363.286C677.386 365.189 677.056 367.495 677.056 370.203V394.029H660.357V339.461H676.507V346.817C677.239 345.28 678.155 343.999 679.253 342.974C680.425 341.949 681.67 341.144 682.989 340.559C684.307 339.973 685.625 339.571 686.944 339.351C688.335 339.058 689.58 338.912 690.679 338.912C692.363 338.912 693.828 339.095 695.073 339.461V355.93Z" fill="white"/>
<path d="M733.627 360.212C733.554 359.187 733.297 358.126 732.858 357.028C732.492 355.93 731.869 354.942 730.99 354.064C730.111 353.185 728.976 352.453 727.585 351.868C726.266 351.282 724.618 350.989 722.641 350.989C720.883 350.989 719.345 351.282 718.027 351.868C716.708 352.453 715.573 353.185 714.621 354.064C713.742 354.942 713.046 355.93 712.534 357.028C712.094 358.126 711.838 359.187 711.765 360.212H733.627ZM748.788 378.328C748.129 380.671 747.103 382.903 745.712 385.026C744.32 387.149 742.562 389.015 740.438 390.625C738.314 392.163 735.824 393.37 732.968 394.249C730.185 395.2 727.072 395.676 723.63 395.676C719.894 395.676 716.305 395.017 712.863 393.7C709.421 392.382 706.381 390.479 703.745 387.99C701.108 385.502 699.021 382.464 697.483 378.877C695.944 375.291 695.175 371.192 695.175 366.58C695.175 362.188 695.908 358.236 697.373 354.722C698.911 351.136 700.925 348.098 703.415 345.609C705.978 343.121 708.908 341.217 712.204 339.9C715.5 338.509 718.905 337.814 722.421 337.814C730.917 337.814 737.582 340.266 742.416 345.17C747.323 350.074 749.777 356.955 749.777 365.812C749.777 366.983 749.74 368.117 749.667 369.215C749.593 370.24 749.52 370.826 749.447 370.972H711.435C711.508 372.509 711.874 373.936 712.534 375.254C713.266 376.498 714.181 377.596 715.28 378.548C716.452 379.499 717.77 380.231 719.235 380.744C720.7 381.256 722.238 381.512 723.849 381.512C726.925 381.512 729.306 380.854 730.99 379.536C732.748 378.219 734.03 376.498 734.835 374.376L748.788 378.328Z" fill="white"/>
<path d="M752.478 383.708C752.478 382.171 752.771 380.744 753.357 379.426C753.943 378.036 754.749 376.828 755.774 375.803C756.8 374.778 757.972 373.973 759.29 373.388C760.681 372.802 762.146 372.509 763.684 372.509C765.222 372.509 766.651 372.802 767.969 373.388C769.36 373.973 770.569 374.778 771.594 375.803C772.693 376.828 773.535 378.036 774.121 379.426C774.707 380.744 775 382.171 775 383.708C775 385.245 774.707 386.709 774.121 388.1C773.535 389.418 772.693 390.589 771.594 391.614C770.569 392.638 769.36 393.443 767.969 394.029C766.651 394.688 765.222 395.017 763.684 395.017C762.146 395.017 760.681 394.688 759.29 394.029C757.972 393.443 756.8 392.638 755.774 391.614C754.749 390.589 753.943 389.418 753.357 388.1C752.771 386.709 752.478 385.245 752.478 383.708Z" fill="white"/>
<path d="M132.343 487.343V456.182H101.32V487.343H84V409H101.32V439.718H132.343V409H149.773V487.343H132.343Z" fill="#FF3C3C"/>
<path d="M156.073 472.204C156.073 469.773 156.475 467.6 157.278 465.685C158.155 463.77 159.325 462.149 160.786 460.823C162.248 459.424 163.929 458.319 165.829 457.508C167.802 456.624 169.921 455.998 172.187 455.63L185.013 453.641C186.474 453.42 187.497 452.978 188.082 452.315C188.667 451.652 188.959 450.842 188.959 449.884C188.959 448.263 188.265 446.864 186.876 445.685C185.561 444.506 183.588 443.917 180.957 443.917C178.033 443.917 175.768 444.764 174.16 446.459C172.625 448.079 171.785 449.921 171.639 451.983L157.169 449C157.315 447.011 157.9 444.948 158.923 442.812C159.946 440.676 161.407 438.724 163.308 436.956C165.281 435.188 167.729 433.715 170.652 432.536C173.575 431.357 177.047 430.768 181.066 430.768C185.451 430.768 189.178 431.357 192.248 432.536C195.317 433.641 197.802 435.188 199.702 437.177C201.675 439.092 203.064 441.339 203.867 443.917C204.744 446.495 205.183 449.184 205.183 451.983V478.834C205.183 480.971 205.256 482.849 205.402 484.47C205.621 486.09 205.768 487.048 205.841 487.343H190.823C190.749 487.122 190.64 486.532 190.494 485.575C190.348 484.543 190.274 483.07 190.274 481.155C188.813 483.512 186.803 485.39 184.245 486.79C181.687 488.19 178.581 488.89 174.927 488.89C171.931 488.89 169.264 488.411 166.925 487.453C164.587 486.569 162.613 485.354 161.006 483.807C159.398 482.26 158.155 480.492 157.278 478.503C156.475 476.514 156.073 474.414 156.073 472.204ZM178.983 476.735C180.226 476.735 181.432 476.587 182.601 476.293C183.843 475.924 184.903 475.335 185.78 474.525C186.73 473.641 187.497 472.499 188.082 471.099C188.667 469.7 188.959 467.932 188.959 465.796V463.365L178.655 465.022C176.901 465.317 175.439 465.943 174.27 466.901C173.1 467.785 172.516 469.184 172.516 471.099C172.516 472.573 172.991 473.899 173.941 475.077C174.964 476.182 176.645 476.735 178.983 476.735Z" fill="#FF3C3C"/>
<path d="M247.093 487.343C246.947 486.827 246.838 485.98 246.765 484.801C246.691 483.549 246.655 482.554 246.655 481.818C245.193 484.175 243.074 485.906 240.297 487.011C237.593 488.042 234.852 488.558 232.075 488.558C228.787 488.558 225.827 488.006 223.196 486.901C220.638 485.722 218.482 484.175 216.728 482.26C214.974 480.271 213.622 477.987 212.672 475.409C211.795 472.831 211.357 470.068 211.357 467.122V432.425H228.019V463.586C228.019 466.238 228.714 468.484 230.102 470.326C231.564 472.168 233.793 473.088 236.789 473.088C239.566 473.088 241.758 472.241 243.366 470.547C245.047 468.779 245.888 466.495 245.888 463.696V432.425H262.55V477.508C262.55 480.013 262.623 482.186 262.769 484.028C262.915 485.796 263.025 486.901 263.098 487.343H247.093Z" fill="#FF3C3C"/>
<path d="M281.118 469.221C281.264 471.136 281.995 472.867 283.31 474.414C284.699 475.888 286.818 476.624 289.668 476.624C291.788 476.624 293.359 476.145 294.382 475.188C295.478 474.23 296.026 473.125 296.026 471.873C296.026 470.842 295.625 469.958 294.821 469.221C294.09 468.411 292.701 467.785 290.655 467.343L284.407 465.906C281.483 465.243 278.999 464.359 276.952 463.254C274.906 462.149 273.225 460.86 271.91 459.387C270.594 457.913 269.644 456.293 269.06 454.525C268.475 452.757 268.183 450.915 268.183 449C268.183 446.495 268.694 444.138 269.717 441.928C270.74 439.718 272.166 437.803 273.993 436.182C275.893 434.488 278.122 433.162 280.679 432.204C283.237 431.247 286.051 430.768 289.12 430.768C293.067 430.768 296.392 431.32 299.096 432.425C301.8 433.53 303.992 434.93 305.673 436.624C307.427 438.245 308.706 440.013 309.51 441.928C310.314 443.77 310.789 445.501 310.935 447.122L297.123 449.663C296.903 447.821 296.173 446.238 294.93 444.912C293.761 443.586 291.897 442.923 289.34 442.923C287.732 442.923 286.343 443.365 285.174 444.249C284.005 445.059 283.42 446.201 283.42 447.674C283.42 448.853 283.822 449.773 284.626 450.436C285.43 451.099 286.453 451.541 287.695 451.762L294.93 453.199C300.631 454.378 304.833 456.551 307.537 459.718C310.314 462.812 311.702 466.385 311.702 470.436C311.702 472.794 311.264 475.077 310.387 477.287C309.51 479.497 308.158 481.486 306.331 483.254C304.504 484.948 302.238 486.311 299.534 487.343C296.83 488.448 293.651 489 289.997 489C285.686 489 282.068 488.411 279.145 487.232C276.295 485.98 273.993 484.47 272.239 482.702C270.485 480.934 269.169 479.055 268.292 477.066C267.488 475.077 267.05 473.309 266.977 471.762L281.118 469.221Z" fill="#FF3C3C"/>
<path d="M314.528 476.956C314.528 475.409 314.82 473.972 315.405 472.646C315.989 471.247 316.793 470.031 317.816 469C318.839 467.969 320.009 467.158 321.324 466.569C322.713 465.98 324.174 465.685 325.709 465.685C327.244 465.685 328.669 465.98 329.984 466.569C331.373 467.158 332.579 467.969 333.602 469C334.698 470.031 335.538 471.247 336.123 472.646C336.708 473.972 337 475.409 337 476.956C337 478.503 336.708 479.976 336.123 481.376C335.538 482.702 334.698 483.88 333.602 484.912C332.579 485.943 331.373 486.753 329.984 487.343C328.669 488.006 327.244 488.337 325.709 488.337C324.174 488.337 322.713 488.006 321.324 487.343C320.009 486.753 318.839 485.943 317.816 484.912C316.793 483.88 315.989 482.702 315.405 481.376C314.82 479.976 314.528 478.503 314.528 476.956Z" fill="#FF3C3C"/>
</svg>
