<svg width="1600" height="800" viewBox="0 0 1600 800" fill="none" xmlns="http://www.w3.org/2000/svg">
<g clip-path="url(#clip0_4_2)">
<rect width="1600" height="800" fill="white"/>
<rect x="-159" y="-53" width="1917" height="907" rx="90" fill="#0000FF"/>
<path d="M954.779 231.136V233.136H956.779H958.32V298.18H956.779H954.779V300.18V666.272C954.779 673.381 953.379 680.421 950.658 686.99C947.937 693.558 943.95 699.526 938.922 704.554C933.895 709.581 927.927 713.569 921.358 716.289C914.79 719.01 907.75 720.411 900.64 720.411H695.139C688.029 720.411 680.989 719.01 674.421 716.289C667.852 713.569 661.884 709.581 656.857 704.554C651.83 699.526 647.842 693.558 645.121 686.989C642.4 680.421 641 673.381 641 666.271V134.139C641 127.029 642.4 119.989 645.121 113.421C647.842 106.852 651.83 100.884 656.857 95.8568C661.884 90.8296 667.853 86.8417 674.421 84.121C680.99 81.4003 688.03 80 695.139 80H900.64C914.999 80 928.769 85.704 938.922 95.857C949.076 106.01 954.779 119.781 954.779 134.139V231.136Z" stroke="white" stroke-width="4"/>
<path d="M875.658 93.9332H902.483C907.988 93.9332 913.44 95.0176 918.526 97.1245C923.613 99.2314 928.234 102.319 932.127 106.212C936.02 110.106 939.109 114.727 941.215 119.814C943.322 124.9 944.407 130.352 944.407 135.857V667.209C944.407 678.328 939.99 688.991 932.127 696.854C924.265 704.716 913.602 709.133 902.483 709.133H695.992C690.486 709.133 685.035 708.048 679.948 705.942C674.862 703.835 670.24 700.747 666.347 696.854C662.454 692.961 659.366 688.339 657.259 683.252C655.152 678.166 654.068 672.714 654.068 667.209V135.857C654.068 124.738 658.485 114.075 666.347 106.212C674.209 98.3502 684.873 93.9332 695.992 93.9332H721.046C719.813 96.9576 719.342 100.239 719.675 103.488C720.008 106.737 721.136 109.855 722.957 112.566C724.779 115.277 727.24 117.498 730.123 119.034C733.005 120.57 736.221 121.374 739.488 121.374H857.217C860.483 121.374 863.699 120.57 866.582 119.034C869.464 117.498 871.925 115.277 873.747 112.566C875.569 109.855 876.696 106.737 877.029 103.488C877.362 100.239 876.891 96.9576 875.658 93.9332Z" fill="white"/>
<rect x="665" y="624" width="266" height="74" rx="37" fill="#0000FF"/>
</g>
<defs>
<clipPath id="clip0_4_2">
<rect width="1600" height="800" fill="white"/>
</clipPath>
</defs>
</svg>
