<svg width="858" height="803" viewBox="0 0 858 803" fill="none" xmlns="http://www.w3.org/2000/svg">
<g clip-path="url(#clip0_11_2)">
<rect width="858" height="803" fill="white"/>
<rect width="858" height="803" fill="#F3F3F3"/>
<g filter="url(#filter0_d_11_2)">
<path d="M445.445 166.398C423.523 135.473 399.253 120.206 398.078 119.815C395.729 118.249 392.989 119.032 391.423 121.38C389.858 123.729 390.64 126.469 392.989 128.035C393.381 128.427 434.484 155.438 439.182 200.456C442.705 232.947 426.655 267.004 392.206 301.452C356.192 337.467 339.359 374.264 342.099 410.67C346.405 464.3 390.64 497.183 392.598 498.748C393.381 499.531 394.555 499.531 395.338 499.531C396.904 499.531 398.078 499.14 398.861 497.966C400.427 496.008 400.427 493.268 398.47 491.311C380.854 473.695 372.633 457.645 373.025 442.77C373.808 418.89 395.729 398.926 419.217 377.787C442.313 356.648 466.584 335.118 472.456 307.324C486.157 241.95 465.409 194.584 445.445 166.398Z" fill="white"/>
<path d="M505.73 252.52C503.381 250.954 500.641 251.737 499.075 254.086C497.509 256.434 498.292 259.175 500.641 260.74C501.032 260.74 521.78 274.833 524.129 297.538C525.694 313.979 517.865 331.203 499.858 348.819C480.285 368.392 471.281 388.357 472.847 408.321C475.196 437.681 499.467 455.688 500.641 456.471C501.424 457.254 502.598 457.254 503.381 457.254C504.947 457.254 506.121 456.862 506.904 455.688C508.47 453.731 508.47 450.99 506.513 449.033C497.509 440.029 493.595 432.2 493.595 425.154C493.986 413.41 505.339 403.232 517.082 392.271C529.609 380.919 542.527 369.175 545.659 353.517C560.143 286.577 506.121 252.911 505.73 252.52Z" fill="white"/>
<path d="M345.231 329.246C336.227 320.242 332.313 312.413 332.313 305.367C332.704 293.623 344.057 283.445 355.8 272.484C368.327 261.132 381.245 249.388 384.377 233.73C398.861 166.398 344.84 132.733 344.057 132.341C341.708 130.775 338.968 131.558 337.402 133.907C335.836 136.256 336.619 138.996 338.968 140.562C339.359 140.562 360.107 154.263 362.455 177.359C364.021 193.801 356.192 211.025 338.185 229.032C318.612 248.605 309.608 268.569 311.174 288.534C313.523 317.894 337.793 335.901 338.968 336.684C339.751 337.467 340.925 337.467 341.708 337.467C343.274 337.467 344.448 337.075 345.231 335.901C347.188 333.943 346.797 330.812 345.231 329.246Z" fill="white"/>
</g>
<ellipse cx="226.5" cy="665" rx="278.5" ry="30" fill="url(#paint0_linear_11_2)" fill-opacity="0.35"/>
<path d="M429.16 683.491C562.35 683.491 670.321 575.284 670.321 441.803H188C188 575.284 295.971 683.491 429.16 683.491Z" fill="#FF6060"/>
<path d="M783.591 239.568C803.81 252.803 810.648 275.173 817.633 297.372C815.327 310.118 802.849 321.251 795.96 318.156C797.4 315.278 798.499 308.861 796.866 302.084C794.199 290.961 785.532 289.62 785.532 289.62C785.532 289.62 783.114 280.137 782.154 276.674C781.23 273.254 780.822 269.714 780.943 266.17C781.165 260.268 781.482 250.302 781.854 240.836C781.879 240.074 781.903 239.313 781.943 238.549L783.591 239.568Z" fill="#FFE6DE"/>
<path d="M745.42 291.112C745.07 296.709 743.399 302.147 740.543 306.98C737.946 311.197 735.287 312.569 735.36 309.069C735.461 302.562 736.659 272.271 736.659 272.271C736.659 272.271 746.347 276.995 745.42 291.112ZM796.91 302.123C798.536 308.875 797.44 315.271 796.005 318.138C795.081 319.985 794.009 320.372 793.432 318.386C791.963 313.323 785.619 289.704 785.619 289.704C785.619 289.704 794.208 290.993 796.91 302.123Z" fill="#FEC7C7"/>
<path d="M697.96 207.826L697.898 207.914C697.75 208.125 690.223 216.7 683.502 224.451C682.795 223.238 682.37 221.883 682.257 220.484L578.512 239.042C574.215 236.197 569.838 233.475 565.387 230.878L564.634 230.438C563.326 229.685 562.018 228.933 560.707 228.204L560.479 228.043L668.974 206.479C661.772 201.629 658.399 195.41 661.659 192.245C661.69 192.202 662.01 192.046 662.517 191.774C663.761 191.128 666.219 189.881 669.397 188.301C672.575 186.721 676.415 184.78 680.44 182.8L680.578 182.753L683.105 181.501L700.994 176.63C702.202 181.859 705.43 187.463 711.489 192.425C707.066 197.554 697.96 207.826 697.96 207.826V207.826ZM881.05 416.631C884.499 418.816 888.049 420.877 891.671 422.817L910.637 395.958L903.556 393.428C884.859 386.777 867.88 376.04 853.856 361.999C839.831 347.959 829.113 330.967 822.481 312.261L822.259 311.645C820.599 306.964 819.087 302.203 817.579 297.419C815.297 310.119 802.865 321.196 795.987 318.1C795.064 319.945 793.991 320.331 793.41 318.344C791.93 313.278 785.539 289.644 785.539 289.644C785.539 289.644 783.111 280.19 782.148 276.736C781.221 273.327 780.808 269.798 780.924 266.266C781.136 260.384 781.437 250.452 781.793 241.018L775.639 251.482C775.639 251.482 774.061 262.813 770.579 283.39C767.964 298.851 749.263 310.153 740.382 306.918C737.788 311.131 735.128 312.498 735.195 308.998C735.285 302.491 736.434 272.197 736.434 272.197C736.434 272.197 736.593 261.888 736.747 256.517C736.773 255.458 736.848 254.42 736.96 253.369C737.045 252.554 737.166 251.763 737.322 250.996C737.375 250.679 737.443 250.359 737.496 250.042C737.617 249.444 737.721 248.887 737.884 248.266L738.091 247.414C738.317 246.574 738.563 245.723 738.842 244.882C739.137 243.999 739.476 243.016 739.822 241.986L739.921 241.846C740.414 240.367 740.954 238.765 741.537 237.047L678.883 260.403L677.996 261.287L678.066 261.337C677.028 262.378 676.403 263.041 676.356 263.126C673.775 268.176 682.285 275.657 693.941 277.829L637.452 293.291C638.973 295.193 640.452 297.117 641.903 299.062C643.461 301.134 644.98 303.224 646.462 305.33L697.466 292.369L707.825 289.736L734.769 282.888C734.102 285.544 733.831 288.285 733.966 291.02C734.162 295.561 735.748 326.892 735.748 326.892C736.882 342.03 765.657 334.766 767.55 317.928C769.443 301.091 770.22 291.6 770.22 291.6L775.343 283.508C775.622 291.446 775.957 299.79 776.127 304.72C776.281 307.799 776.9 310.837 777.962 313.73C779.329 317.468 789.539 345.164 789.539 345.164L789.653 345.468C794.133 357.726 811.003 348.718 812.677 335.576C826.539 369.017 850.426 397.335 881.05 416.631V416.631ZM710.03 283.041L707.924 289.596L697.565 292.229L699.067 287.573L710.03 283.041Z" fill="black" fill-opacity="0.05"/>
<path d="M680.412 237.617C685.429 235.625 689.93 232.525 693.579 228.549C703.153 218.152 698.62 208.391 698.62 208.391L698.651 208.348C698.651 208.348 707.749 198.086 712.2 192.991C713.349 193.944 714.546 194.838 715.786 195.668C726.04 202.423 736.562 209.302 746.171 215.576L684.716 240.393C683.116 239.753 681.655 238.811 680.412 237.617ZM777.583 236.039L782.51 239.216C782.472 239.977 782.449 240.734 782.426 241.492L776.284 251.939C776.284 251.939 774.716 263.254 771.251 283.803C768.649 299.242 749.97 310.517 741.093 307.279C743.939 302.459 745.598 297.03 745.934 291.441C746.829 277.341 737.123 272.599 737.123 272.599C737.123 272.599 737.274 262.304 737.424 256.939C738.583 236.82 750.039 219.436 750.15 218.386L777.583 236.039Z" fill="#FFE6DE"/>
<path fill-rule="evenodd" clip-rule="evenodd" d="M715.229 151.693C717.124 152.007 720.089 152.554 721.853 152.96L782.873 138.034L848.725 112.033L807.298 103.445L795.519 101.009L792.077 100.299C783.453 98.5336 774.535 98.8271 766.05 101.155C755.612 103.986 731.37 111.065 720.515 114.245C716.927 115.286 713.518 116.863 710.403 118.922C707.663 120.751 703.061 123.832 698.159 127.113C696.033 128.537 693.85 129.998 691.739 131.411C691.739 131.411 693.241 142.109 681.029 149.24C675.834 152.343 669.911 154.021 663.857 154.105C664.954 158.49 671.631 163.486 679.719 164.654L699.866 158.609C700.035 158.025 701.216 158.447 701.951 156.89C703.777 153.02 708.049 150.562 715.229 151.693ZM820.397 310.952L820.619 311.568C827.265 330.269 837.994 347.258 852.027 361.301C866.061 375.344 883.045 386.087 901.745 392.751L908.828 395.284L982.615 290.791C970.05 278.401 961 262.899 956.394 245.871L934.132 163.847C904.147 174.992 875.411 190.774 844.211 198.453C835.327 200.648 828.923 198.66 820.932 195.288L799.852 185.544L748.429 163.674L738.224 159.344C740.416 160.606 742.254 162.401 743.569 164.562C744.871 167.149 744.082 171.896 741.876 176.602C739.483 181.201 736.201 184.713 733.352 185.248C727.662 186.325 716.082 180.852 704.433 169.856C702.954 168.502 701.715 166.908 700.769 165.141C700.729 165.241 700.684 165.34 700.639 165.439C700.568 165.594 700.497 165.752 700.441 165.921C699.319 169.423 699.196 173.168 700.085 176.738C701.297 181.966 704.529 187.57 710.593 192.535C711.743 193.489 712.941 194.383 714.182 195.214C724.445 201.975 734.976 208.86 744.594 215.139L764.506 228.097L776.128 235.634L781.059 238.814L782.616 239.848L782.659 239.77C801.811 252.912 808.637 274.439 815.446 295.912L815.705 296.729C817.217 301.512 818.733 306.272 820.397 310.952ZM791.065 149.329L843.127 174.148L925.191 141.029C918.666 131.617 908.893 124.944 897.75 122.296L888.033 124.887L791.065 149.329Z" fill="#FFE9E0"/>
<path d="M749.119 163.348L738.923 159.024C734.568 156.173 728.015 153.515 719.968 151.708L781.298 133.286L786.978 153.136L749.119 163.348ZM701.486 164.846C701.384 165.102 701.25 165.348 701.159 165.626C700.035 169.127 699.909 172.873 700.796 176.441L682.915 181.309L543.251 219.175L532.836 221.986L528.938 223.043L523.29 224.57L519.164 225.689L507.442 228.864L491.306 233.231L475.384 237.538L348.564 271.547L344.779 261.585L465.499 228.273L484.087 222.683L497.163 218.782L500.872 217.658L508.703 215.308L512.015 214.337L523.204 210.969L680.473 163.68L700.613 157.622C699.951 160.052 700.264 162.644 701.486 164.846Z" fill="#FF6868"/>
<path fill-rule="evenodd" clip-rule="evenodd" d="M594.809 291.553L603.74 288.208L626.187 279.843L678.874 260.224L741.508 236.901L765.319 228.055L745.417 215.105L683.918 239.965L614.582 267.998L607.667 270.796L605.148 271.815L603.772 272.367L599.018 274.262L591.948 277.149L582.944 280.784L535.454 299.981L535.457 299.978L511.131 309.813L535.454 299.981L535.415 300.02L511.142 309.835L467.514 327.471L454.086 332.868L413.859 349.111L390.403 358.589C389.876 358.799 389.455 359.209 389.23 359.73C389.005 360.25 388.996 360.839 389.204 361.366L390.716 365.271C390.92 365.801 391.327 366.228 391.846 366.459C392.365 366.69 392.954 366.706 393.485 366.503L427.571 353.803L427.658 353.773L465.424 339.732L471.336 337.537L514.689 321.388L514.69 321.387L537.561 312.849L594.809 291.553Z" fill="#FF6868"/>
<path d="M692.952 228.296C689.313 232.248 684.811 235.317 679.782 237.275C674.758 239.133 671.482 238.569 673.815 235.791C675.411 233.888 679.285 229.416 683.476 224.608C690.167 216.916 697.643 208.395 697.809 208.198C697.974 208.001 702.504 217.963 692.952 228.296V228.296Z" fill="#FEC7C7"/>
<path d="M682.259 150.117C677.076 153.171 671.16 154.798 665.109 154.834C661.095 154.704 659.201 153.38 661.837 151.678C667.284 148.177 692.839 132.45 692.854 132.448C692.869 132.445 694.407 143.09 682.259 150.117ZM738.319 159.663C740.513 160.93 742.356 162.723 743.678 164.878C744.99 167.456 744.227 172.171 742.05 176.837C739.686 181.396 736.395 184.846 733.59 185.389C727.92 186.43 716.339 180.931 704.662 169.941C703.18 168.588 701.936 166.998 700.982 165.237C700.17 163.887 699.714 162.358 699.656 160.794C699.599 159.229 699.942 157.679 700.653 156.291C702.429 152.435 706.73 149.997 713.874 151.192C715.766 151.514 717.594 151.869 719.357 152.281C727.399 154.124 733.956 156.803 738.319 159.663Z" fill="#FEC7C7"/>
<path d="M781.308 133.992L786.972 153.824L793.228 152.142L978.101 102.186L968.61 77.789L850.361 113.273L781.308 133.992ZM845.847 198.389C836.972 200.582 830.575 198.597 822.593 195.23L809.316 189.619L844.776 175.307L926.736 142.203L984.563 118.843L994.063 143.245L935.686 164.985L850.215 196.777L849.86 196.907L845.847 198.389Z" fill="#142328"/>
</g>
<defs>
<filter id="filter0_d_11_2" x="217" y="25" width="437.125" height="580.531" filterUnits="userSpaceOnUse" color-interpolation-filters="sRGB">
<feFlood flood-opacity="0" result="BackgroundImageFix"/>
<feColorMatrix in="SourceAlpha" type="matrix" values="0 0 0 0 0 0 0 0 0 0 0 0 0 0 0 0 0 0 127 0" result="hardAlpha"/>
<feOffset dx="6" dy="6"/>
<feGaussianBlur stdDeviation="50"/>
<feComposite in2="hardAlpha" operator="out"/>
<feColorMatrix type="matrix" values="0 0 0 0 0 0 0 0 0 0 0 0 0 0 0 0 0 0 0.1 0"/>
<feBlend mode="normal" in2="BackgroundImageFix" result="effect1_dropShadow_11_2"/>
<feBlend mode="normal" in="SourceGraphic" in2="effect1_dropShadow_11_2" result="shape"/>
</filter>
<linearGradient id="paint0_linear_11_2" x1="299.5" y1="695" x2="15.5" y2="695" gradientUnits="userSpaceOnUse">
<stop stop-color="#C4C4C4"/>
<stop offset="1" stop-color="#C4C4C4" stop-opacity="0"/>
</linearGradient>
<clipPath id="clip0_11_2">
<rect width="858" height="803" fill="white"/>
</clipPath>
</defs>
</svg>
