<svg width="858" height="803" viewBox="0 0 858 803" fill="none" xmlns="http://www.w3.org/2000/svg">
<rect width="858" height="803" fill="white"/>
<rect width="858" height="803" fill="#FFF883"/>
<path d="M111.8 445V359.92H166.64V377.92H130.76V395.92H162.32V413.2H130.88V445H111.8ZM199.522 430C201.282 430 202.962 429.72 204.562 429.16C206.162 428.52 207.562 427.6 208.762 426.4C210.042 425.12 211.042 423.56 211.762 421.72C212.562 419.88 212.962 417.68 212.962 415.12C212.962 412.64 212.562 410.48 211.762 408.64C211.042 406.72 210.042 405.16 208.762 403.96C207.562 402.76 206.162 401.88 204.562 401.32C202.962 400.68 201.282 400.36 199.522 400.36C197.842 400.36 196.162 400.68 194.482 401.32C192.882 401.88 191.442 402.76 190.162 403.96C188.962 405.16 187.962 406.72 187.162 408.64C186.442 410.48 186.082 412.64 186.082 415.12C186.082 417.6 186.442 419.8 187.162 421.72C187.962 423.56 188.962 425.12 190.162 426.4C191.442 427.6 192.882 428.52 194.482 429.16C196.162 429.72 197.842 430 199.522 430ZM199.522 383.56C204.002 383.56 208.162 384.36 212.002 385.96C215.842 387.48 219.162 389.64 221.962 392.44C224.842 395.24 227.082 398.56 228.682 402.4C230.362 406.24 231.202 410.48 231.202 415.12C231.202 419.76 230.362 424.04 228.682 427.96C227.082 431.8 224.842 435.12 221.962 437.92C219.162 440.72 215.842 442.92 212.002 444.52C208.162 446.04 204.002 446.8 199.522 446.8C195.042 446.8 190.882 446.04 187.042 444.52C183.202 442.92 179.842 440.72 176.962 437.92C174.162 435.12 171.922 431.8 170.242 427.96C168.642 424.04 167.842 419.76 167.842 415.12C167.842 410.48 168.642 406.24 170.242 402.4C171.922 398.56 174.162 395.24 176.962 392.44C179.842 389.64 183.202 387.48 187.042 385.96C190.882 384.36 195.042 383.56 199.522 383.56ZM265.503 430C267.263 430 268.943 429.72 270.543 429.16C272.143 428.52 273.543 427.6 274.743 426.4C276.023 425.12 277.023 423.56 277.743 421.72C278.543 419.88 278.943 417.68 278.943 415.12C278.943 412.64 278.543 410.48 277.743 408.64C277.023 406.72 276.023 405.16 274.743 403.96C273.543 402.76 272.143 401.88 270.543 401.32C268.943 400.68 267.263 400.36 265.503 400.36C263.823 400.36 262.143 400.68 260.463 401.32C258.863 401.88 257.423 402.76 256.143 403.96C254.943 405.16 253.943 406.72 253.143 408.64C252.423 410.48 252.063 412.64 252.063 415.12C252.063 417.6 252.423 419.8 253.143 421.72C253.943 423.56 254.943 425.12 256.143 426.4C257.423 427.6 258.863 428.52 260.463 429.16C262.143 429.72 263.823 430 265.503 430ZM265.503 383.56C269.983 383.56 274.143 384.36 277.983 385.96C281.823 387.48 285.143 389.64 287.943 392.44C290.823 395.24 293.063 398.56 294.663 402.4C296.343 406.24 297.183 410.48 297.183 415.12C297.183 419.76 296.343 424.04 294.663 427.96C293.063 431.8 290.823 435.12 287.943 437.92C285.143 440.72 281.823 442.92 277.983 444.52C274.143 446.04 269.983 446.8 265.503 446.8C261.023 446.8 256.863 446.04 253.023 444.52C249.183 442.92 245.823 440.72 242.943 437.92C240.143 435.12 237.903 431.8 236.223 427.96C234.623 424.04 233.823 419.76 233.823 415.12C233.823 410.48 234.623 406.24 236.223 402.4C237.903 398.56 240.143 395.24 242.943 392.44C245.823 389.64 249.183 387.48 253.023 385.96C256.863 384.36 261.023 383.56 265.503 383.56ZM362.804 434.32C362.804 437.04 362.844 439.36 362.924 441.28C363.084 443.12 363.204 444.36 363.284 445H345.764C345.684 444.6 345.564 443.84 345.404 442.72C345.324 441.6 345.284 440.44 345.284 439.24C343.924 441.32 341.804 443.04 338.924 444.4C336.124 445.68 332.924 446.32 329.324 446.32C325.084 446.32 321.164 445.56 317.564 444.04C313.964 442.44 310.844 440.28 308.204 437.56C305.564 434.76 303.484 431.44 301.964 427.6C300.524 423.76 299.804 419.56 299.804 415C299.804 410.6 300.524 406.52 301.964 402.76C303.404 398.92 305.404 395.6 307.964 392.8C310.524 390 313.564 387.84 317.084 386.32C320.604 384.72 324.484 383.92 328.724 383.92C331.284 383.92 333.484 384.16 335.324 384.64C337.164 385.04 338.724 385.56 340.004 386.2C341.284 386.76 342.284 387.4 343.004 388.12C343.804 388.84 344.404 389.48 344.804 390.04V358.12H362.804V434.32ZM318.164 415.12C318.164 417.6 318.524 419.76 319.244 421.6C319.964 423.44 320.924 425 322.124 426.28C323.404 427.48 324.844 428.4 326.444 429.04C328.124 429.68 329.844 430 331.604 430C333.364 430 335.044 429.68 336.644 429.04C338.324 428.4 339.764 427.48 340.964 426.28C342.244 425 343.244 423.44 343.964 421.6C344.684 419.76 345.044 417.6 345.044 415.12C345.044 412.64 344.684 410.48 343.964 408.64C343.244 406.8 342.244 405.28 340.964 404.08C339.764 402.8 338.324 401.88 336.644 401.32C335.044 400.68 333.364 400.36 331.604 400.36C329.844 400.36 328.124 400.68 326.444 401.32C324.844 401.88 323.404 402.8 322.124 404.08C320.924 405.28 319.964 406.8 319.244 408.64C318.524 410.48 318.164 412.64 318.164 415.12ZM391.433 445V359.92H410.393V426.88H447.113V445H391.433ZM479.155 430C480.915 430 482.595 429.72 484.195 429.16C485.795 428.52 487.195 427.6 488.395 426.4C489.675 425.12 490.675 423.56 491.395 421.72C492.195 419.88 492.595 417.68 492.595 415.12C492.595 412.64 492.195 410.48 491.395 408.64C490.675 406.72 489.675 405.16 488.395 403.96C487.195 402.76 485.795 401.88 484.195 401.32C482.595 400.68 480.915 400.36 479.155 400.36C477.475 400.36 475.795 400.68 474.115 401.32C472.515 401.88 471.075 402.76 469.795 403.96C468.595 405.16 467.595 406.72 466.795 408.64C466.075 410.48 465.715 412.64 465.715 415.12C465.715 417.6 466.075 419.8 466.795 421.72C467.595 423.56 468.595 425.12 469.795 426.4C471.075 427.6 472.515 428.52 474.115 429.16C475.795 429.72 477.475 430 479.155 430ZM479.155 383.56C483.635 383.56 487.795 384.36 491.635 385.96C495.475 387.48 498.795 389.64 501.595 392.44C504.475 395.24 506.715 398.56 508.315 402.4C509.995 406.24 510.835 410.48 510.835 415.12C510.835 419.76 509.995 424.04 508.315 427.96C506.715 431.8 504.475 435.12 501.595 437.92C498.795 440.72 495.475 442.92 491.635 444.52C487.795 446.04 483.635 446.8 479.155 446.8C474.675 446.8 470.515 446.04 466.675 444.52C462.835 442.92 459.475 440.72 456.595 437.92C453.795 435.12 451.555 431.8 449.875 427.96C448.275 424.04 447.475 419.76 447.475 415.12C447.475 410.48 448.275 406.24 449.875 402.4C451.555 398.56 453.795 395.24 456.595 392.44C459.475 389.64 462.835 387.48 466.675 385.96C470.515 384.36 474.675 383.56 479.155 383.56ZM549.881 445H531.521L507.041 385.36H526.841L540.641 422.44L553.361 385.36H572.561L549.881 445ZM611.476 408.04C611.396 406.92 611.116 405.76 610.636 404.56C610.236 403.36 609.556 402.28 608.596 401.32C607.636 400.36 606.396 399.56 604.876 398.92C603.436 398.28 601.636 397.96 599.476 397.96C597.556 397.96 595.876 398.28 594.436 398.92C592.996 399.56 591.756 400.36 590.716 401.32C589.756 402.28 588.996 403.36 588.436 404.56C587.956 405.76 587.676 406.92 587.596 408.04H611.476ZM628.036 427.84C627.316 430.4 626.196 432.84 624.676 435.16C623.156 437.48 621.236 439.52 618.916 441.28C616.596 442.96 613.876 444.28 610.756 445.24C607.716 446.28 604.316 446.8 600.556 446.8C596.476 446.8 592.556 446.08 588.796 444.64C585.036 443.2 581.716 441.12 578.836 438.4C575.956 435.68 573.676 432.36 571.996 428.44C570.316 424.52 569.476 420.04 569.476 415C569.476 410.2 570.276 405.88 571.876 402.04C573.556 398.12 575.756 394.8 578.476 392.08C581.276 389.36 584.476 387.28 588.076 385.84C591.676 384.32 595.396 383.56 599.236 383.56C608.516 383.56 615.796 386.24 621.076 391.6C626.436 396.96 629.116 404.48 629.116 414.16C629.116 415.44 629.076 416.68 628.996 417.88C628.916 419 628.836 419.64 628.756 419.8H587.236C587.316 421.48 587.716 423.04 588.436 424.48C589.236 425.84 590.236 427.04 591.436 428.08C592.716 429.12 594.156 429.92 595.756 430.48C597.356 431.04 599.036 431.32 600.796 431.32C604.156 431.32 606.756 430.6 608.596 429.16C610.516 427.72 611.916 425.84 612.796 423.52L628.036 427.84ZM672.147 403.36C671.107 403.12 670.107 402.96 669.147 402.88C668.187 402.8 667.267 402.76 666.387 402.76C664.547 402.76 662.787 403.04 661.107 403.6C659.427 404.16 657.947 405.08 656.667 406.36C655.387 407.64 654.347 409.32 653.547 411.4C652.827 413.48 652.467 416 652.467 418.96V445H634.227V385.36H651.867V393.4C652.667 391.72 653.667 390.32 654.867 389.2C656.147 388.08 657.507 387.2 658.947 386.56C660.387 385.92 661.827 385.48 663.267 385.24C664.787 384.92 666.147 384.76 667.347 384.76C669.187 384.76 670.787 384.96 672.147 385.36V403.36ZM688.082 425.32C688.242 427.4 689.042 429.28 690.482 430.96C692.002 432.56 694.322 433.36 697.442 433.36C699.762 433.36 701.482 432.84 702.602 431.8C703.802 430.76 704.402 429.56 704.402 428.2C704.402 427.08 703.962 426.12 703.082 425.32C702.282 424.44 700.762 423.76 698.522 423.28L691.682 421.72C688.482 421 685.762 420.04 683.522 418.84C681.282 417.64 679.442 416.24 678.002 414.64C676.562 413.04 675.522 411.28 674.882 409.36C674.242 407.44 673.922 405.44 673.922 403.36C673.922 400.64 674.482 398.08 675.602 395.68C676.722 393.28 678.282 391.2 680.282 389.44C682.362 387.6 684.802 386.16 687.602 385.12C690.402 384.08 693.482 383.56 696.842 383.56C701.162 383.56 704.802 384.16 707.762 385.36C710.722 386.56 713.122 388.08 714.962 389.92C716.882 391.68 718.282 393.6 719.162 395.68C720.042 397.68 720.562 399.56 720.722 401.32L705.602 404.08C705.362 402.08 704.562 400.36 703.202 398.92C701.922 397.48 699.882 396.76 697.082 396.76C695.322 396.76 693.802 397.24 692.522 398.2C691.242 399.08 690.602 400.32 690.602 401.92C690.602 403.2 691.042 404.2 691.922 404.92C692.802 405.64 693.922 406.12 695.282 406.36L703.202 407.92C709.442 409.2 714.042 411.56 717.002 415C720.042 418.36 721.562 422.24 721.562 426.64C721.562 429.2 721.082 431.68 720.122 434.08C719.162 436.48 717.682 438.64 715.682 440.56C713.682 442.4 711.202 443.88 708.242 445C705.282 446.2 701.802 446.8 697.802 446.8C693.082 446.8 689.122 446.16 685.922 444.88C682.802 443.52 680.282 441.88 678.362 439.96C676.442 438.04 675.002 436 674.042 433.84C673.162 431.68 672.682 429.76 672.602 428.08L688.082 425.32ZM724.655 433.72C724.655 432.04 724.975 430.48 725.615 429.04C726.255 427.52 727.135 426.2 728.255 425.08C729.375 423.96 730.655 423.08 732.095 422.44C733.615 421.8 735.215 421.48 736.895 421.48C738.575 421.48 740.135 421.8 741.575 422.44C743.095 423.08 744.415 423.96 745.535 425.08C746.735 426.2 747.655 427.52 748.295 429.04C748.935 430.48 749.255 432.04 749.255 433.72C749.255 435.4 748.935 437 748.295 438.52C747.655 439.96 746.735 441.24 745.535 442.36C744.415 443.48 743.095 444.36 741.575 445C740.135 445.72 738.575 446.08 736.895 446.08C735.215 446.08 733.615 445.72 732.095 445C730.655 444.36 729.375 443.48 728.255 442.36C727.135 441.24 726.255 439.96 725.615 438.52C724.975 437 724.655 435.4 724.655 433.72Z" fill="#181818"/>
</svg>
