<svg width="1080" height="1080" viewBox="0 0 1080 1080" fill="none" xmlns="http://www.w3.org/2000/svg">
<path d="M4 1008.24H6.99081" stroke="white" stroke-width="2.75" stroke-linecap="round" stroke-linejoin="round"/>
<path d="M16.9602 1008.24H516.824" stroke="white" stroke-width="2.75" stroke-linecap="round" stroke-linejoin="round" stroke-dasharray="2.97 2.97"/>
<path d="M521.809 1008.24H524.8" stroke="white" stroke-width="2.75" stroke-linecap="round" stroke-linejoin="round"/>
<path d="M509.447 936.863V935.467V934.271V933.074L509.248 931.878V930.682L509.048 929.286V928.09L508.849 926.893L508.65 925.697L508.45 924.501L508.251 923.304L507.852 921.909L507.653 920.712L507.453 919.516L507.055 918.32L506.656 917.123L506.456 915.927L506.058 914.731L505.659 913.534L505.26 912.538L504.861 911.341L504.263 910.145L503.864 908.949L503.266 907.752L502.867 906.755L502.269 905.559L501.671 904.562L501.272 903.366L500.674 902.369L500.076 901.172L499.278 900.176L498.68 898.979L498.082 897.982L497.284 896.985L496.686 895.988L495.889 894.991L495.291 893.994L494.493 892.998L493.696 892.001L492.898 891.004L492.1 890.007L491.303 889.209L490.505 888.212L489.508 887.415L488.711 886.418L487.913 885.62L486.916 884.623L485.919 883.826L485.122 883.028L484.125 882.231L483.128 881.433L482.131 880.636L481.134 879.838L480.137 879.24L479.14 878.442L478.143 877.645L477.146 877.047L476.149 876.448L475.153 875.651L473.956 875.053L472.959 874.454L471.763 873.856L470.766 873.258L469.57 872.66L468.573 872.261L467.376 871.663L466.18 871.264L464.984 870.666L463.987 870.267L462.79 869.869L461.594 869.47L460.398 869.071L459.202 868.672L458.005 868.274L456.809 867.875L455.612 867.675L454.416 867.277L453.22 867.077L452.024 866.878L450.827 866.479L449.631 866.28L448.435 866.08H447.039L445.843 865.881L444.646 865.681H443.45L442.254 865.482H440.858H439.661H438.465H437.269H435.873H434.677H433.481L432.284 865.681H431.088L429.692 865.881L428.496 866.08L427.3 866.28L426.103 866.479L424.907 866.678L423.71 866.878L422.315 867.077L421.118 867.476L419.922 867.675L418.726 868.074L417.53 868.473L416.333 868.872L415.336 869.27L414.14 869.669L412.944 870.068L411.747 870.467L410.551 870.866L409.355 871.464L408.358 871.862L407.161 872.461L406.164 873.059L404.968 873.657L403.971 874.255L402.775 874.853L401.778 875.451L400.582 876.05L399.585 876.648L398.588 877.445L397.591 878.044L396.594 878.841L395.597 879.439L394.6 880.237L393.603 881.034L392.606 881.832L391.609 882.629L390.612 883.427L389.815 884.225L388.818 885.221L388.02 886.019L387.023 886.817L386.226 887.813L385.428 888.611L384.631 889.608L383.833 890.605L383.036 891.402L382.238 892.399L381.44 893.396L380.643 894.393L379.845 895.39L379.247 896.387L378.45 897.583L377.851 898.58L377.253 899.577L376.655 900.574L375.858 901.771L375.259 902.768L374.861 903.964L374.262 904.961L373.664 906.157L373.066 907.353L372.667 908.35L372.069 909.547L371.67 910.743L371.272 911.939L370.873 912.936L370.474 914.133L370.075 915.329L369.677 916.525L369.278 917.722L369.078 918.918L368.68 920.114L368.48 921.311L368.081 922.507L367.882 923.903L367.683 925.099L367.483 926.295L367.284 927.492V928.688L367.085 929.884L366.885 931.28V932.476V933.673L366.686 934.869V936.265V937.461V938.657L366.885 939.854V941.05V942.446L367.085 943.642L367.284 944.838V946.035L367.483 947.231L367.683 948.627L367.882 949.823L368.081 951.019L368.48 952.216L368.68 953.412L369.078 954.608L369.278 955.805L369.677 957.001L370.075 958.197L370.474 959.394L370.873 960.59L371.272 961.786L371.67 962.983L372.069 963.979L372.667 965.176L373.066 966.372L373.664 967.369L374.262 968.565L374.861 969.762L375.259 970.759L375.858 971.756L376.655 972.952L377.253 973.949L377.851 975.145L378.45 976.142L379.247 977.139L379.845 978.136L380.643 979.133L381.44 980.13L382.238 981.127L383.036 982.124L383.833 983.121L384.631 983.918L385.428 984.915L386.226 985.912L387.023 986.71L388.02 987.507L388.818 988.504L389.815 989.302L390.612 990.099L391.609 990.897L392.606 991.694L393.603 992.492L394.6 993.289L395.597 994.087L396.594 994.885L397.591 995.483L398.588 996.28L399.585 996.878L400.582 997.477L401.778 998.274L402.775 998.872L403.971 999.47L404.968 1000.07L406.164 1000.67L407.161 1001.07L408.358 1001.66L409.355 1002.06L410.551 1002.66L411.747 1003.06L412.944 1003.66L414.14 1004.06L415.336 1004.46L416.333 1004.85L417.53 1005.25L418.726 1005.45L419.922 1005.85L421.118 1006.05L422.315 1006.45L423.71 1006.65L424.907 1006.85L426.103 1007.25L427.3 1007.45H428.496L429.692 1007.65L431.088 1007.84H432.284L433.481 1008.04H434.677H435.873L437.269 1008.24H438.465H439.661L440.858 1008.04H442.254H443.45L444.646 1007.84H445.843L447.039 1007.65L448.435 1007.45L449.631 1007.25L450.827 1007.05L452.024 1006.85L453.22 1006.65L454.416 1006.25L455.612 1006.05L456.809 1005.65L458.005 1005.25L459.202 1005.05L460.398 1004.65L461.594 1004.26L462.79 1003.86L463.987 1003.26L464.984 1002.86L466.18 1002.46L467.376 1001.86L468.573 1001.46L469.57 1000.87L470.766 1000.27L471.763 999.67L472.959 999.072L473.956 998.473L475.153 997.875L476.149 997.277L477.146 996.48L478.143 995.881L479.14 995.084L480.137 994.486L481.134 993.688L482.131 992.891L483.128 992.093L484.125 991.296L485.122 990.498L485.919 989.7L486.916 988.903L487.913 988.105L488.711 987.108L489.508 986.311L490.505 985.314L491.303 984.516L492.1 983.519L492.898 982.523L493.696 981.526L494.493 980.728L495.291 979.731L495.889 978.734L496.686 977.538L497.284 976.541L498.082 975.544L498.68 974.547L499.278 973.55L500.076 972.354L500.674 971.357L501.272 970.16L501.671 969.164L502.269 967.967L502.867 966.97L503.266 965.774L503.864 964.578L504.263 963.381L504.861 962.384L505.26 961.188L505.659 959.992L506.058 958.795L506.456 957.599L506.656 956.403L507.055 955.206L507.453 954.01L507.653 952.814L507.852 951.617L508.251 950.421L508.45 949.225L508.65 948.029L508.849 946.633L509.048 945.436V944.24L509.248 943.044V941.847L509.447 940.452V939.255V938.059V936.863Z" stroke="white" stroke-width="2.25" stroke-miterlimit="10" stroke-linecap="round" stroke-linejoin="round"/>
<path d="M474.156 936.863V936.264L473.956 935.467V934.869V934.271V933.672V933.074L473.757 932.476V931.878L473.557 931.28V930.482L473.358 929.884V929.286L473.159 928.688L472.959 928.09L472.76 927.491V926.893L472.56 926.295L472.361 925.697L472.162 925.099L471.962 924.501L471.763 923.903L471.563 923.304L471.165 922.706L470.965 922.307L470.766 921.709L470.367 921.111L470.168 920.513L469.968 919.915L469.57 919.317L469.37 918.918L468.971 918.32L468.573 917.721L468.373 917.323L467.974 916.725L467.576 916.126L467.177 915.728L466.778 915.129L466.579 914.731L466.18 914.133L465.781 913.734L465.382 913.335L464.984 912.737L464.386 912.338L463.987 911.939L463.588 911.341L463.189 910.942L462.79 910.544L462.192 910.145L461.794 909.746L461.395 909.347L460.797 908.948L460.398 908.55L459.8 908.151L459.401 907.752L458.803 907.353L458.404 906.955L457.806 906.755L457.208 906.356L456.809 905.958L456.211 905.758L455.612 905.359L455.014 905.16L454.616 904.761L454.017 904.562L453.419 904.163L452.821 903.964L452.223 903.764L451.625 903.565L451.027 903.366L450.628 902.967L450.03 902.767L449.431 902.568L448.833 902.369H448.235L447.637 902.169L447.039 901.97L446.241 901.77L445.643 901.571H445.045L444.447 901.372H443.849L443.251 901.172H442.652L442.054 900.973H441.456H440.858H440.06L439.462 900.774H438.864H438.266H437.668H437.069L436.471 900.973H435.873H435.076H434.477L433.879 901.172H433.281H432.683L432.085 901.372H431.487L430.888 901.571L430.29 901.77H429.692L428.895 901.97L428.296 902.169L427.698 902.369L427.1 902.568L426.502 902.767L426.103 902.967L425.505 903.166L424.907 903.366L424.309 903.565L423.71 903.964L423.112 904.163L422.514 904.363L421.916 904.761L421.517 904.961L420.919 905.16L420.321 905.559L419.723 905.958L419.324 906.157L418.726 906.556L418.128 906.955L417.729 907.154L417.131 907.553L416.732 907.952L416.134 908.35L415.735 908.749L415.137 909.148L414.738 909.547L414.14 909.945L413.741 910.344L413.342 910.743L412.944 911.142L412.345 911.74L411.947 912.139L411.548 912.537L411.149 912.936L410.75 913.534L410.352 913.933L409.953 914.531L409.554 914.93L409.155 915.528L408.756 915.927L408.557 916.525L408.158 916.924L407.759 917.522L407.361 918.12L407.161 918.519L406.763 919.117L406.563 919.715L406.164 920.314L405.965 920.712L405.566 921.31L405.367 921.909L405.167 922.507L404.968 923.105L404.569 923.703L404.37 924.301L404.171 924.899L403.971 925.498L403.772 926.096L403.572 926.694L403.373 927.292V927.89L403.174 928.488L402.974 929.087V929.685L402.775 930.283L402.575 930.881V931.479V932.077L402.376 932.676V933.274V934.071L402.177 934.669V935.268V935.866V936.464V937.062V937.66V938.458V939.056L402.376 939.654V940.252V940.85L402.575 941.449V942.047V942.645L402.775 943.243L402.974 944.041V944.639L403.174 945.237L403.373 945.835V946.433L403.572 947.031L403.772 947.63L403.971 948.228L404.171 948.826L404.37 949.424L404.569 950.022L404.968 950.421L405.167 951.019L405.367 951.617L405.566 952.215L405.965 952.814L406.164 953.412L406.563 953.811L406.763 954.409L407.161 955.007L407.361 955.605L407.759 956.004L408.158 956.602L408.557 957.2L408.756 957.599L409.155 958.197L409.554 958.596L409.953 959.194L410.352 959.593L410.75 959.992L411.149 960.59L411.548 960.989L411.947 961.587L412.345 961.986L412.944 962.384L413.342 962.783L413.741 963.182L414.14 963.581L414.738 963.979L415.137 964.578L415.735 964.777L416.134 965.176L416.732 965.574L417.131 965.973L417.729 966.372L418.128 966.771L418.726 966.97L419.324 967.369L419.723 967.768L420.321 967.967L420.919 968.366L421.517 968.565L421.916 968.964L422.514 969.163L423.112 969.562L423.71 969.762L424.309 969.961L424.907 970.16L425.505 970.36L426.103 970.559L426.502 970.759L427.1 970.958L427.698 971.157L428.296 971.357L428.895 971.556L429.692 971.755L430.29 971.955H430.888L431.487 972.154H432.085L432.683 972.354H433.281L433.879 972.553H434.477H435.076L435.873 972.752H436.471H437.069H437.668H438.266H438.864H439.462H440.06L440.858 972.553H441.456H442.054H442.652L443.251 972.354H443.849L444.447 972.154H445.045L445.643 971.955L446.241 971.755L447.039 971.556H447.637L448.235 971.357L448.833 971.157L449.431 970.958L450.03 970.759L450.628 970.559L451.027 970.36L451.625 970.16L452.223 969.762L452.821 969.562L453.419 969.363L454.017 968.964L454.616 968.765L455.014 968.565L455.612 968.166L456.211 967.967L456.809 967.568L457.208 967.17L457.806 966.97L458.404 966.571L458.803 966.173L459.401 965.774L459.8 965.375L460.398 964.976L460.797 964.777L461.395 964.378L461.794 963.78L462.192 963.381L462.79 962.982L463.189 962.584L463.588 962.185L463.987 961.786L464.386 961.188L464.984 960.789L465.382 960.39L465.781 959.792L466.18 959.393L466.579 958.795L466.778 958.397L467.177 957.798L467.576 957.4L467.974 956.801L468.373 956.403L468.573 955.805L468.971 955.206L469.37 954.808L469.57 954.209L469.968 953.611L470.168 953.013L470.367 952.614L470.766 952.016L470.965 951.418L471.165 950.82L471.563 950.222L471.763 949.623L471.962 949.025L472.162 948.427L472.361 947.829L472.56 947.231L472.76 946.633V946.035L472.959 945.436L473.159 944.838L473.358 944.24V943.642L473.557 943.044V942.446L473.757 941.847V941.249L473.956 940.452V939.854V939.255V938.657V938.059L474.156 937.461V936.863Z" stroke="white" stroke-width="2.25" stroke-miterlimit="10" stroke-linecap="round" stroke-linejoin="round"/>
<path d="M157.329 936.863V935.467V934.271V933.074V931.878L157.13 930.682L156.93 929.286V928.09L156.731 926.893L156.531 925.697L156.332 924.501L156.133 923.304L155.933 921.909L155.534 920.712L155.335 919.516L154.936 918.32L154.737 917.123L154.338 915.927L153.939 914.731L153.541 913.534L153.142 912.538L152.743 911.341L152.344 910.145L151.746 908.949L151.347 907.752L150.749 906.755L150.151 905.559L149.752 904.562L149.154 903.366L148.556 902.369L147.958 901.172L147.36 900.176L146.562 898.979L145.964 897.982L145.366 896.985L144.568 895.988L143.771 894.991L143.173 893.994L142.375 892.998L141.577 892.001L140.78 891.004L139.982 890.007L139.185 889.209L138.387 888.212L137.59 887.415L136.593 886.418L135.795 885.62L134.798 884.623L134.001 883.826L133.004 883.028L132.007 882.231L131.01 881.433L130.212 880.636L129.215 879.838L128.218 879.24L127.222 878.442L126.025 877.645L125.028 877.047L124.031 876.448L123.034 875.651L121.838 875.053L120.841 874.454L119.645 873.856L118.648 873.258L117.451 872.66L116.455 872.261L115.258 871.663L114.062 871.264L113.065 870.666L111.869 870.267L110.672 869.869L109.476 869.47L108.28 869.071L107.083 868.672L105.887 868.274L104.691 867.875L103.494 867.675L102.298 867.277L101.102 867.077L99.9054 866.878L98.709 866.479L97.5127 866.28L96.3165 866.08H95.1201L93.7243 865.881L92.5281 865.681H91.3318L90.1354 865.482H88.7397H87.5434H86.3471H85.1507H83.9544H82.5587H81.3624L80.166 865.681H78.9697L77.7733 865.881L76.3777 866.08L75.1813 866.28L73.9851 866.479L72.7887 866.678L71.5924 866.878L70.3961 867.077L69.1997 867.476L68.0034 867.675L66.807 868.074L65.6108 868.473L64.4145 868.872L63.2181 869.27L62.0218 869.669L60.8254 870.068L59.6291 870.467L58.4329 870.866L57.4359 871.464L56.2395 871.862L55.0433 872.461L54.0463 873.059L52.8499 873.657L51.853 874.255L50.6567 874.853L49.6598 875.451L48.6628 876.05L47.4666 876.648L46.4696 877.445L45.4727 878.044L44.4757 878.841L43.4788 879.439L42.4819 880.237L41.4849 881.034L40.488 881.832L39.4911 882.629L38.6935 883.427L37.6965 884.225L36.6996 885.221L35.902 886.019L35.1045 886.817L34.1076 887.813L33.31 888.611L32.5125 889.608L31.7149 890.605L30.9173 891.402L30.1198 892.399L29.3222 893.396L28.5247 894.393L27.9265 895.39L27.129 896.387L26.5309 897.583L25.7333 898.58L25.1351 899.577L24.537 900.574L23.9387 901.771L23.3406 902.768L22.7425 903.964L22.1443 904.961L21.5462 906.157L21.1474 907.353L20.5492 908.35L20.1505 909.547L19.5523 910.743L19.1535 911.939L18.7547 912.936L18.3559 914.133L17.9571 915.329L17.5584 916.525L17.1596 917.722L16.9602 918.918L16.5615 920.114L16.362 921.311L16.1627 922.507L15.7639 923.903L15.5646 925.099L15.3651 926.295V927.492L15.1658 928.688L14.9663 929.884V931.28L14.767 932.476V933.673V934.869L14.5676 936.265V937.461L14.767 938.657V939.854V941.05L14.9663 942.446V943.642L15.1658 944.838L15.3651 946.035V947.231L15.5646 948.627L15.7639 949.823L16.1627 951.019L16.362 952.216L16.5615 953.412L16.9602 954.608L17.1596 955.805L17.5584 957.001L17.9571 958.197L18.3559 959.394L18.7547 960.59L19.1535 961.786L19.5523 962.983L20.1505 963.979L20.5492 965.176L21.1474 966.372L21.5462 967.369L22.1443 968.565L22.7425 969.762L23.3406 970.759L23.9387 971.756L24.537 972.952L25.1351 973.949L25.7333 975.145L26.5309 976.142L27.129 977.139L27.9265 978.136L28.5247 979.133L29.3222 980.13L30.1198 981.127L30.9173 982.124L31.7149 983.121L32.5125 983.918L33.31 984.915L34.1076 985.912L35.1045 986.71L35.902 987.507L36.6996 988.504L37.6965 989.302L38.6935 990.099L39.4911 990.897L40.488 991.694L41.4849 992.492L42.4819 993.289L43.4788 994.087L44.4757 994.885L45.4727 995.483L46.4696 996.28L47.4666 996.878L48.6628 997.477L49.6598 998.274L50.6567 998.872L51.853 999.47L52.8499 1000.07L54.0463 1000.67L55.0433 1001.07L56.2395 1001.66L57.4359 1002.06L58.4329 1002.66L59.6291 1003.06L60.8254 1003.66L62.0218 1004.06L63.2181 1004.46L64.4145 1004.85L65.6108 1005.25L66.807 1005.45L68.0034 1005.85L69.1997 1006.05L70.3961 1006.45L71.5924 1006.65L72.7887 1006.85L73.9851 1007.25L75.1813 1007.45H76.3777L77.7733 1007.65L78.9697 1007.84H80.166L81.3624 1008.04H82.5587H83.9544L85.1507 1008.24H86.3471H87.5434L88.7397 1008.04H90.1354H91.3318L92.5281 1007.84H93.7243L95.1201 1007.65L96.3165 1007.45L97.5127 1007.25L98.709 1007.05L99.9054 1006.85L101.102 1006.65L102.298 1006.25L103.494 1006.05L104.691 1005.65L105.887 1005.25L107.083 1005.05L108.28 1004.65L109.476 1004.26L110.672 1003.86L111.869 1003.26L113.065 1002.86L114.062 1002.46L115.258 1001.86L116.455 1001.46L117.451 1000.87L118.648 1000.27L119.645 999.67L120.841 999.072L121.838 998.473L123.034 997.875L124.031 997.277L125.028 996.48L126.025 995.881L127.222 995.084L128.218 994.486L129.215 993.688L130.212 992.891L131.01 992.093L132.007 991.296L133.004 990.498L134.001 989.7L134.798 988.903L135.795 988.105L136.593 987.108L137.59 986.311L138.387 985.314L139.185 984.516L139.982 983.519L140.78 982.523L141.577 981.526L142.375 980.728L143.173 979.731L143.771 978.734L144.568 977.538L145.366 976.541L145.964 975.544L146.562 974.547L147.36 973.55L147.958 972.354L148.556 971.357L149.154 970.16L149.752 969.164L150.151 967.967L150.749 966.97L151.347 965.774L151.746 964.578L152.344 963.381L152.743 962.384L153.142 961.188L153.541 959.992L153.939 958.795L154.338 957.599L154.737 956.403L154.936 955.206L155.335 954.01L155.534 952.814L155.933 951.617L156.133 950.421L156.332 949.225L156.531 948.029L156.731 946.633L156.93 945.436V944.24L157.13 943.044L157.329 941.847V940.452V939.255V938.059V936.863Z" stroke="white" stroke-width="2.25" stroke-miterlimit="10" stroke-linecap="round" stroke-linejoin="round"/>
<path d="M122.037 936.863V936.264V935.467V934.869L121.838 934.271V933.672V933.074L121.639 932.476V931.878V931.28L121.439 930.482L121.24 929.884V929.286L121.04 928.688L120.841 928.09V927.491L120.642 926.893L120.442 926.295L120.243 925.697L120.043 925.099L119.844 924.501L119.645 923.903L119.445 923.304L119.246 922.706L118.847 922.307L118.648 921.709L118.448 921.111L118.05 920.513L117.85 919.915L117.451 919.317L117.252 918.918L116.853 918.32L116.654 917.721L116.255 917.323L115.856 916.725L115.458 916.126L115.258 915.728L114.859 915.129L114.461 914.731L114.062 914.133L113.663 913.734L113.264 913.335L112.866 912.737L112.467 912.338L111.869 911.939L111.47 911.341L111.071 910.942L110.672 910.544L110.074 910.145L109.675 909.746L109.277 909.347L108.678 908.948L108.28 908.55L107.681 908.151L107.283 907.752L106.684 907.353L106.286 906.955L105.688 906.755L105.089 906.356L104.691 905.958L104.092 905.758L103.494 905.359L103.096 905.16L102.497 904.761L101.899 904.562L101.301 904.163L100.703 903.964L100.105 903.764L99.7059 903.565L99.1078 903.366L98.5097 902.967L97.9115 902.767L97.3134 902.568L96.7151 902.369H96.117L95.5188 902.169L94.9207 901.97L94.3226 901.77L93.7243 901.571H93.1262L92.3287 901.372H91.7304L91.1323 901.172H90.5342L89.936 900.973H89.3379H88.7396H88.1415L87.5433 900.774H86.7457H86.1476H85.5495H84.9513L84.3532 900.973H83.7549H83.1568H82.3593L81.7611 901.172H81.1629H80.5648L79.9666 901.372H79.3685L78.7702 901.571L78.1721 901.77H77.574L76.9758 901.97L76.3777 902.169L75.7794 902.369L75.1813 902.568L74.5832 902.767L73.985 902.967L73.3869 903.166L72.7886 903.366L72.1905 903.565L71.5924 903.964L70.9942 904.163L70.3961 904.363L69.9973 904.761L69.3991 904.961L68.8009 905.16L68.2027 905.559L67.8039 905.958L67.2058 906.157L66.6077 906.556L66.2089 906.955L65.6107 907.154L65.0126 907.553L64.6138 907.952L64.0157 908.35L63.6169 908.749L63.0187 909.148L62.6199 909.547L62.2211 909.945L61.623 910.344L61.2242 910.743L60.8254 911.142L60.4267 911.74L59.8284 912.139L59.4298 912.537L59.031 912.936L58.6322 913.534L58.2334 913.933L57.8346 914.531L57.4359 914.93L57.0371 915.528L56.6383 915.927L56.439 916.525L56.0402 916.924L55.6414 917.522L55.442 918.12L55.0432 918.519L54.6444 919.117L54.4451 919.715L54.0463 920.314L53.8468 920.712L53.6475 921.31L53.2487 921.909L53.0493 922.507L52.8499 923.105L52.6505 923.703L52.4512 924.301L52.0524 924.899L51.8529 925.498L51.6536 926.096V926.694L51.4543 927.292L51.2548 927.89L51.0555 928.488L50.856 929.087V929.685L50.6567 930.283V930.881L50.4573 931.479V932.077L50.2579 932.676V933.274V934.071L50.0585 934.669V935.268V935.866V936.464V937.062V937.66V938.458V939.056L50.2579 939.654V940.252V940.85L50.4573 941.449V942.047L50.6567 942.645V943.243L50.856 944.041V944.639L51.0555 945.237L51.2548 945.835L51.4543 946.433L51.6536 947.031V947.63L51.8529 948.228L52.0524 948.826L52.4512 949.424L52.6505 950.022L52.8499 950.421L53.0493 951.019L53.2487 951.617L53.6475 952.215L53.8468 952.814L54.0463 953.412L54.4451 953.811L54.6444 954.409L55.0432 955.007L55.442 955.605L55.6414 956.004L56.0402 956.602L56.439 957.2L56.6383 957.599L57.0371 958.197L57.4359 958.596L57.8346 959.194L58.2334 959.593L58.6322 959.992L59.031 960.59L59.4298 960.989L59.8284 961.587L60.4267 961.986L60.8254 962.384L61.2242 962.783L61.623 963.182L62.2211 963.581L62.6199 963.979L63.0187 964.578L63.6169 964.777L64.0157 965.176L64.6138 965.574L65.0126 965.973L65.6107 966.372L66.2089 966.771L66.6077 966.97L67.2058 967.369L67.8039 967.768L68.2027 967.967L68.8009 968.366L69.3991 968.565L69.9973 968.964L70.3961 969.163L70.9942 969.562L71.5924 969.762L72.1905 969.961L72.7886 970.16L73.3869 970.36L73.985 970.559L74.5832 970.759L75.1813 970.958L75.7794 971.157L76.3777 971.357L76.9758 971.556L77.574 971.755L78.1721 971.955H78.7702L79.3685 972.154H79.9666L80.5648 972.354H81.1629L81.7611 972.553H82.3593H83.1568L83.7549 972.752H84.3532H84.9513H85.5495H86.1476H86.7457H87.5433H88.1415L88.7396 972.553H89.3379H89.936H90.5342L91.1323 972.354H91.7304L92.3287 972.154H93.1262L93.7243 971.955L94.3226 971.755L94.9207 971.556H95.5188L96.117 971.357L96.7151 971.157L97.3134 970.958L97.9115 970.759L98.5097 970.559L99.1078 970.36L99.7059 970.16L100.105 969.762L100.703 969.562L101.301 969.363L101.899 968.964L102.497 968.765L103.096 968.565L103.494 968.166L104.092 967.967L104.691 967.568L105.089 967.17L105.688 966.97L106.286 966.571L106.684 966.173L107.283 965.774L107.681 965.375L108.28 964.976L108.678 964.777L109.277 964.378L109.675 963.78L110.074 963.381L110.672 962.982L111.071 962.584L111.47 962.185L111.869 961.786L112.467 961.188L112.866 960.789L113.264 960.39L113.663 959.792L114.062 959.393L114.461 958.795L114.859 958.397L115.258 957.798L115.458 957.4L115.856 956.801L116.255 956.403L116.654 955.805L116.853 955.206L117.252 954.808L117.451 954.209L117.85 953.611L118.05 953.013L118.448 952.614L118.648 952.016L118.847 951.418L119.246 950.82L119.445 950.222L119.645 949.623L119.844 949.025L120.043 948.427L120.243 947.829L120.442 947.231L120.642 946.633L120.841 946.035V945.436L121.04 944.838L121.24 944.24V943.642L121.439 943.044L121.639 942.446V941.847V941.249L121.838 940.452V939.854V939.255L122.037 938.657V938.059V937.461V936.863Z" stroke="white" stroke-width="2.25" stroke-miterlimit="10" stroke-linecap="round" stroke-linejoin="round"/>
<path d="M510.045 787.721L492.1 773.764L486.518 769.178L484.524 767.583L483.726 766.985L483.128 766.387L482.929 766.187C482.729 765.988 482.729 765.988 482.729 765.988C482.53 765.789 482.53 765.789 482.53 765.789C482.33 765.589 482.33 765.589 482.33 765.589C482.131 765.39 482.131 765.39 482.131 765.39C481.932 765.19 481.932 765.19 481.932 765.19C481.732 764.991 481.732 764.991 481.732 764.991C481.533 764.792 481.533 764.792 481.533 764.792C481.333 764.592 481.333 764.592 481.333 764.592C481.333 764.393 481.134 764.393 481.134 764.393C481.134 764.194 480.935 764.194 480.935 764.194C480.935 763.994 480.735 763.994 480.735 763.994C480.735 763.795 480.536 763.795 480.536 763.795C480.536 763.595 480.337 763.595 480.337 763.595C480.337 763.396 480.137 763.396 480.137 763.396C480.137 763.197 480.137 763.197 480.137 763.197C480.137 762.997 480.137 762.997 480.137 762.997C480.137 762.798 480.137 762.798 480.137 762.798C480.137 762.598 480.137 762.598 480.137 762.598C480.137 762.399 480.137 762.399 480.137 762.399C480.137 762.2 480.137 762.2 480.137 762.2C480.137 762 480.137 762 480.137 762C480.137 761.801 480.137 761.801 480.137 761.801C480.137 761.601 480.137 761.601 480.137 761.601C480.137 761.402 480.137 761.402 480.137 761.402C480.137 761.203 480.137 761.203 480.137 761.203C480.137 761.003 480.137 761.003 480.137 761.003C480.137 760.804 480.137 760.804 480.137 760.804C480.137 760.605 480.137 760.605 480.137 760.605C480.137 760.405 480.137 760.405 480.137 760.405C480.137 760.206 480.137 760.206 480.137 760.206C480.137 760.006 480.137 760.006 480.137 760.006C480.137 759.807 480.137 759.807 480.137 759.807C480.137 759.608 480.137 759.608 480.137 759.608C480.137 759.408 480.137 759.408 480.137 759.408C480.137 759.209 480.137 759.209 480.137 759.209C480.137 759.009 480.137 759.009 480.137 759.009C480.137 758.81 480.137 758.81 480.137 758.81C480.137 758.611 480.137 758.611 480.137 758.611C480.137 758.411 480.137 758.411 480.137 758.411C480.137 758.212 480.137 758.212 480.137 758.212C480.137 758.012 480.137 758.012 480.137 758.012C480.137 757.813 480.137 757.813 480.137 757.813C480.137 757.614 480.137 757.614 480.137 757.614V757.414V757.215C480.137 757.016 480.337 757.016 480.337 757.016C480.337 756.816 480.536 756.816 480.536 756.816C480.735 756.617 480.735 756.617 480.735 756.617C480.935 756.417 480.935 756.417 480.935 756.417C481.134 756.218 481.134 756.218 481.134 756.218C481.334 756.019 481.333 756.019 481.333 756.019C481.533 755.819 481.533 755.819 481.533 755.819C481.732 755.62 481.732 755.62 481.732 755.62C481.932 755.62 481.932 755.42 481.932 755.42C482.131 755.42 482.131 755.221 482.131 755.221H482.33C482.53 755.221 482.53 755.221 482.53 755.221C482.729 755.221 482.729 755.221 482.729 755.221C482.929 755.221 482.929 755.221 482.929 755.221C483.128 755.221 483.128 755.221 483.128 755.221C483.327 755.221 483.327 755.221 483.327 755.221C483.527 755.221 483.527 755.221 483.527 755.221C483.726 755.221 483.726 755.221 483.726 755.221C483.926 755.221 483.925 755.221 483.925 755.221H484.125C484.324 755.221 484.324 755.221 484.324 755.221C484.524 755.221 484.524 755.221 484.524 755.221C484.723 755.221 484.723 755.221 484.723 755.221C484.922 755.221 484.922 755.221 484.922 755.221C485.122 755.221 485.122 755.221 485.122 755.221C485.321 755.221 485.321 755.221 485.321 755.221H485.521H485.72H485.919H486.119H486.318H486.518H486.717H486.916H487.116H487.315H487.514H487.714H487.913H488.113H488.312H488.511H488.711H488.91H489.11H489.309H489.508H489.708H489.907H490.107H490.306H490.505H490.705H490.904H491.104H491.303H491.502H491.702H491.901H492.1H492.3H492.499H492.699H492.898H493.097H493.297H493.496H493.696H493.895H494.094H494.294H494.493H494.692H494.892H495.091H495.291L495.689 755.42L496.088 755.62L496.487 755.819L496.886 756.019L497.284 756.218L497.683 756.417L498.082 756.617L498.481 756.816L498.88 757.016L499.278 757.215L499.677 757.414L500.076 757.614L500.475 757.813L500.873 758.012L501.671 758.611L502.469 759.209L503.266 759.807L504.263 760.405L505.26 761.003L506.257 761.601L507.254 762.2L508.251 762.798L509.447 763.396L510.643 763.994L511.84 764.592L513.036 765.19L515.628 766.387" stroke="white" stroke-width="2.25" stroke-miterlimit="10" stroke-linecap="round" stroke-linejoin="round"/>
<path d="M43.08 816.433L46.6689 815.037L50.2579 813.642L54.0463 812.246L57.6352 811.05L61.4237 809.853L65.4114 808.657L69.1997 807.66L73.1874 806.464L76.1783 805.866L79.1691 805.068L82.1599 804.47L85.1507 803.872L87.9422 803.274L90.933 802.675L93.7243 802.277L96.5158 801.878L99.1078 801.479H100.504L101.899 801.28L103.295 801.08H104.491L105.887 800.881H107.083L108.479 800.681H109.675H111.071H112.267H113.464H114.859H116.056H117.252H118.448H119.645L120.841 800.881H122.037L123.234 801.08H124.43L125.626 801.28L126.823 801.479L128.019 801.678H129.016L130.212 802.077L131.409 802.277L132.605 802.476L133.602 802.675L134.798 803.074L135.795 803.274L136.991 803.672L137.988 803.872L139.185 804.27L140.182 804.669L141.378 805.068L142.375 805.467L143.571 805.866L144.568 806.264L145.565 806.663L146.562 807.261L147.758 807.66L148.755 808.258L149.752 808.657L150.749 809.255L151.746 809.853L152.743 810.451L153.74 810.85L154.737 811.448L155.734 812.047L156.731 812.645L157.728 813.043L158.725 813.442L159.722 814.04L160.719 814.439L161.716 814.838L162.712 815.237L163.909 815.635L164.906 816.034L165.903 816.433L166.9 816.832L167.896 817.031L168.893 817.43L169.89 817.629L170.887 817.829L171.884 818.228L172.881 818.427L173.878 818.626L175.074 818.826H175.473L176.071 819.025H176.47H177.068L177.467 819.225H178.065H178.663L179.062 819.424H179.66H180.059H180.657L181.056 819.623H181.654H182.252H182.651H183.249H183.648H184.246H184.844H185.243H243.464H361.103H361.502H361.9H362.499H362.897H363.296H363.695H364.094H364.493L364.891 819.424H365.29H365.689H366.088L366.686 819.225H367.085H367.483H367.882L368.281 819.025H368.68L369.078 818.826H369.477H369.876L370.275 818.626H370.873L371.272 818.427L371.67 818.228H372.069L372.468 818.028H372.867L373.266 817.829H373.664L374.063 817.629L374.661 817.43L375.06 817.231H375.459L375.858 817.031L376.256 816.832L376.655 816.632H377.054L377.453 816.433L377.851 816.234L378.848 815.835L379.646 815.436L380.444 815.037L381.241 814.639L382.039 814.24L383.036 813.841L383.833 813.442L384.631 812.844L385.428 812.445L386.425 811.847L387.223 811.249L388.02 810.85L388.818 810.252L389.815 809.654L390.612 809.255L391.41 808.657L392.407 808.258L393.204 807.66L394.201 807.261L394.999 806.862L395.996 806.264L396.793 805.866L397.79 805.467L398.787 805.068L399.585 804.669L400.582 804.27L401.579 803.872L402.576 803.672L403.572 803.274L404.569 802.875L405.566 802.675L406.563 802.277L407.56 802.077L408.557 801.678L409.554 801.479L410.551 801.28L411.747 801.08L412.744 800.881L413.741 800.681L414.938 800.482L415.934 800.283L417.131 800.083L418.128 799.884H419.324L421.517 799.485L423.711 799.286L425.904 799.086H428.097L430.29 798.887H432.484H434.677H436.671H437.867H438.864L440.06 799.086H441.057H442.054H443.251L444.248 799.286H445.244L446.441 799.485H447.438L448.435 799.685L449.432 799.884H450.628L451.625 800.083L452.622 800.283L453.619 800.482H454.815L455.812 800.681L456.809 801.08L458.005 801.28L459.002 801.479L460.199 801.678L461.395 802.077L462.591 802.476L463.588 802.675L464.784 803.074L465.981 803.473L467.376 803.872L468.573 804.27L469.769 804.869L470.965 805.267L472.361 805.666L473.557 806.264L474.953 806.862L476.15 807.261L477.545 807.859L480.337 809.056L483.128 810.451L485.919 811.847L488.711 813.243L491.702 814.838L494.693 816.433" stroke="white" stroke-width="2.25" stroke-miterlimit="10" stroke-linecap="round" stroke-linejoin="round"/>
<path d="M517.822 845.544H506.257V898.78H517.822V845.544Z" stroke="white" stroke-width="2.25" stroke-miterlimit="10" stroke-linecap="round" stroke-linejoin="round"/>
<path d="M517.821 894.792H524.8V876.847H517.821" stroke="white" stroke-width="2.25" stroke-miterlimit="10" stroke-linecap="round" stroke-linejoin="round"/>
<path d="M10.5799 876.847H4V894.792H10.5799" stroke="white" stroke-width="2.25" stroke-miterlimit="10" stroke-linecap="round" stroke-linejoin="round"/>
<path d="M22.1443 851.525H10.5799V898.78H22.1443V851.525Z" stroke="white" stroke-width="2.25" stroke-miterlimit="10" stroke-linecap="round" stroke-linejoin="round"/>
<path d="M22.1443 894.792H28.3253" stroke="white" stroke-width="2.25" stroke-miterlimit="10" stroke-linecap="round" stroke-linejoin="round"/>
<path d="M47.2671 876.847H22.1443" stroke="white" stroke-width="2.25" stroke-miterlimit="10" stroke-linecap="round" stroke-linejoin="round"/>
<path d="M495.889 894.792H506.257" stroke="white" stroke-width="2.25" stroke-miterlimit="10" stroke-linecap="round" stroke-linejoin="round"/>
<path d="M506.257 876.847H476.947" stroke="white" stroke-width="2.25" stroke-miterlimit="10" stroke-linecap="round" stroke-linejoin="round"/>
<path d="M337.974 932.676V883.228L362.299 856.909" stroke="white" stroke-width="2.25" stroke-miterlimit="10" stroke-linecap="round" stroke-linejoin="round"/>
<path d="M411.747 870.467L405.965 856.909" stroke="white" stroke-width="2.25" stroke-miterlimit="10" stroke-linecap="round" stroke-linejoin="round"/>
<path d="M156.332 949.424H367.882" stroke="white" stroke-width="2.25" stroke-miterlimit="10" stroke-linecap="round" stroke-linejoin="round"/>
<path d="M156.332 932.676H366.885" stroke="white" stroke-width="2.25" stroke-miterlimit="10" stroke-linecap="round" stroke-linejoin="round"/>
<path d="M343.756 876.847H124.829" stroke="white" stroke-width="2.25" stroke-miterlimit="10" stroke-linecap="round" stroke-linejoin="round"/>
<path d="M466.18 854.915V871.065" stroke="white" stroke-width="2.25" stroke-miterlimit="10" stroke-linecap="round" stroke-linejoin="round"/>
<path d="M447.836 866.081V856.909" stroke="white" stroke-width="2.25" stroke-miterlimit="10" stroke-linecap="round" stroke-linejoin="round"/>
<path d="M87.344 856.909V865.482" stroke="white" stroke-width="2.25" stroke-miterlimit="10" stroke-linecap="round" stroke-linejoin="round"/>
<path d="M69.0003 867.476V853.519" stroke="white" stroke-width="2.25" stroke-miterlimit="10" stroke-linecap="round" stroke-linejoin="round"/>
<path d="M166.102 932.675V906.556L187.436 876.847H260.811L278.756 904.163V932.675" stroke="white" stroke-width="2.25" stroke-miterlimit="10" stroke-linecap="round" stroke-linejoin="round"/>
<path d="M143.771 894.792H174.476" stroke="white" stroke-width="2.25" stroke-miterlimit="10" stroke-linecap="round" stroke-linejoin="round"/>
<path d="M272.575 894.792H337.974" stroke="white" stroke-width="2.25" stroke-miterlimit="10" stroke-linecap="round" stroke-linejoin="round"/>
<path d="M386.824 507.581L391.41 515.158L395.597 521.937L399.385 527.919L401.18 530.511L402.775 532.904L404.37 535.097L405.766 537.091L407.161 538.885L407.759 539.683L408.358 540.48L408.956 541.278L409.554 542.076L410.152 542.674L410.352 543.072L410.551 543.272L410.75 543.471L410.95 543.671L411.149 543.87L411.349 544.069L411.548 544.269L411.747 544.468L411.947 544.668C412.146 544.668 412.146 544.867 412.146 544.867L412.345 545.066L412.545 545.266L412.744 545.465L412.944 545.664L413.143 545.864L413.342 546.063L413.542 546.263L413.741 546.462L413.941 546.661L414.14 546.861L414.339 547.06L414.539 547.26L414.738 547.459L414.937 547.658L415.137 547.858L415.336 548.057L415.536 548.257L415.735 548.456L415.934 548.655L416.134 548.855L416.333 549.054L416.533 549.253L416.732 549.453L416.931 549.652L417.131 549.852L417.33 550.051L417.53 550.25L417.729 550.45L417.928 550.649L418.128 550.849H418.327H418.526H418.726H418.925H419.125H419.324H419.723H420.122H420.52H420.919H421.318H421.717H422.115H422.514H422.913H423.312H423.71H424.109H424.508H424.907H425.306H425.704H426.103H426.502H426.901H427.3H428.097H428.895H429.692H430.49H487.714" stroke="white" stroke-width="2.25" stroke-miterlimit="10" stroke-linecap="round" stroke-linejoin="round"/>
<path d="M466.778 507.382L49.0616 508.379" stroke="white" stroke-width="2.25" stroke-miterlimit="10" stroke-linecap="round" stroke-linejoin="round"/>
<path d="M49.3596 505.345L49.6452 505.002L49.9309 504.66L50.2964 504.501L50.582 504.158L50.8677 503.816L51.4159 503.577L51.7015 503.234L52.067 503.075L52.4325 502.915L52.7181 502.573L53.0836 502.413L53.552 501.991L53.9174 501.832L54.2829 501.672L54.6483 501.512L55.1167 501.09L55.4822 500.931L55.8476 500.771L56.2131 500.612L56.7613 500.372L57.1267 500.213L57.4922 500.053L58.0403 499.814L58.4058 499.654L58.7712 499.495L59.3194 499.255L59.6849 499.096L60.0503 498.936L60.5985 498.697L61.0438 498.72L61.4093 498.56L61.9574 498.321L64.4925 497.649L67.0275 496.977L69.5625 496.306L72.1773 495.816L74.8951 495.065L77.5099 494.576L80.3872 494.19L83.1848 493.621L86.2449 493.155L89.1222 492.769L92.1823 492.303L95.1394 492.1L98.2792 491.816L101.602 491.453L104.742 491.17L108.144 490.99L111.729 490.73L116.205 490.516L127.302 490.022L158.871 489.074L357.721 485.574L399.427 485.421L406.837 485.449L408.435 485.622L409.953 485.611L411.472 485.601L412.887 485.853L414.406 485.843L416.004 486.015L417.34 486.085L418.755 486.337L420.354 486.509L421.689 486.579L423.288 486.751L424.703 487.003L426.119 487.255L427.534 487.507L428.95 487.76L430.365 488.012L431.86 488.447L433.276 488.699L434.691 488.951L436.187 489.386L437.42 489.718L438.915 490.153L440.33 490.405L441.643 490.92L443.058 491.172L444.371 491.687L445.866 492.122L447.179 492.636L448.674 493.071L449.987 493.586L451.299 494.101L452.612 494.615L453.137 494.821L453.662 495.027L454.187 495.233L454.529 495.519L455.054 495.725L455.579 495.93L456.104 496.136L456.447 496.422L456.972 496.628L457.497 496.834L457.839 497.119L458.444 497.508L458.786 497.794L459.311 497.999L459.654 498.285L460.179 498.491L460.601 498.959L461.126 499.165L461.468 499.451L462.073 499.84L462.415 500.125L462.757 500.411L463.362 500.8L463.705 501.085L464.127 501.554L464.469 501.839L465.074 502.228L465.416 502.513L465.838 502.982L466.18 503.268L466.603 503.736L466.945 504.022L49.3596 505.345Z" stroke="white" stroke-width="2.25" stroke-miterlimit="10" stroke-linecap="round" stroke-linejoin="round"/>
<path d="M466.778 507.382L467.177 507.781L467.576 508.18L467.975 508.578L468.373 508.977L468.772 509.376L469.171 509.775L469.57 510.174L469.968 510.572L470.367 510.971L470.766 511.37L471.165 511.769L471.564 512.167L471.962 512.566L472.361 512.965L472.959 513.763L473.557 514.56L474.156 515.358L474.754 516.155L475.352 516.953L475.95 517.95L476.548 518.947L477.146 519.944L477.745 520.94L478.343 521.937L478.941 522.934L479.539 523.931L480.137 524.928L480.735 525.925L481.334 526.922L481.732 527.919L482.131 529.115L482.53 530.312L482.929 531.508L483.327 532.704L483.726 533.901L484.125 535.097L484.524 536.293L484.923 537.49L485.321 538.686L485.72 539.683L486.119 540.68L486.518 541.677L486.916 542.873L487.515 545.266L488.113 547.658L488.711 550.25L489.309 552.842L489.907 555.634L490.505 558.625L491.104 561.616L491.702 564.806L492.898 571.585L494.094 578.962L495.291 586.738L496.487 595.113L497.683 603.886L500.076 623.027L502.469 644.361L511.441 742.859L513.236 763.994L513.634 770.374L513.834 772.567V773.365V773.963V774.163V774.362V774.561V774.761V774.96V775.159V775.359V775.558V775.758V775.957V776.156V776.356V776.555V776.755V776.954V777.153V777.353V777.552V777.751V777.951V778.15V778.35V778.549V778.748V778.948V779.347L513.634 779.945L513.435 780.543L513.236 781.141L513.036 781.739L512.837 782.337L512.637 782.936L512.438 783.534L512.239 784.132L512.039 784.73L511.84 785.328L511.64 785.926L511.441 786.525L511.242 787.123L511.042 787.721L510.644 788.319L510.245 788.917L509.846 789.515L509.447 790.113L509.048 790.712L493.097 820.42L488.312 829.193L486.119 832.982L484.125 836.571L482.331 839.761L480.536 842.552L479.738 843.749L478.941 844.945L478.143 845.942L477.545 846.939C477.545 847.138 477.346 847.138 477.346 847.138C477.346 847.338 477.146 847.338 477.146 847.338C477.146 847.537 476.947 847.537 476.947 847.537C476.947 847.736 476.748 847.736 476.748 847.736C476.548 847.936 476.548 847.936 476.548 847.936C476.349 848.135 476.349 848.135 476.349 848.135C476.149 848.335 476.15 848.335 476.15 848.335C475.95 848.534 475.95 848.534 475.95 848.534C475.751 848.733 475.751 848.733 475.751 848.733C475.551 848.933 475.551 848.933 475.551 848.933C475.352 849.132 475.352 849.132 475.352 849.132C475.153 849.132 475.153 849.332 475.153 849.332C474.953 849.332 474.953 849.531 474.953 849.531H474.754H474.554H474.355H474.156H473.956H473.757H473.557H473.358H473.159H472.959H472.76H472.56H472.361H472.162H471.962H471.763H471.564H471.364L470.965 849.73L470.567 849.93L470.168 850.129L469.769 850.329L469.37 850.528L468.971 850.727L468.573 850.927L468.174 851.126L467.775 851.325L467.376 851.525L466.978 851.724L466.579 851.924L466.18 852.123L465.781 852.322L465.183 852.522H464.585H463.987H463.389H462.791H462.192H461.594H460.996L459.8 852.721L458.603 852.921L457.407 853.12H456.211H454.815H453.419H452.024H450.628H449.232H447.836H86.9452H86.3471H85.7488H85.1507H84.5526H83.9544H83.3563H82.758H82.1599H81.5618H80.9636H80.3655H79.7672H79.1691H78.5709H77.9728H77.3747L76.7764 852.921L76.1783 852.721L75.5801 852.522L74.982 852.322L74.3839 852.123L73.7856 851.924L73.3869 851.724L72.9881 851.525L72.5893 851.325L72.1905 851.126L71.7917 850.927L71.393 850.727L70.9942 850.528L70.5954 850.329L70.1966 850.129L69.7978 849.93L69.5985 849.73L69.3992 849.531L69.1997 849.332L69.0004 849.132L68.8009 848.933L68.6016 848.733L68.4022 848.534L68.2028 848.335L68.0034 848.135L67.804 847.936L67.6046 847.736L67.4053 847.537L67.2058 847.338L67.0065 847.138L66.807 846.939L66.6077 846.74L66.4084 846.54L66.2089 846.341L66.0096 846.141L65.8101 845.942L65.6108 845.743L65.4114 845.543L65.212 845.344L65.0126 845.144L64.8132 844.945L64.6138 844.746L64.4145 844.546L64.215 844.347L64.0157 844.147L63.8162 843.948L63.6169 843.749L63.4175 843.549L63.2181 843.35L63.0187 843.151L62.8193 842.951L62.6199 842.752L62.4206 842.552L62.2211 842.353L62.0218 842.154L61.8224 841.954L61.623 841.755L61.4237 841.555L61.2242 841.356L61.0249 841.157L60.8254 840.957L60.6261 840.758L60.4267 840.559L60.2273 840.359L60.0279 840.16L59.8285 839.96L59.6291 839.761L59.4298 839.562L59.2303 839.362L59.031 839.163L58.8315 838.963L58.6322 838.764L58.4329 838.565L58.2334 838.365L58.0341 838.166L57.8346 837.966L57.6353 837.767L57.4359 837.568L57.2365 837.368L57.0371 837.169L35.7026 800.681L33.9081 797.69L32.313 794.899L30.718 792.107L29.3222 789.515L27.9265 786.923L26.7302 784.531L26.1321 783.334L25.5339 782.138L24.9357 780.942L24.537 779.745L24.1382 778.748L23.7394 777.751L23.3406 776.755L22.9418 775.758L22.5431 774.761L22.1443 773.764L21.7455 772.767L21.3467 771.77L21.1474 770.773L20.9479 770.374L20.7486 769.975L20.5493 769.577L20.3498 769.178L20.1505 768.779V768.38V767.981V767.583V767.184V766.785V766.386V765.988V765.589V765.19V764.791V764.393V763.994V763.595V762.997V762.399V761.202V760.006V758.61V755.42V751.632V747.445L20.3498 737.475L21.3467 711.754L23.1413 678.058L29.3222 574.974L29.9204 567.996L30.5186 561.217" stroke="white" stroke-width="2.25" stroke-miterlimit="10" stroke-linecap="round" stroke-linejoin="round"/>
<path d="M46.8683 507.183L46.669 507.382L46.4696 507.582L46.2702 507.781L46.0708 507.98L45.8714 508.18L45.672 508.379L45.4727 508.578L45.2732 508.778L45.0739 508.977L44.8744 509.177L44.6751 509.376L44.4758 509.575L44.2763 509.775L44.077 509.974L43.8775 510.174L43.6782 510.373L43.4788 510.572L43.2794 510.971L43.08 511.37L42.8806 511.769L42.6812 512.167L42.4819 512.566L42.2824 512.965L42.0831 513.364L41.8836 513.763L41.6843 514.161L41.4849 514.56L41.2855 514.959L41.0861 515.358L40.8867 515.756L40.6873 516.155L40.488 516.554L40.2885 516.953L40.0892 517.352L39.8897 517.75L39.6904 518.149L39.4911 518.548L39.2916 518.947L39.0923 519.345L38.8928 519.744L38.6935 520.143L38.4941 520.542L38.2947 520.941L38.0953 521.339L37.8959 521.738L37.6965 522.137L37.4972 522.536L37.2977 522.934L37.0984 523.333L36.8989 523.732L36.6996 524.53L36.5003 525.327L36.3008 526.125L36.1015 526.922L35.902 527.72L35.7027 528.717L35.5033 529.714L34.7057 534.1L33.9081 538.487L33.31 542.873L32.7118 547.459L32.1137 551.447L31.5156 555.634L30.5186 564.008L29.721 572.582L29.1229 581.355L22.9418 684.438L21.1474 718.932L20.1505 745.052L19.951 754.423V758.411V762V764.991V766.386V767.583V768.779V769.377V769.776V770.175V770.574V770.972V771.371V771.77V772.169V772.567V772.966V773.365V773.764V774.163V774.561V774.96L20.1505 775.359L20.3498 775.758L20.5493 776.156L20.7486 776.555L20.9479 776.954L21.1474 777.951L21.5462 778.948L21.9449 779.945L22.3437 780.942L22.7425 781.939L23.1413 782.936L23.5401 783.933L23.9388 784.929L24.3376 785.926L24.7363 787.123L25.3345 788.319L25.9326 789.515L26.5309 790.712L27.7272 793.104L29.1229 795.696L30.5186 798.288L32.1137 801.08L33.7088 803.871L35.5033 806.862L40.6873 815.436L56.8377 843.151L57.0371 843.35L57.2365 843.549L57.4359 843.749L57.6353 843.948L57.8346 844.148L58.0341 844.347L58.2334 844.546L58.4329 844.746L58.6322 844.945L58.8316 845.145L59.031 845.344L59.2303 845.543L59.4298 845.743L59.6291 845.942L59.8285 846.141L60.0279 846.341L60.2273 846.54L60.4267 846.74L60.6261 846.939L60.8254 847.138L61.0249 847.338L61.2242 847.537L61.4237 847.736L61.623 847.936L61.8224 848.135L62.0218 848.335L62.2212 848.534L62.4206 848.733L62.62 848.933L62.8193 849.132L63.0188 849.332L63.2181 849.531L63.4176 849.73L63.6169 849.93L61.4237 852.721L61.623 852.921L61.8224 853.12L62.0218 853.319L62.2212 853.519L62.4206 853.718L62.62 853.918L62.8193 854.117L63.0188 854.316L63.2181 854.516L63.4176 854.715L63.6169 854.914L63.8162 855.114L64.0157 855.313L64.215 855.513L64.4145 855.712L64.6138 855.911L64.8132 856.111L65.0126 856.31L65.212 856.51L65.4114 856.709L65.6108 856.908L65.8101 857.108L66.0096 857.307L66.4084 857.507L66.807 857.706L67.2058 857.905V871.862L66.6077 872.062L66.0096 872.261L65.4114 872.461L64.8132 872.66L64.215 872.859L63.6169 873.059L63.0188 873.258L62.4206 873.457L61.8224 873.657L61.2242 873.856L60.6261 874.056L60.0279 874.255L59.4298 874.454L58.8316 874.654L58.2334 874.853L57.6353 875.053L57.0371 875.252L56.439 875.651L55.8407 876.05L55.2426 876.448L54.6445 876.847L54.0463 877.246L53.4482 877.645L52.8499 878.043L52.2518 878.442L51.6537 878.841L51.0555 879.24L50.4574 879.639L49.8591 880.037L49.261 880.436L48.6628 880.835L48.0647 881.234H22.9418V855.911H11.3774V881.234H4.79761V899.178H11.3774V902.967H22.9418V899.178H29.1229L28.7241 899.777L28.3253 900.375L27.9265 900.973L27.5278 901.571L27.129 902.169L26.7302 902.767L26.3314 903.366L25.9326 903.964L25.5339 904.562L25.1351 905.16L24.7363 905.758L24.3376 906.356L23.9388 906.955L23.5401 907.553L23.1413 908.151L22.7425 908.749L22.3437 909.347L21.9449 909.945L21.5462 910.544L21.1474 911.142L20.9479 911.74L20.7486 912.338L20.5493 912.936L20.3498 913.534L20.1505 914.133L19.951 914.731L19.7517 915.329L19.5523 915.927L19.3529 916.525L19.1535 917.123L18.9541 917.722L18.7547 918.32L18.5554 918.918L18.3559 919.516L18.1566 920.114L17.9571 920.712L17.7578 921.31L17.5585 921.909L17.359 922.507L17.1597 923.105L16.9602 923.703L16.7609 924.301L16.5615 924.899L16.3621 925.498L16.1627 926.096L15.9633 926.694L15.7639 927.292L15.5646 927.89V928.488V929.087V929.685V930.283V930.881V931.479V932.077V932.676V933.274V933.872V934.47V935.068V935.666V936.264V936.863V937.461V938.258V939.056V939.854V940.651V941.449V942.246V943.044V943.841V944.639V945.436V946.234L15.7639 947.031L15.9633 947.829L16.1627 948.627L16.3621 949.424L16.5615 950.222L16.7609 951.019L16.9602 951.817L17.1597 952.614L17.359 953.412L17.5585 954.209L17.7578 955.007L17.9571 955.805L18.1566 956.602L18.3559 957.4L18.5554 958.197L18.7547 958.995L18.9541 959.792L19.1535 960.59L19.3529 961.387L19.7517 962.185L20.1505 962.982L20.5493 963.78L20.9479 964.578L21.3467 965.375L21.7455 966.173L22.1443 966.97L22.5431 967.768L22.9418 968.565L23.3406 969.363L23.7394 970.16L24.1382 970.958L24.537 971.756L24.9357 972.553L25.3345 973.351L25.7333 974.148L26.1321 974.946L26.5309 975.743L27.129 976.541L27.7272 977.338L28.3253 978.136L28.9234 978.934L29.5217 979.731L30.1198 980.529L30.718 981.326L31.3161 982.124L31.9142 982.921L32.5125 983.719L33.1106 984.317L33.7088 984.915L34.3069 985.513L34.9051 986.111L35.5033 986.71L36.1015 987.308L36.6996 987.906L37.2977 988.504L37.8959 989.102L38.4941 989.7L39.0923 990.299L39.6904 990.897L40.488 991.495L41.2855 992.093L42.0831 992.691L42.8806 993.289L43.6782 993.888L44.4758 994.486L45.2732 995.084L46.0708 995.682L46.8683 996.28L47.6659 996.878L48.4635 997.277L49.261 997.676L50.0586 998.075L50.8561 998.473L51.6537 998.872L52.4512 999.271L53.2487 999.67L54.0463 1000.07L54.8438 1000.47L55.6414 1000.87L56.439 1001.26L57.2365 1001.66L58.0341 1002.06L58.8316 1002.46L59.6291 1002.86L60.4267 1003.26L61.2242 1003.66L62.0218 1004.06L62.8193 1004.26L63.6169 1004.46L64.4145 1004.65L65.212 1004.85L66.0096 1005.05L66.807 1005.25L67.6046 1005.45L68.4022 1005.65L69.1997 1005.85L69.9973 1006.05L70.7948 1006.25L71.5924 1006.45L72.39 1006.65L73.1875 1006.85L73.9851 1007.05L74.7825 1007.25L75.5801 1007.45L74.7825 1007.84L75.5801 1008.04H76.3777H77.1752H77.9728H78.7703H79.5679H80.3655H81.163H81.9606H82.758H83.5556H84.3532H84.9514H85.5495H86.3471H87.1446H87.9422H88.7397H89.5373H90.3349H91.1323H91.9299H92.7274H93.525H94.3226H95.1201L95.9177 1007.84L96.7152 1007.65L97.5128 1007.45L98.3104 1007.25L99.1078 1007.05L99.9054 1006.85L100.703 1006.65L101.501 1006.45L102.298 1006.25L103.096 1006.05L103.893 1005.85L104.691 1005.65L105.488 1005.45L105.289 1005.05L106.086 1004.85L106.884 1004.65L107.681 1004.46L108.479 1004.26L109.277 1004.06L110.074 1003.86L110.872 1003.66L111.669 1003.46L112.467 1003.26L113.264 1003.06L114.062 1002.66L114.859 1002.26L115.657 1001.86L116.455 1001.46L117.252 1001.07L118.05 1000.67L118.847 1000.27L119.645 999.869L120.442 999.47L121.04 999.072L121.639 998.673L122.237 998.274L122.835 997.875L123.433 997.477L124.031 997.078L124.629 996.679L125.228 996.28L125.826 995.881L126.424 995.483L127.022 995.084L127.62 994.685L128.218 994.286L128.817 993.888L129.415 993.489L130.013 992.891L130.611 992.292L131.209 991.694L131.807 991.096L132.406 990.498L133.004 989.9L133.602 989.302L134.2 988.703L134.798 988.105L135.396 987.507L135.995 986.909L136.593 986.311L137.191 985.713L137.789 985.114L138.387 984.516L138.985 983.918L139.583 983.32L140.182 982.722L140.78 982.124L141.378 981.525L141.976 980.927L142.574 980.329L142.973 979.731L143.372 979.133L143.771 978.535L144.169 977.937L144.568 977.338L144.967 976.74L145.366 976.142L145.765 975.544L146.163 974.946L146.562 974.347L146.961 973.749L147.36 973.151L147.758 972.553L148.157 971.955L148.556 971.157L148.955 970.36L149.353 969.562L149.752 968.765L150.151 967.967L150.55 967.17L150.949 966.372L151.347 965.575L151.945 966.173L152.344 965.375L152.544 964.578L152.743 963.78L152.942 962.982L153.142 962.185L153.341 961.387L153.541 960.59L153.74 959.792L153.939 958.995L154.139 958.197L154.338 957.4L154.538 956.602L154.737 955.805L154.936 955.007L155.136 954.209L155.335 953.412L155.534 952.614L155.734 951.817L155.933 951.019L156.133 950.222L156.332 949.424V942.445H366.287L366.486 943.243L366.686 944.041L366.885 944.838L367.085 945.636L367.284 946.433L367.483 947.231L367.683 948.028L367.882 948.826L368.082 949.623L368.281 950.421L368.48 951.219L368.68 952.016L368.879 952.814L369.078 953.611L369.278 954.409L369.477 955.206L369.677 956.004L369.876 956.801L370.075 957.599L370.275 958.397L370.674 959.194L371.072 959.992L371.471 960.789L371.87 961.587L372.269 962.384L372.667 963.182L373.066 963.979L373.465 964.777L373.864 965.575L374.262 966.372L374.661 966.97L375.06 967.568L375.459 968.166L375.858 968.765L376.256 969.363L376.655 969.961L377.054 970.559L377.453 971.157L377.851 971.756L378.25 972.354L378.649 972.952L379.048 973.55L379.447 974.148L379.845 974.746L380.444 975.344L381.042 975.943L381.64 976.541L382.238 977.139L382.836 977.737L383.434 978.335L384.033 978.934L384.631 979.532L385.229 980.13L385.827 980.728L386.425 981.326L387.023 981.924L387.621 982.522L388.22 983.121L388.818 983.719L389.416 984.317L390.014 984.915L390.612 985.513L391.21 986.111L391.809 986.71L392.407 987.308L393.005 987.906L393.603 988.305L394.201 988.703L394.799 989.102L395.398 989.501L395.996 989.9L396.594 990.299L397.192 990.697L397.79 991.096L398.388 991.495L398.987 991.894L399.585 992.292L400.183 992.691L400.781 993.09L401.379 993.489L401.977 993.888L402.775 994.286L403.572 994.685L404.37 995.084L405.168 995.483L405.965 995.881L406.763 996.28L407.56 996.679L408.358 997.078L409.155 997.477L409.953 997.676L410.75 997.875L411.548 998.075L412.346 998.274L413.143 998.473L413.941 998.673L414.738 998.872L415.536 999.072L416.333 999.271L417.131 999.47L417.928 999.67L418.726 999.869L419.523 1000.07L420.321 1000.27L421.118 1000.47L421.916 1000.67L422.714 1000.87L423.511 1001.07L424.309 1001.26L425.106 1001.46L425.904 1001.66L426.701 1001.86L427.499 1002.06L428.297 1002.26H429.094H429.892H430.689H431.487H432.284H433.082H433.879H434.677H435.474H436.272H437.07H437.867H438.465H439.063H439.861H440.658H441.456H442.254H443.051H443.849H444.646H445.444H446.241H447.039H447.836L448.634 1002.06L449.432 1001.86L450.229 1001.66L451.027 1001.46L451.824 1001.26L452.622 1001.07L453.419 1000.87L454.217 1000.67L455.014 1000.47L455.812 1000.27L456.609 1000.07L457.407 999.869L458.205 999.67L459.002 999.47L459.8 999.271L460.597 999.072L461.395 998.872L462.192 998.673L462.99 998.473L463.787 998.075L464.585 997.676L465.383 997.277L466.18 996.878L466.978 996.48L467.775 996.081L468.573 995.682L469.37 995.283L470.168 994.884L470.965 994.486L471.763 994.087L472.56 993.688L473.358 993.289L474.156 992.891L474.953 992.492L475.751 992.093L476.548 991.694L477.346 991.295L478.143 990.697L478.941 990.099L479.738 989.501L480.536 988.903L481.334 988.305L482.131 987.706L482.929 987.108L483.726 986.51L484.524 985.912L485.321 985.314L485.919 984.716L486.518 984.117L487.116 983.519L487.714 982.921L488.312 982.323L488.91 981.725L489.508 981.127L490.107 980.529L490.705 979.93L491.303 979.332L491.901 978.734L492.499 978.136L493.097 977.338L493.696 976.541L494.294 975.743L494.892 974.946L495.49 974.148L496.088 973.351L496.686 972.553L497.285 971.756L497.883 970.958L498.481 970.16L498.88 969.363L499.278 968.565L499.677 967.768L500.076 966.97L500.475 966.173L500.873 965.375L501.272 964.578L501.671 963.78L502.07 962.982L502.469 962.185L502.867 961.387L503.266 960.59L503.665 959.792L504.064 958.995L504.462 958.197L504.861 957.4L505.26 956.602L505.659 955.805L505.858 955.007L506.058 954.209L506.257 953.412L506.456 952.614L506.656 951.817L506.855 951.019L507.055 950.222L507.254 949.424L507.453 948.627L507.653 947.829L507.852 947.031L508.052 946.234L508.251 945.436L508.45 944.639L508.65 943.841L508.849 943.044L509.048 942.246L509.248 941.449L509.447 940.651V939.854V939.056V938.258V937.461V936.663V935.866V935.068V934.271V933.473V932.676V931.878V931.28V930.682V930.084V929.485V928.887V928.289V927.691V927.093V926.495V925.896V925.298V924.7V924.102V923.504V922.906V922.307L509.248 921.709L509.048 921.111L508.849 920.513L508.65 919.915L508.45 919.317L508.251 918.718L508.052 918.12L507.852 917.522L507.653 916.924L507.453 916.326L507.254 915.728L507.055 915.129L506.855 914.531L506.656 913.933L506.456 913.335L506.257 912.737L506.058 912.139L505.858 911.54L505.659 910.942L505.459 910.344L505.26 909.746L505.061 909.148L504.861 908.55L504.662 907.952L504.462 907.353L504.263 906.755L504.064 906.157L503.864 905.559L503.465 904.961L503.067 904.363L502.668 903.764L502.269 903.166L501.87 902.568L501.472 901.97L501.073 901.372L500.674 900.774L500.275 900.175L499.877 899.577L499.478 898.979L499.079 898.381L498.68 897.783L498.281 897.185L497.883 896.586L497.484 895.988L497.085 895.39L496.686 894.792L496.288 894.194L495.889 893.596H506.257V897.384H517.821V893.596H524.601V875.651H517.821V844.347H506.257V875.651H473.956L473.358 875.252L472.76 874.853L472.162 874.454L471.564 874.056L470.965 873.657L470.367 873.258L469.769 872.859L469.171 872.461L468.573 872.062L467.975 871.663L467.376 871.264L466.778 870.865L466.18 870.467L465.582 870.068L464.984 869.669L464.386 869.47V853.319L464.784 853.12L465.183 852.921L465.582 852.721L465.981 852.522L466.379 852.322L466.778 852.123L467.177 851.924L467.576 851.724L467.975 851.525L468.373 851.326H468.573H468.772H468.971H469.171H469.37H469.57H469.769H469.968H470.168H470.367H470.567H470.766H470.965H471.165H471.364H471.564C471.564 851.326 471.564 851.126 471.763 851.126C471.763 851.126 471.763 850.927 471.962 850.927C471.962 850.927 471.962 850.727 472.162 850.727C472.162 850.727 472.162 850.528 472.361 850.528C472.361 850.528 472.361 850.528 472.56 850.329C472.56 850.329 472.561 850.329 472.76 850.129C472.76 850.129 472.76 850.129 472.959 849.93C472.959 849.93 472.959 849.93 473.159 849.73C473.159 849.73 473.159 849.73 473.358 849.531C473.358 849.531 473.358 849.531 473.557 849.332C473.557 849.332 473.757 849.332 473.757 849.132C473.757 849.132 473.956 849.132 473.956 848.933C473.956 848.933 474.156 848.933 474.156 848.733C474.156 848.733 474.355 848.733 474.355 848.534L474.953 847.537L475.751 846.54L476.548 845.344L477.346 844.148L479.14 841.356L480.935 838.166L482.929 834.577L485.122 830.789L489.907 822.016L493.097 816.034L505.858 792.506L506.257 791.908L506.656 791.31L507.055 790.712L507.453 790.114L507.852 789.515L508.052 788.917L508.251 788.319L508.45 787.721L508.65 787.322L508.849 786.923L509.048 786.525L509.248 786.126L509.447 785.727L509.647 785.328L509.846 784.929L510.045 784.531L510.245 784.132L510.444 783.733L510.644 783.334L510.843 782.936L511.042 782.537L511.242 782.138L511.441 781.739V781.341V780.942V780.543V780.144V779.745V779.347V778.948V778.549V778.15V777.751V777.353V776.954V776.555V776.156V775.758V775.359V774.96V774.561V774.163V773.166L511.242 770.574L510.245 757.215L500.475 649.346L498.68 631.401L496.686 614.852L494.693 599.699L492.699 585.941L491.702 579.56L490.705 573.579L489.708 567.996L488.711 562.612L487.714 557.628L487.116 555.235L486.518 553.042L486.119 551.247L485.72 549.453L485.321 547.658L484.922 545.864L484.524 544.269L484.125 542.674L483.726 541.079L483.327 539.683L482.929 538.487L482.53 537.29L482.131 536.094L481.732 534.898L481.334 533.701L480.935 532.505L480.536 531.309L480.137 530.112L479.738 528.916L479.34 527.919L478.742 526.922L478.143 525.925L477.545 524.928L476.947 523.931L476.349 522.934L475.751 521.937L475.153 520.941L474.554 519.944L473.956 518.947L473.358 517.95L472.76 517.152L472.162 516.355L471.564 515.557L470.965 514.759L470.367 513.962L469.968 513.563L469.57 513.164L469.171 512.766L468.772 512.367L468.373 511.968L467.975 511.569L467.576 511.171L467.177 510.772L466.778 510.373L466.379 509.974L465.981 509.575L465.582 509.177L465.183 508.778L464.784 508.379" stroke="white" stroke-width="3.25" stroke-miterlimit="10" stroke-linecap="round" stroke-linejoin="round"/>
<path d="M80.8 494.531V71.0307" stroke="white" stroke-width="3"/>
<path fill-rule="evenodd" clip-rule="evenodd" d="M266.554 761.717C312.148 761.717 349.109 724.757 349.109 679.163C349.109 633.569 312.148 596.609 266.554 596.609C220.961 596.609 184 633.569 184 679.163C184 724.757 220.961 761.717 266.554 761.717ZM266.64 731.06C295.255 731.06 318.451 707.863 318.451 679.249C318.451 650.635 295.255 627.438 266.64 627.438C238.026 627.438 214.83 650.635 214.83 679.249C214.83 707.863 238.026 731.06 266.64 731.06Z" fill="white"/>
<path d="M82 258.061L257.5 164.531L82 71" stroke="white" stroke-width="3"/>
</svg>
