<svg width="1080" height="1080" viewBox="0 0 1080 1080" fill="none" xmlns="http://www.w3.org/2000/svg">
<g clip-path="url(#clip0)">
<path d="M280 1008.24H282.991" stroke="white" stroke-width="2.75" stroke-linecap="round" stroke-linejoin="round"/>
<path d="M292.96 1008.24H792.824" stroke="white" stroke-width="2.75" stroke-linecap="round" stroke-linejoin="round" stroke-dasharray="2.97 2.97"/>
<path d="M797.809 1008.24H800.8" stroke="white" stroke-width="2.75" stroke-linecap="round" stroke-linejoin="round"/>
<path d="M785.447 936.863V935.467V934.271V933.074L785.248 931.878V930.682L785.048 929.286V928.09L784.849 926.893L784.65 925.697L784.45 924.501L784.251 923.304L783.852 921.909L783.653 920.712L783.453 919.516L783.055 918.32L782.656 917.123L782.456 915.927L782.058 914.731L781.659 913.534L781.26 912.538L780.861 911.341L780.263 910.145L779.864 908.949L779.266 907.752L778.867 906.755L778.269 905.559L777.671 904.562L777.272 903.366L776.674 902.369L776.076 901.172L775.278 900.176L774.68 898.979L774.082 897.982L773.284 896.985L772.686 895.988L771.889 894.991L771.291 893.994L770.493 892.998L769.696 892.001L768.898 891.004L768.1 890.007L767.303 889.209L766.505 888.212L765.508 887.415L764.711 886.418L763.913 885.62L762.916 884.623L761.919 883.826L761.122 883.028L760.125 882.231L759.128 881.433L758.131 880.636L757.134 879.838L756.137 879.24L755.14 878.442L754.143 877.645L753.146 877.047L752.149 876.448L751.153 875.651L749.956 875.053L748.959 874.454L747.763 873.856L746.766 873.258L745.57 872.66L744.573 872.261L743.376 871.663L742.18 871.264L740.984 870.666L739.987 870.267L738.79 869.869L737.594 869.47L736.398 869.071L735.202 868.672L734.005 868.274L732.809 867.875L731.612 867.675L730.416 867.277L729.22 867.077L728.024 866.878L726.827 866.479L725.631 866.28L724.435 866.08H723.039L721.843 865.881L720.646 865.681H719.45L718.254 865.482H716.858H715.661H714.465H713.269H711.873H710.677H709.481L708.284 865.681H707.088L705.692 865.881L704.496 866.08L703.3 866.28L702.103 866.479L700.907 866.678L699.71 866.878L698.315 867.077L697.118 867.476L695.922 867.675L694.726 868.074L693.53 868.473L692.333 868.872L691.336 869.27L690.14 869.669L688.944 870.068L687.747 870.467L686.551 870.866L685.355 871.464L684.358 871.862L683.161 872.461L682.164 873.059L680.968 873.657L679.971 874.255L678.775 874.853L677.778 875.451L676.582 876.05L675.585 876.648L674.588 877.445L673.591 878.044L672.594 878.841L671.597 879.439L670.6 880.237L669.603 881.034L668.606 881.832L667.609 882.629L666.612 883.427L665.815 884.225L664.818 885.221L664.02 886.019L663.023 886.817L662.226 887.813L661.428 888.611L660.631 889.608L659.833 890.605L659.036 891.402L658.238 892.399L657.44 893.396L656.643 894.393L655.845 895.39L655.247 896.387L654.45 897.583L653.851 898.58L653.253 899.577L652.655 900.574L651.858 901.771L651.259 902.768L650.861 903.964L650.262 904.961L649.664 906.157L649.066 907.353L648.667 908.35L648.069 909.547L647.67 910.743L647.272 911.939L646.873 912.936L646.474 914.133L646.075 915.329L645.677 916.525L645.278 917.722L645.078 918.918L644.68 920.114L644.48 921.311L644.081 922.507L643.882 923.903L643.683 925.099L643.483 926.295L643.284 927.492V928.688L643.085 929.884L642.885 931.28V932.476V933.673L642.686 934.869V936.265V937.461V938.657L642.885 939.854V941.05V942.446L643.085 943.642L643.284 944.838V946.035L643.483 947.231L643.683 948.627L643.882 949.823L644.081 951.019L644.48 952.216L644.68 953.412L645.078 954.608L645.278 955.805L645.677 957.001L646.075 958.197L646.474 959.394L646.873 960.59L647.272 961.786L647.67 962.983L648.069 963.979L648.667 965.176L649.066 966.372L649.664 967.369L650.262 968.565L650.861 969.762L651.259 970.759L651.858 971.756L652.655 972.952L653.253 973.949L653.851 975.145L654.45 976.142L655.247 977.139L655.845 978.136L656.643 979.133L657.44 980.13L658.238 981.127L659.036 982.124L659.833 983.121L660.631 983.918L661.428 984.915L662.226 985.912L663.023 986.71L664.02 987.507L664.818 988.504L665.815 989.302L666.612 990.099L667.609 990.897L668.606 991.694L669.603 992.492L670.6 993.289L671.597 994.087L672.594 994.885L673.591 995.483L674.588 996.28L675.585 996.878L676.582 997.477L677.778 998.274L678.775 998.872L679.971 999.47L680.968 1000.07L682.164 1000.67L683.161 1001.07L684.358 1001.66L685.355 1002.06L686.551 1002.66L687.747 1003.06L688.944 1003.66L690.14 1004.06L691.336 1004.46L692.333 1004.85L693.53 1005.25L694.726 1005.45L695.922 1005.85L697.118 1006.05L698.315 1006.45L699.71 1006.65L700.907 1006.85L702.103 1007.25L703.3 1007.45H704.496L705.692 1007.65L707.088 1007.84H708.284L709.481 1008.04H710.677H711.873L713.269 1008.24H714.465H715.661L716.858 1008.04H718.254H719.45L720.646 1007.84H721.843L723.039 1007.65L724.435 1007.45L725.631 1007.25L726.827 1007.05L728.024 1006.85L729.22 1006.65L730.416 1006.25L731.612 1006.05L732.809 1005.65L734.005 1005.25L735.202 1005.05L736.398 1004.65L737.594 1004.26L738.79 1003.86L739.987 1003.26L740.984 1002.86L742.18 1002.46L743.376 1001.86L744.573 1001.46L745.57 1000.87L746.766 1000.27L747.763 999.67L748.959 999.072L749.956 998.473L751.153 997.875L752.149 997.277L753.146 996.48L754.143 995.881L755.14 995.084L756.137 994.486L757.134 993.688L758.131 992.891L759.128 992.093L760.125 991.296L761.122 990.498L761.919 989.7L762.916 988.903L763.913 988.105L764.711 987.108L765.508 986.311L766.505 985.314L767.303 984.516L768.1 983.519L768.898 982.523L769.696 981.526L770.493 980.728L771.291 979.731L771.889 978.734L772.686 977.538L773.284 976.541L774.082 975.544L774.68 974.547L775.278 973.55L776.076 972.354L776.674 971.357L777.272 970.16L777.671 969.164L778.269 967.967L778.867 966.97L779.266 965.774L779.864 964.578L780.263 963.381L780.861 962.384L781.26 961.188L781.659 959.992L782.058 958.795L782.456 957.599L782.656 956.403L783.055 955.206L783.453 954.01L783.653 952.814L783.852 951.617L784.251 950.421L784.45 949.225L784.65 948.029L784.849 946.633L785.048 945.436V944.24L785.248 943.044V941.847L785.447 940.452V939.255V938.059V936.863Z" stroke="white" stroke-width="2.25" stroke-miterlimit="10" stroke-linecap="round" stroke-linejoin="round"/>
<path d="M750.156 936.863V936.264L749.956 935.467V934.869V934.271V933.672V933.074L749.757 932.476V931.878L749.557 931.28V930.482L749.358 929.884V929.286L749.159 928.688L748.959 928.09L748.76 927.491V926.893L748.56 926.295L748.361 925.697L748.162 925.099L747.962 924.501L747.763 923.903L747.563 923.304L747.165 922.706L746.965 922.307L746.766 921.709L746.367 921.111L746.168 920.513L745.968 919.915L745.57 919.317L745.37 918.918L744.971 918.32L744.573 917.721L744.373 917.323L743.974 916.725L743.576 916.126L743.177 915.728L742.778 915.129L742.579 914.731L742.18 914.133L741.781 913.734L741.382 913.335L740.984 912.737L740.386 912.338L739.987 911.939L739.588 911.341L739.189 910.942L738.79 910.544L738.192 910.145L737.794 909.746L737.395 909.347L736.797 908.948L736.398 908.55L735.8 908.151L735.401 907.752L734.803 907.353L734.404 906.955L733.806 906.755L733.208 906.356L732.809 905.958L732.211 905.758L731.612 905.359L731.014 905.16L730.616 904.761L730.017 904.562L729.419 904.163L728.821 903.964L728.223 903.764L727.625 903.565L727.027 903.366L726.628 902.967L726.03 902.767L725.431 902.568L724.833 902.369H724.235L723.637 902.169L723.039 901.97L722.241 901.77L721.643 901.571H721.045L720.447 901.372H719.849L719.251 901.172H718.652L718.054 900.973H717.456H716.858H716.06L715.462 900.774H714.864H714.266H713.668H713.069L712.471 900.973H711.873H711.076H710.477L709.879 901.172H709.281H708.683L708.085 901.372H707.487L706.888 901.571L706.29 901.77H705.692L704.895 901.97L704.296 902.169L703.698 902.369L703.1 902.568L702.502 902.767L702.103 902.967L701.505 903.166L700.907 903.366L700.309 903.565L699.71 903.964L699.112 904.163L698.514 904.363L697.916 904.761L697.517 904.961L696.919 905.16L696.321 905.559L695.723 905.958L695.324 906.157L694.726 906.556L694.128 906.955L693.729 907.154L693.131 907.553L692.732 907.952L692.134 908.35L691.735 908.749L691.137 909.148L690.738 909.547L690.14 909.945L689.741 910.344L689.342 910.743L688.944 911.142L688.345 911.74L687.947 912.139L687.548 912.537L687.149 912.936L686.75 913.534L686.352 913.933L685.953 914.531L685.554 914.93L685.155 915.528L684.756 915.927L684.557 916.525L684.158 916.924L683.759 917.522L683.361 918.12L683.161 918.519L682.763 919.117L682.563 919.715L682.164 920.314L681.965 920.712L681.566 921.31L681.367 921.909L681.167 922.507L680.968 923.105L680.569 923.703L680.37 924.301L680.171 924.899L679.971 925.498L679.772 926.096L679.572 926.694L679.373 927.292V927.89L679.174 928.488L678.974 929.087V929.685L678.775 930.283L678.575 930.881V931.479V932.077L678.376 932.676V933.274V934.071L678.177 934.669V935.268V935.866V936.464V937.062V937.66V938.458V939.056L678.376 939.654V940.252V940.85L678.575 941.449V942.047V942.645L678.775 943.243L678.974 944.041V944.639L679.174 945.237L679.373 945.835V946.433L679.572 947.031L679.772 947.63L679.971 948.228L680.171 948.826L680.37 949.424L680.569 950.022L680.968 950.421L681.167 951.019L681.367 951.617L681.566 952.215L681.965 952.814L682.164 953.412L682.563 953.811L682.763 954.409L683.161 955.007L683.361 955.605L683.759 956.004L684.158 956.602L684.557 957.2L684.756 957.599L685.155 958.197L685.554 958.596L685.953 959.194L686.352 959.593L686.75 959.992L687.149 960.59L687.548 960.989L687.947 961.587L688.345 961.986L688.944 962.384L689.342 962.783L689.741 963.182L690.14 963.581L690.738 963.979L691.137 964.578L691.735 964.777L692.134 965.176L692.732 965.574L693.131 965.973L693.729 966.372L694.128 966.771L694.726 966.97L695.324 967.369L695.723 967.768L696.321 967.967L696.919 968.366L697.517 968.565L697.916 968.964L698.514 969.163L699.112 969.562L699.71 969.762L700.309 969.961L700.907 970.16L701.505 970.36L702.103 970.559L702.502 970.759L703.1 970.958L703.698 971.157L704.296 971.357L704.895 971.556L705.692 971.755L706.29 971.955H706.888L707.487 972.154H708.085L708.683 972.354H709.281L709.879 972.553H710.477H711.076L711.873 972.752H712.471H713.069H713.668H714.266H714.864H715.462H716.06L716.858 972.553H717.456H718.054H718.652L719.251 972.354H719.849L720.447 972.154H721.045L721.643 971.955L722.241 971.755L723.039 971.556H723.637L724.235 971.357L724.833 971.157L725.431 970.958L726.03 970.759L726.628 970.559L727.027 970.36L727.625 970.16L728.223 969.762L728.821 969.562L729.419 969.363L730.017 968.964L730.616 968.765L731.014 968.565L731.612 968.166L732.211 967.967L732.809 967.568L733.208 967.17L733.806 966.97L734.404 966.571L734.803 966.173L735.401 965.774L735.8 965.375L736.398 964.976L736.797 964.777L737.395 964.378L737.794 963.78L738.192 963.381L738.79 962.982L739.189 962.584L739.588 962.185L739.987 961.786L740.386 961.188L740.984 960.789L741.382 960.39L741.781 959.792L742.18 959.393L742.579 958.795L742.778 958.397L743.177 957.798L743.576 957.4L743.974 956.801L744.373 956.403L744.573 955.805L744.971 955.206L745.37 954.808L745.57 954.209L745.968 953.611L746.168 953.013L746.367 952.614L746.766 952.016L746.965 951.418L747.165 950.82L747.563 950.222L747.763 949.623L747.962 949.025L748.162 948.427L748.361 947.829L748.56 947.231L748.76 946.633V946.035L748.959 945.436L749.159 944.838L749.358 944.24V943.642L749.557 943.044V942.446L749.757 941.847V941.249L749.956 940.452V939.854V939.255V938.657V938.059L750.156 937.461V936.863Z" stroke="white" stroke-width="2.25" stroke-miterlimit="10" stroke-linecap="round" stroke-linejoin="round"/>
<path d="M433.329 936.863V935.467V934.271V933.074V931.878L433.13 930.682L432.93 929.286V928.09L432.731 926.893L432.531 925.697L432.332 924.501L432.133 923.304L431.933 921.909L431.534 920.712L431.335 919.516L430.936 918.32L430.737 917.123L430.338 915.927L429.939 914.731L429.541 913.534L429.142 912.538L428.743 911.341L428.344 910.145L427.746 908.949L427.347 907.752L426.749 906.755L426.151 905.559L425.752 904.562L425.154 903.366L424.556 902.369L423.958 901.172L423.36 900.176L422.562 898.979L421.964 897.982L421.366 896.985L420.568 895.988L419.771 894.991L419.173 893.994L418.375 892.998L417.577 892.001L416.78 891.004L415.982 890.007L415.185 889.209L414.387 888.212L413.59 887.415L412.593 886.418L411.795 885.62L410.798 884.623L410.001 883.826L409.004 883.028L408.007 882.231L407.01 881.433L406.212 880.636L405.215 879.838L404.218 879.24L403.222 878.442L402.025 877.645L401.028 877.047L400.031 876.448L399.034 875.651L397.838 875.053L396.841 874.454L395.645 873.856L394.648 873.258L393.451 872.66L392.455 872.261L391.258 871.663L390.062 871.264L389.065 870.666L387.869 870.267L386.672 869.869L385.476 869.47L384.28 869.071L383.083 868.672L381.887 868.274L380.691 867.875L379.494 867.675L378.298 867.277L377.102 867.077L375.905 866.878L374.709 866.479L373.513 866.28L372.316 866.08H371.12L369.724 865.881L368.528 865.681H367.332L366.135 865.482H364.74H363.543H362.347H361.151H359.954H358.559H357.362L356.166 865.681H354.97L353.773 865.881L352.378 866.08L351.181 866.28L349.985 866.479L348.789 866.678L347.592 866.878L346.396 867.077L345.2 867.476L344.003 867.675L342.807 868.074L341.611 868.473L340.414 868.872L339.218 869.27L338.022 869.669L336.825 870.068L335.629 870.467L334.433 870.866L333.436 871.464L332.24 871.862L331.043 872.461L330.046 873.059L328.85 873.657L327.853 874.255L326.657 874.853L325.66 875.451L324.663 876.05L323.467 876.648L322.47 877.445L321.473 878.044L320.476 878.841L319.479 879.439L318.482 880.237L317.485 881.034L316.488 881.832L315.491 882.629L314.693 883.427L313.697 884.225L312.7 885.221L311.902 886.019L311.105 886.817L310.108 887.813L309.31 888.611L308.512 889.608L307.715 890.605L306.917 891.402L306.12 892.399L305.322 893.396L304.525 894.393L303.926 895.39L303.129 896.387L302.531 897.583L301.733 898.58L301.135 899.577L300.537 900.574L299.939 901.771L299.341 902.768L298.742 903.964L298.144 904.961L297.546 906.157L297.147 907.353L296.549 908.35L296.15 909.547L295.552 910.743L295.154 911.939L294.755 912.936L294.356 914.133L293.957 915.329L293.558 916.525L293.16 917.722L292.96 918.918L292.562 920.114L292.362 921.311L292.163 922.507L291.764 923.903L291.565 925.099L291.365 926.295V927.492L291.166 928.688L290.966 929.884V931.28L290.767 932.476V933.673V934.869L290.568 936.265V937.461L290.767 938.657V939.854V941.05L290.966 942.446V943.642L291.166 944.838L291.365 946.035V947.231L291.565 948.627L291.764 949.823L292.163 951.019L292.362 952.216L292.562 953.412L292.96 954.608L293.16 955.805L293.558 957.001L293.957 958.197L294.356 959.394L294.755 960.59L295.154 961.786L295.552 962.983L296.15 963.979L296.549 965.176L297.147 966.372L297.546 967.369L298.144 968.565L298.742 969.762L299.341 970.759L299.939 971.756L300.537 972.952L301.135 973.949L301.733 975.145L302.531 976.142L303.129 977.139L303.926 978.136L304.525 979.133L305.322 980.13L306.12 981.127L306.917 982.124L307.715 983.121L308.512 983.918L309.31 984.915L310.108 985.912L311.105 986.71L311.902 987.507L312.7 988.504L313.697 989.302L314.693 990.099L315.491 990.897L316.488 991.694L317.485 992.492L318.482 993.289L319.479 994.087L320.476 994.885L321.473 995.483L322.47 996.28L323.467 996.878L324.663 997.477L325.66 998.274L326.657 998.872L327.853 999.47L328.85 1000.07L330.046 1000.67L331.043 1001.07L332.24 1001.66L333.436 1002.06L334.433 1002.66L335.629 1003.06L336.825 1003.66L338.022 1004.06L339.218 1004.46L340.414 1004.85L341.611 1005.25L342.807 1005.45L344.003 1005.85L345.2 1006.05L346.396 1006.45L347.592 1006.65L348.789 1006.85L349.985 1007.25L351.181 1007.45H352.378L353.773 1007.65L354.97 1007.84H356.166L357.362 1008.04H358.559H359.954L361.151 1008.24H362.347H363.543L364.74 1008.04H366.135H367.332L368.528 1007.84H369.724L371.12 1007.65L372.316 1007.45L373.513 1007.25L374.709 1007.05L375.905 1006.85L377.102 1006.65L378.298 1006.25L379.494 1006.05L380.691 1005.65L381.887 1005.25L383.083 1005.05L384.28 1004.65L385.476 1004.26L386.672 1003.86L387.869 1003.26L389.065 1002.86L390.062 1002.46L391.258 1001.86L392.455 1001.46L393.451 1000.87L394.648 1000.27L395.645 999.67L396.841 999.072L397.838 998.473L399.034 997.875L400.031 997.277L401.028 996.48L402.025 995.881L403.222 995.084L404.218 994.486L405.215 993.688L406.212 992.891L407.01 992.093L408.007 991.296L409.004 990.498L410.001 989.7L410.798 988.903L411.795 988.105L412.593 987.108L413.59 986.311L414.387 985.314L415.185 984.516L415.982 983.519L416.78 982.523L417.577 981.526L418.375 980.728L419.173 979.731L419.771 978.734L420.568 977.538L421.366 976.541L421.964 975.544L422.562 974.547L423.36 973.55L423.958 972.354L424.556 971.357L425.154 970.16L425.752 969.164L426.151 967.967L426.749 966.97L427.347 965.774L427.746 964.578L428.344 963.381L428.743 962.384L429.142 961.188L429.541 959.992L429.939 958.795L430.338 957.599L430.737 956.403L430.936 955.206L431.335 954.01L431.534 952.814L431.933 951.617L432.133 950.421L432.332 949.225L432.531 948.029L432.731 946.633L432.93 945.436V944.24L433.13 943.044L433.329 941.847V940.452V939.255V938.059V936.863Z" stroke="white" stroke-width="2.25" stroke-miterlimit="10" stroke-linecap="round" stroke-linejoin="round"/>
<path d="M398.037 936.863V936.264V935.467V934.869L397.838 934.271V933.672V933.074L397.639 932.476V931.878V931.28L397.439 930.482L397.24 929.884V929.286L397.04 928.688L396.841 928.09V927.491L396.642 926.893L396.442 926.295L396.243 925.697L396.043 925.099L395.844 924.501L395.645 923.903L395.445 923.304L395.246 922.706L394.847 922.307L394.648 921.709L394.448 921.111L394.05 920.513L393.85 919.915L393.451 919.317L393.252 918.918L392.853 918.32L392.654 917.721L392.255 917.323L391.856 916.725L391.458 916.126L391.258 915.728L390.859 915.129L390.461 914.731L390.062 914.133L389.663 913.734L389.264 913.335L388.866 912.737L388.467 912.338L387.869 911.939L387.47 911.341L387.071 910.942L386.672 910.544L386.074 910.145L385.675 909.746L385.277 909.347L384.678 908.948L384.28 908.55L383.681 908.151L383.283 907.752L382.684 907.353L382.286 906.955L381.688 906.755L381.089 906.356L380.691 905.958L380.092 905.758L379.494 905.359L379.096 905.16L378.497 904.761L377.899 904.562L377.301 904.163L376.703 903.964L376.105 903.764L375.706 903.565L375.108 903.366L374.51 902.967L373.912 902.767L373.313 902.568L372.715 902.369H372.117L371.519 902.169L370.921 901.97L370.323 901.77L369.724 901.571H369.126L368.329 901.372H367.73L367.132 901.172H366.534L365.936 900.973H365.338H364.74H364.141L363.543 900.774H362.746H362.148H361.549H360.951L360.353 900.973H359.755H359.157H358.359L357.761 901.172H357.163H356.565L355.967 901.372H355.369L354.77 901.571L354.172 901.77H353.574L352.976 901.97L352.378 902.169L351.779 902.369L351.181 902.568L350.583 902.767L349.985 902.967L349.387 903.166L348.789 903.366L348.19 903.565L347.592 903.964L346.994 904.163L346.396 904.363L345.997 904.761L345.399 904.961L344.801 905.16L344.203 905.559L343.804 905.958L343.206 906.157L342.608 906.556L342.209 906.955L341.611 907.154L341.013 907.553L340.614 907.952L340.016 908.35L339.617 908.749L339.019 909.148L338.62 909.547L338.221 909.945L337.623 910.344L337.224 910.743L336.825 911.142L336.427 911.74L335.828 912.139L335.43 912.537L335.031 912.936L334.632 913.534L334.233 913.933L333.835 914.531L333.436 914.93L333.037 915.528L332.638 915.927L332.439 916.525L332.04 916.924L331.641 917.522L331.442 918.12L331.043 918.519L330.644 919.117L330.445 919.715L330.046 920.314L329.847 920.712L329.647 921.31L329.249 921.909L329.049 922.507L328.85 923.105L328.651 923.703L328.451 924.301L328.052 924.899L327.853 925.498L327.654 926.096V926.694L327.454 927.292L327.255 927.89L327.055 928.488L326.856 929.087V929.685L326.657 930.283V930.881L326.457 931.479V932.077L326.258 932.676V933.274V934.071L326.059 934.669V935.268V935.866V936.464V937.062V937.66V938.458V939.056L326.258 939.654V940.252V940.85L326.457 941.449V942.047L326.657 942.645V943.243L326.856 944.041V944.639L327.055 945.237L327.255 945.835L327.454 946.433L327.654 947.031V947.63L327.853 948.228L328.052 948.826L328.451 949.424L328.651 950.022L328.85 950.421L329.049 951.019L329.249 951.617L329.647 952.215L329.847 952.814L330.046 953.412L330.445 953.811L330.644 954.409L331.043 955.007L331.442 955.605L331.641 956.004L332.04 956.602L332.439 957.2L332.638 957.599L333.037 958.197L333.436 958.596L333.835 959.194L334.233 959.593L334.632 959.992L335.031 960.59L335.43 960.989L335.828 961.587L336.427 961.986L336.825 962.384L337.224 962.783L337.623 963.182L338.221 963.581L338.62 963.979L339.019 964.578L339.617 964.777L340.016 965.176L340.614 965.574L341.013 965.973L341.611 966.372L342.209 966.771L342.608 966.97L343.206 967.369L343.804 967.768L344.203 967.967L344.801 968.366L345.399 968.565L345.997 968.964L346.396 969.163L346.994 969.562L347.592 969.762L348.19 969.961L348.789 970.16L349.387 970.36L349.985 970.559L350.583 970.759L351.181 970.958L351.779 971.157L352.378 971.357L352.976 971.556L353.574 971.755L354.172 971.955H354.77L355.369 972.154H355.967L356.565 972.354H357.163L357.761 972.553H358.359H359.157L359.755 972.752H360.353H360.951H361.549H362.148H362.746H363.543H364.141L364.74 972.553H365.338H365.936H366.534L367.132 972.354H367.73L368.329 972.154H369.126L369.724 971.955L370.323 971.755L370.921 971.556H371.519L372.117 971.357L372.715 971.157L373.313 970.958L373.912 970.759L374.51 970.559L375.108 970.36L375.706 970.16L376.105 969.762L376.703 969.562L377.301 969.363L377.899 968.964L378.497 968.765L379.096 968.565L379.494 968.166L380.092 967.967L380.691 967.568L381.089 967.17L381.688 966.97L382.286 966.571L382.684 966.173L383.283 965.774L383.681 965.375L384.28 964.976L384.678 964.777L385.277 964.378L385.675 963.78L386.074 963.381L386.672 962.982L387.071 962.584L387.47 962.185L387.869 961.786L388.467 961.188L388.866 960.789L389.264 960.39L389.663 959.792L390.062 959.393L390.461 958.795L390.859 958.397L391.258 957.798L391.458 957.4L391.856 956.801L392.255 956.403L392.654 955.805L392.853 955.206L393.252 954.808L393.451 954.209L393.85 953.611L394.05 953.013L394.448 952.614L394.648 952.016L394.847 951.418L395.246 950.82L395.445 950.222L395.645 949.623L395.844 949.025L396.043 948.427L396.243 947.829L396.442 947.231L396.642 946.633L396.841 946.035V945.436L397.04 944.838L397.24 944.24V943.642L397.439 943.044L397.639 942.446V941.847V941.249L397.838 940.452V939.854V939.255L398.037 938.657V938.059V937.461V936.863Z" stroke="white" stroke-width="2.25" stroke-miterlimit="10" stroke-linecap="round" stroke-linejoin="round"/>
<path d="M786.045 787.721L768.1 773.764L762.518 769.178L760.524 767.583L759.726 766.985L759.128 766.387L758.929 766.187C758.729 765.988 758.729 765.988 758.729 765.988C758.53 765.789 758.53 765.789 758.53 765.789C758.33 765.589 758.33 765.589 758.33 765.589C758.131 765.39 758.131 765.39 758.131 765.39C757.932 765.19 757.932 765.19 757.932 765.19C757.732 764.991 757.732 764.991 757.732 764.991C757.533 764.792 757.533 764.792 757.533 764.792C757.333 764.592 757.333 764.592 757.333 764.592C757.333 764.393 757.134 764.393 757.134 764.393C757.134 764.194 756.935 764.194 756.935 764.194C756.935 763.994 756.735 763.994 756.735 763.994C756.735 763.795 756.536 763.795 756.536 763.795C756.536 763.595 756.337 763.595 756.337 763.595C756.337 763.396 756.137 763.396 756.137 763.396C756.137 763.197 756.137 763.197 756.137 763.197C756.137 762.997 756.137 762.997 756.137 762.997C756.137 762.798 756.137 762.798 756.137 762.798C756.137 762.598 756.137 762.598 756.137 762.598C756.137 762.399 756.137 762.399 756.137 762.399C756.137 762.2 756.137 762.2 756.137 762.2C756.137 762 756.137 762 756.137 762C756.137 761.801 756.137 761.801 756.137 761.801C756.137 761.601 756.137 761.601 756.137 761.601C756.137 761.402 756.137 761.402 756.137 761.402C756.137 761.203 756.137 761.203 756.137 761.203C756.137 761.003 756.137 761.003 756.137 761.003C756.137 760.804 756.137 760.804 756.137 760.804C756.137 760.605 756.137 760.605 756.137 760.605C756.137 760.405 756.137 760.405 756.137 760.405C756.137 760.206 756.137 760.206 756.137 760.206C756.137 760.006 756.137 760.006 756.137 760.006C756.137 759.807 756.137 759.807 756.137 759.807C756.137 759.608 756.137 759.608 756.137 759.608C756.137 759.408 756.137 759.408 756.137 759.408C756.137 759.209 756.137 759.209 756.137 759.209C756.137 759.009 756.137 759.009 756.137 759.009C756.137 758.81 756.137 758.81 756.137 758.81C756.137 758.611 756.137 758.611 756.137 758.611C756.137 758.411 756.137 758.411 756.137 758.411C756.137 758.212 756.137 758.212 756.137 758.212C756.137 758.012 756.137 758.012 756.137 758.012C756.137 757.813 756.137 757.813 756.137 757.813C756.137 757.614 756.137 757.614 756.137 757.614V757.414V757.215C756.137 757.016 756.337 757.016 756.337 757.016C756.337 756.816 756.536 756.816 756.536 756.816C756.735 756.617 756.735 756.617 756.735 756.617C756.935 756.417 756.935 756.417 756.935 756.417C757.134 756.218 757.134 756.218 757.134 756.218C757.334 756.019 757.333 756.019 757.333 756.019C757.533 755.819 757.533 755.819 757.533 755.819C757.732 755.62 757.732 755.62 757.732 755.62C757.932 755.62 757.932 755.42 757.932 755.42C758.131 755.42 758.131 755.221 758.131 755.221H758.33C758.53 755.221 758.53 755.221 758.53 755.221C758.729 755.221 758.729 755.221 758.729 755.221C758.929 755.221 758.929 755.221 758.929 755.221C759.128 755.221 759.128 755.221 759.128 755.221C759.327 755.221 759.327 755.221 759.327 755.221C759.527 755.221 759.527 755.221 759.527 755.221C759.726 755.221 759.726 755.221 759.726 755.221C759.926 755.221 759.925 755.221 759.925 755.221H760.125C760.324 755.221 760.324 755.221 760.324 755.221C760.524 755.221 760.524 755.221 760.524 755.221C760.723 755.221 760.723 755.221 760.723 755.221C760.922 755.221 760.922 755.221 760.922 755.221C761.122 755.221 761.122 755.221 761.122 755.221C761.321 755.221 761.321 755.221 761.321 755.221H761.521H761.72H761.919H762.119H762.318H762.518H762.717H762.916H763.116H763.315H763.514H763.714H763.913H764.113H764.312H764.511H764.711H764.91H765.11H765.309H765.508H765.708H765.907H766.107H766.306H766.505H766.705H766.904H767.104H767.303H767.502H767.702H767.901H768.1H768.3H768.499H768.699H768.898H769.097H769.297H769.496H769.696H769.895H770.094H770.294H770.493H770.692H770.892H771.091H771.291L771.689 755.42L772.088 755.62L772.487 755.819L772.886 756.019L773.284 756.218L773.683 756.417L774.082 756.617L774.481 756.816L774.88 757.016L775.278 757.215L775.677 757.414L776.076 757.614L776.475 757.813L776.873 758.012L777.671 758.611L778.469 759.209L779.266 759.807L780.263 760.405L781.26 761.003L782.257 761.601L783.254 762.2L784.251 762.798L785.447 763.396L786.643 763.994L787.84 764.592L789.036 765.19L791.628 766.387" stroke="white" stroke-width="2.25" stroke-miterlimit="10" stroke-linecap="round" stroke-linejoin="round"/>
<path d="M319.08 816.433L322.669 815.037L326.258 813.642L330.046 812.246L333.635 811.05L337.424 809.853L341.411 808.657L345.2 807.66L349.187 806.464L352.178 805.866L355.169 805.068L358.16 804.47L361.151 803.872L363.942 803.274L366.933 802.675L369.724 802.277L372.516 801.878L375.108 801.479H376.504L377.899 801.28L379.295 801.08H380.491L381.887 800.881H383.083L384.479 800.681H385.675H387.071H388.267H389.464H390.859H392.056H393.252H394.448H395.645L396.841 800.881H398.037L399.234 801.08H400.43L401.626 801.28L402.823 801.479L404.019 801.678H405.016L406.212 802.077L407.409 802.277L408.605 802.476L409.602 802.675L410.798 803.074L411.795 803.274L412.991 803.672L413.988 803.872L415.185 804.27L416.182 804.669L417.378 805.068L418.375 805.467L419.571 805.866L420.568 806.264L421.565 806.663L422.562 807.261L423.758 807.66L424.755 808.258L425.752 808.657L426.749 809.255L427.746 809.853L428.743 810.451L429.74 810.85L430.737 811.448L431.734 812.047L432.731 812.645L433.728 813.043L434.725 813.442L435.722 814.04L436.719 814.439L437.716 814.838L438.712 815.237L439.909 815.635L440.906 816.034L441.903 816.433L442.9 816.832L443.896 817.031L444.893 817.43L445.89 817.629L446.887 817.829L447.884 818.228L448.881 818.427L449.878 818.626L451.074 818.826H451.473L452.071 819.025H452.47H453.068L453.467 819.225H454.065H454.663L455.062 819.424H455.66H456.059H456.657L457.056 819.623H457.654H458.252H458.651H459.249H459.648H460.246H460.844H461.243H519.464H637.103H637.502H637.9H638.499H638.897H639.296H639.695H640.094H640.493L640.891 819.424H641.29H641.689H642.088L642.686 819.225H643.085H643.483H643.882L644.281 819.025H644.68L645.078 818.826H645.477H645.876L646.275 818.626H646.873L647.272 818.427L647.67 818.228H648.069L648.468 818.028H648.867L649.266 817.829H649.664L650.063 817.629L650.661 817.43L651.06 817.231H651.459L651.858 817.031L652.256 816.832L652.655 816.632H653.054L653.453 816.433L653.851 816.234L654.848 815.835L655.646 815.436L656.444 815.037L657.241 814.639L658.039 814.24L659.036 813.841L659.833 813.442L660.631 812.844L661.428 812.445L662.425 811.847L663.223 811.249L664.02 810.85L664.818 810.252L665.815 809.654L666.612 809.255L667.41 808.657L668.407 808.258L669.204 807.66L670.201 807.261L670.999 806.862L671.996 806.264L672.793 805.866L673.79 805.467L674.787 805.068L675.585 804.669L676.582 804.27L677.579 803.872L678.576 803.672L679.572 803.274L680.569 802.875L681.566 802.675L682.563 802.277L683.56 802.077L684.557 801.678L685.554 801.479L686.551 801.28L687.747 801.08L688.744 800.881L689.741 800.681L690.938 800.482L691.934 800.283L693.131 800.083L694.128 799.884H695.324L697.517 799.485L699.711 799.286L701.904 799.086H704.097L706.29 798.887H708.484H710.677H712.671H713.867H714.864L716.06 799.086H717.057H718.054H719.251L720.248 799.286H721.244L722.441 799.485H723.438L724.435 799.685L725.432 799.884H726.628L727.625 800.083L728.622 800.283L729.619 800.482H730.815L731.812 800.681L732.809 801.08L734.005 801.28L735.002 801.479L736.199 801.678L737.395 802.077L738.591 802.476L739.588 802.675L740.784 803.074L741.981 803.473L743.376 803.872L744.573 804.27L745.769 804.869L746.965 805.267L748.361 805.666L749.557 806.264L750.953 806.862L752.15 807.261L753.545 807.859L756.337 809.056L759.128 810.451L761.919 811.847L764.711 813.243L767.702 814.838L770.693 816.433" stroke="white" stroke-width="2.25" stroke-miterlimit="10" stroke-linecap="round" stroke-linejoin="round"/>
<path d="M793.822 845.544H782.257V898.78H793.822V845.544Z" stroke="white" stroke-width="2.25" stroke-miterlimit="10" stroke-linecap="round" stroke-linejoin="round"/>
<path d="M793.821 894.792H800.8V876.847H793.821" stroke="white" stroke-width="2.25" stroke-miterlimit="10" stroke-linecap="round" stroke-linejoin="round"/>
<path d="M286.58 876.847H280V894.792H286.58" stroke="white" stroke-width="2.25" stroke-miterlimit="10" stroke-linecap="round" stroke-linejoin="round"/>
<path d="M298.144 851.525H286.58V898.78H298.144V851.525Z" stroke="white" stroke-width="2.25" stroke-miterlimit="10" stroke-linecap="round" stroke-linejoin="round"/>
<path d="M298.144 894.792H304.325" stroke="white" stroke-width="2.25" stroke-miterlimit="10" stroke-linecap="round" stroke-linejoin="round"/>
<path d="M323.267 876.847H298.144" stroke="white" stroke-width="2.25" stroke-miterlimit="10" stroke-linecap="round" stroke-linejoin="round"/>
<path d="M771.889 894.792H782.257" stroke="white" stroke-width="2.25" stroke-miterlimit="10" stroke-linecap="round" stroke-linejoin="round"/>
<path d="M782.257 876.847H752.947" stroke="white" stroke-width="2.25" stroke-miterlimit="10" stroke-linecap="round" stroke-linejoin="round"/>
<path d="M613.974 932.676V883.228L638.299 856.909" stroke="white" stroke-width="2.25" stroke-miterlimit="10" stroke-linecap="round" stroke-linejoin="round"/>
<path d="M687.747 870.467L681.965 856.909" stroke="white" stroke-width="2.25" stroke-miterlimit="10" stroke-linecap="round" stroke-linejoin="round"/>
<path d="M432.332 949.424H643.882" stroke="white" stroke-width="2.25" stroke-miterlimit="10" stroke-linecap="round" stroke-linejoin="round"/>
<path d="M432.332 932.676H642.885" stroke="white" stroke-width="2.25" stroke-miterlimit="10" stroke-linecap="round" stroke-linejoin="round"/>
<path d="M619.756 876.847H400.829" stroke="white" stroke-width="2.25" stroke-miterlimit="10" stroke-linecap="round" stroke-linejoin="round"/>
<path d="M742.18 854.915V871.065" stroke="white" stroke-width="2.25" stroke-miterlimit="10" stroke-linecap="round" stroke-linejoin="round"/>
<path d="M723.836 866.081V856.909" stroke="white" stroke-width="2.25" stroke-miterlimit="10" stroke-linecap="round" stroke-linejoin="round"/>
<path d="M363.344 856.909V865.482" stroke="white" stroke-width="2.25" stroke-miterlimit="10" stroke-linecap="round" stroke-linejoin="round"/>
<path d="M345 867.476V853.519" stroke="white" stroke-width="2.25" stroke-miterlimit="10" stroke-linecap="round" stroke-linejoin="round"/>
<path d="M442.102 932.675V906.556L463.436 876.847H536.811L554.756 904.163V932.675" stroke="white" stroke-width="2.25" stroke-miterlimit="10" stroke-linecap="round" stroke-linejoin="round"/>
<path d="M419.771 894.792H450.476" stroke="white" stroke-width="2.25" stroke-miterlimit="10" stroke-linecap="round" stroke-linejoin="round"/>
<path d="M548.575 894.792H613.974" stroke="white" stroke-width="2.25" stroke-miterlimit="10" stroke-linecap="round" stroke-linejoin="round"/>
<path d="M662.824 507.581L667.41 515.158L671.597 521.937L675.385 527.919L677.18 530.511L678.775 532.904L680.37 535.097L681.766 537.091L683.161 538.885L683.759 539.683L684.358 540.48L684.956 541.278L685.554 542.076L686.152 542.674L686.352 543.072L686.551 543.272L686.75 543.471L686.95 543.671L687.149 543.87L687.349 544.069L687.548 544.269L687.747 544.468L687.947 544.668C688.146 544.668 688.146 544.867 688.146 544.867L688.345 545.066L688.545 545.266L688.744 545.465L688.944 545.664L689.143 545.864L689.342 546.063L689.542 546.263L689.741 546.462L689.941 546.661L690.14 546.861L690.339 547.06L690.539 547.26L690.738 547.459L690.937 547.658L691.137 547.858L691.336 548.057L691.536 548.257L691.735 548.456L691.934 548.655L692.134 548.855L692.333 549.054L692.533 549.253L692.732 549.453L692.931 549.652L693.131 549.852L693.33 550.051L693.53 550.25L693.729 550.45L693.928 550.649L694.128 550.849H694.327H694.526H694.726H694.925H695.125H695.324H695.723H696.122H696.52H696.919H697.318H697.717H698.115H698.514H698.913H699.312H699.71H700.109H700.508H700.907H701.306H701.704H702.103H702.502H702.901H703.3H704.097H704.895H705.692H706.49H763.714" stroke="white" stroke-width="2.25" stroke-miterlimit="10" stroke-linecap="round" stroke-linejoin="round"/>
<path d="M742.778 507.382L325.062 508.379" stroke="white" stroke-width="2.25" stroke-miterlimit="10" stroke-linecap="round" stroke-linejoin="round"/>
<path d="M325.36 505.345L325.645 505.002L325.931 504.66L326.296 504.501L326.582 504.158L326.868 503.816L327.416 503.577L327.702 503.234L328.067 503.075L328.432 502.915L328.718 502.573L329.084 502.413L329.552 501.991L329.917 501.832L330.283 501.672L330.648 501.512L331.117 501.09L331.482 500.931L331.848 500.771L332.213 500.612L332.761 500.372L333.127 500.213L333.492 500.053L334.04 499.814L334.406 499.654L334.771 499.495L335.319 499.255L335.685 499.096L336.05 498.936L336.599 498.697L337.044 498.72L337.409 498.56L337.957 498.321L340.492 497.649L343.027 496.977L345.562 496.306L348.177 495.816L350.895 495.065L353.51 494.576L356.387 494.19L359.185 493.621L362.245 493.155L365.122 492.769L368.182 492.303L371.139 492.1L374.279 491.816L377.602 491.453L380.742 491.17L384.144 490.99L387.729 490.73L392.205 490.516L403.302 490.022L434.871 489.074L633.721 485.574L675.427 485.421L682.837 485.449L684.435 485.622L685.953 485.611L687.472 485.601L688.887 485.853L690.406 485.843L692.004 486.015L693.34 486.085L694.755 486.337L696.354 486.509L697.689 486.579L699.288 486.751L700.703 487.003L702.119 487.255L703.534 487.507L704.95 487.76L706.365 488.012L707.86 488.447L709.276 488.699L710.691 488.951L712.187 489.386L713.42 489.718L714.915 490.153L716.33 490.405L717.643 490.92L719.058 491.172L720.371 491.687L721.866 492.122L723.179 492.636L724.674 493.071L725.987 493.586L727.299 494.101L728.612 494.615L729.137 494.821L729.662 495.027L730.187 495.233L730.529 495.519L731.054 495.725L731.579 495.93L732.104 496.136L732.447 496.422L732.972 496.628L733.497 496.834L733.839 497.119L734.444 497.508L734.786 497.794L735.311 497.999L735.654 498.285L736.179 498.491L736.601 498.959L737.126 499.165L737.468 499.451L738.073 499.84L738.415 500.125L738.757 500.411L739.362 500.8L739.705 501.085L740.127 501.554L740.469 501.839L741.074 502.228L741.416 502.513L741.838 502.982L742.18 503.268L742.603 503.736L742.945 504.022L325.36 505.345Z" stroke="white" stroke-width="2.25" stroke-miterlimit="10" stroke-linecap="round" stroke-linejoin="round"/>
<path d="M742.778 507.382L743.177 507.781L743.576 508.18L743.975 508.578L744.373 508.977L744.772 509.376L745.171 509.775L745.57 510.174L745.968 510.572L746.367 510.971L746.766 511.37L747.165 511.769L747.564 512.167L747.962 512.566L748.361 512.965L748.959 513.763L749.557 514.56L750.156 515.358L750.754 516.155L751.352 516.953L751.95 517.95L752.548 518.947L753.146 519.944L753.745 520.94L754.343 521.937L754.941 522.934L755.539 523.931L756.137 524.928L756.735 525.925L757.334 526.922L757.732 527.919L758.131 529.115L758.53 530.312L758.929 531.508L759.327 532.704L759.726 533.901L760.125 535.097L760.524 536.293L760.923 537.49L761.321 538.686L761.72 539.683L762.119 540.68L762.518 541.677L762.916 542.873L763.515 545.266L764.113 547.658L764.711 550.25L765.309 552.842L765.907 555.634L766.505 558.625L767.104 561.616L767.702 564.806L768.898 571.585L770.094 578.962L771.291 586.738L772.487 595.113L773.683 603.886L776.076 623.027L778.469 644.361L787.441 742.859L789.236 763.994L789.634 770.374L789.834 772.567V773.365V773.963V774.163V774.362V774.561V774.761V774.96V775.159V775.359V775.558V775.758V775.957V776.156V776.356V776.555V776.755V776.954V777.153V777.353V777.552V777.751V777.951V778.15V778.35V778.549V778.748V778.948V779.347L789.634 779.945L789.435 780.543L789.236 781.141L789.036 781.739L788.837 782.337L788.637 782.936L788.438 783.534L788.239 784.132L788.039 784.73L787.84 785.328L787.64 785.926L787.441 786.525L787.242 787.123L787.042 787.721L786.644 788.319L786.245 788.917L785.846 789.515L785.447 790.113L785.048 790.712L769.097 820.42L764.312 829.193L762.119 832.982L760.125 836.571L758.331 839.761L756.536 842.552L755.738 843.749L754.941 844.945L754.143 845.942L753.545 846.939C753.545 847.138 753.346 847.138 753.346 847.138C753.346 847.338 753.146 847.338 753.146 847.338C753.146 847.537 752.947 847.537 752.947 847.537C752.947 847.736 752.748 847.736 752.748 847.736C752.548 847.936 752.548 847.936 752.548 847.936C752.349 848.135 752.349 848.135 752.349 848.135C752.149 848.335 752.15 848.335 752.15 848.335C751.95 848.534 751.95 848.534 751.95 848.534C751.751 848.733 751.751 848.733 751.751 848.733C751.551 848.933 751.551 848.933 751.551 848.933C751.352 849.132 751.352 849.132 751.352 849.132C751.153 849.132 751.153 849.332 751.153 849.332C750.953 849.332 750.953 849.531 750.953 849.531H750.754H750.554H750.355H750.156H749.956H749.757H749.557H749.358H749.159H748.959H748.76H748.56H748.361H748.162H747.962H747.763H747.564H747.364L746.965 849.73L746.567 849.93L746.168 850.129L745.769 850.329L745.37 850.528L744.971 850.727L744.573 850.927L744.174 851.126L743.775 851.325L743.376 851.525L742.978 851.724L742.579 851.924L742.18 852.123L741.781 852.322L741.183 852.522H740.585H739.987H739.389H738.791H738.192H737.594H736.996L735.8 852.721L734.603 852.921L733.407 853.12H732.211H730.815H729.419H728.024H726.628H725.232H723.836H362.945H362.347H361.749H361.151H360.553H359.954H359.356H358.758H358.16H357.562H356.964H356.365H355.767H355.169H354.571H353.973H353.375L352.776 852.921L352.178 852.721L351.58 852.522L350.982 852.322L350.384 852.123L349.786 851.924L349.387 851.724L348.988 851.525L348.589 851.325L348.191 851.126L347.792 850.927L347.393 850.727L346.994 850.528L346.595 850.329L346.197 850.129L345.798 849.93L345.599 849.73L345.399 849.531L345.2 849.332L345 849.132L344.801 848.933L344.602 848.733L344.402 848.534L344.203 848.335L344.003 848.135L343.804 847.936L343.605 847.736L343.405 847.537L343.206 847.338L343.006 847.138L342.807 846.939L342.608 846.74L342.408 846.54L342.209 846.341L342.01 846.141L341.81 845.942L341.611 845.743L341.411 845.543L341.212 845.344L341.013 845.144L340.813 844.945L340.614 844.746L340.414 844.546L340.215 844.347L340.016 844.147L339.816 843.948L339.617 843.749L339.418 843.549L339.218 843.35L339.019 843.151L338.819 842.951L338.62 842.752L338.421 842.552L338.221 842.353L338.022 842.154L337.822 841.954L337.623 841.755L337.424 841.555L337.224 841.356L337.025 841.157L336.825 840.957L336.626 840.758L336.427 840.559L336.227 840.359L336.028 840.16L335.828 839.96L335.629 839.761L335.43 839.562L335.23 839.362L335.031 839.163L334.832 838.963L334.632 838.764L334.433 838.565L334.233 838.365L334.034 838.166L333.835 837.966L333.635 837.767L333.436 837.568L333.236 837.368L333.037 837.169L311.703 800.681L309.908 797.69L308.313 794.899L306.718 792.107L305.322 789.515L303.926 786.923L302.73 784.531L302.132 783.334L301.534 782.138L300.936 780.942L300.537 779.745L300.138 778.748L299.739 777.751L299.341 776.755L298.942 775.758L298.543 774.761L298.144 773.764L297.746 772.767L297.347 771.77L297.147 770.773L296.948 770.374L296.749 769.975L296.549 769.577L296.35 769.178L296.15 768.779V768.38V767.981V767.583V767.184V766.785V766.386V765.988V765.589V765.19V764.791V764.393V763.994V763.595V762.997V762.399V761.202V760.006V758.61V755.42V751.632V747.445L296.35 737.475L297.347 711.754L299.141 678.058L305.322 574.974L305.92 567.996L306.519 561.217" stroke="white" stroke-width="2.25" stroke-miterlimit="10" stroke-linecap="round" stroke-linejoin="round"/>
<path d="M322.868 507.183L322.669 507.382L322.47 507.582L322.27 507.781L322.071 507.98L321.871 508.18L321.672 508.379L321.473 508.578L321.273 508.778L321.074 508.977L320.874 509.177L320.675 509.376L320.476 509.575L320.276 509.775L320.077 509.974L319.877 510.174L319.678 510.373L319.479 510.572L319.279 510.971L319.08 511.37L318.881 511.769L318.681 512.167L318.482 512.566L318.282 512.965L318.083 513.364L317.884 513.763L317.684 514.161L317.485 514.56L317.285 514.959L317.086 515.358L316.887 515.756L316.687 516.155L316.488 516.554L316.289 516.953L316.089 517.352L315.89 517.75L315.69 518.149L315.491 518.548L315.292 518.947L315.092 519.345L314.893 519.744L314.693 520.143L314.494 520.542L314.295 520.941L314.095 521.339L313.896 521.738L313.697 522.137L313.497 522.536L313.298 522.934L313.098 523.333L312.899 523.732L312.7 524.53L312.5 525.327L312.301 526.125L312.101 526.922L311.902 527.72L311.703 528.717L311.503 529.714L310.706 534.1L309.908 538.487L309.31 542.873L308.712 547.459L308.114 551.447L307.516 555.634L306.519 564.008L305.721 572.582L305.123 581.355L298.942 684.438L297.147 718.932L296.15 745.052L295.951 754.423V758.411V762V764.991V766.386V767.583V768.779V769.377V769.776V770.175V770.574V770.972V771.371V771.77V772.169V772.567V772.966V773.365V773.764V774.163V774.561V774.96L296.15 775.359L296.35 775.758L296.549 776.156L296.749 776.555L296.948 776.954L297.147 777.951L297.546 778.948L297.945 779.945L298.344 780.942L298.742 781.939L299.141 782.936L299.54 783.933L299.939 784.929L300.338 785.926L300.736 787.123L301.334 788.319L301.933 789.515L302.531 790.712L303.727 793.104L305.123 795.696L306.519 798.288L308.114 801.08L309.709 803.871L311.503 806.862L316.687 815.436L332.838 843.151L333.037 843.35L333.236 843.549L333.436 843.749L333.635 843.948L333.835 844.148L334.034 844.347L334.233 844.546L334.433 844.746L334.632 844.945L334.832 845.145L335.031 845.344L335.23 845.543L335.43 845.743L335.629 845.942L335.828 846.141L336.028 846.341L336.227 846.54L336.427 846.74L336.626 846.939L336.825 847.138L337.025 847.338L337.224 847.537L337.424 847.736L337.623 847.936L337.822 848.135L338.022 848.335L338.221 848.534L338.421 848.733L338.62 848.933L338.819 849.132L339.019 849.332L339.218 849.531L339.418 849.73L339.617 849.93L337.424 852.721L337.623 852.921L337.822 853.12L338.022 853.319L338.221 853.519L338.421 853.718L338.62 853.918L338.819 854.117L339.019 854.316L339.218 854.516L339.418 854.715L339.617 854.914L339.816 855.114L340.016 855.313L340.215 855.513L340.414 855.712L340.614 855.911L340.813 856.111L341.013 856.31L341.212 856.51L341.411 856.709L341.611 856.908L341.81 857.108L342.01 857.307L342.408 857.507L342.807 857.706L343.206 857.905V871.862L342.608 872.062L342.01 872.261L341.411 872.461L340.813 872.66L340.215 872.859L339.617 873.059L339.019 873.258L338.421 873.457L337.822 873.657L337.224 873.856L336.626 874.056L336.028 874.255L335.43 874.454L334.832 874.654L334.233 874.853L333.635 875.053L333.037 875.252L332.439 875.651L331.841 876.05L331.243 876.448L330.644 876.847L330.046 877.246L329.448 877.645L328.85 878.043L328.252 878.442L327.654 878.841L327.056 879.24L326.457 879.639L325.859 880.037L325.261 880.436L324.663 880.835L324.065 881.234H298.942V855.911H287.377V881.234H280.798V899.178H287.377V902.967H298.942V899.178H305.123L304.724 899.777L304.325 900.375L303.927 900.973L303.528 901.571L303.129 902.169L302.73 902.767L302.331 903.366L301.933 903.964L301.534 904.562L301.135 905.16L300.736 905.758L300.338 906.356L299.939 906.955L299.54 907.553L299.141 908.151L298.742 908.749L298.344 909.347L297.945 909.945L297.546 910.544L297.147 911.142L296.948 911.74L296.749 912.338L296.549 912.936L296.35 913.534L296.15 914.133L295.951 914.731L295.752 915.329L295.552 915.927L295.353 916.525L295.154 917.123L294.954 917.722L294.755 918.32L294.555 918.918L294.356 919.516L294.157 920.114L293.957 920.712L293.758 921.31L293.558 921.909L293.359 922.507L293.16 923.105L292.96 923.703L292.761 924.301L292.562 924.899L292.362 925.498L292.163 926.096L291.963 926.694L291.764 927.292L291.565 927.89V928.488V929.087V929.685V930.283V930.881V931.479V932.077V932.676V933.274V933.872V934.47V935.068V935.666V936.264V936.863V937.461V938.258V939.056V939.854V940.651V941.449V942.246V943.044V943.841V944.639V945.436V946.234L291.764 947.031L291.963 947.829L292.163 948.627L292.362 949.424L292.562 950.222L292.761 951.019L292.96 951.817L293.16 952.614L293.359 953.412L293.558 954.209L293.758 955.007L293.957 955.805L294.157 956.602L294.356 957.4L294.555 958.197L294.755 958.995L294.954 959.792L295.154 960.59L295.353 961.387L295.752 962.185L296.15 962.982L296.549 963.78L296.948 964.578L297.347 965.375L297.746 966.173L298.144 966.97L298.543 967.768L298.942 968.565L299.341 969.363L299.739 970.16L300.138 970.958L300.537 971.756L300.936 972.553L301.334 973.351L301.733 974.148L302.132 974.946L302.531 975.743L303.129 976.541L303.727 977.338L304.325 978.136L304.923 978.934L305.522 979.731L306.12 980.529L306.718 981.326L307.316 982.124L307.914 982.921L308.513 983.719L309.111 984.317L309.709 984.915L310.307 985.513L310.905 986.111L311.503 986.71L312.101 987.308L312.7 987.906L313.298 988.504L313.896 989.102L314.494 989.7L315.092 990.299L315.69 990.897L316.488 991.495L317.285 992.093L318.083 992.691L318.881 993.289L319.678 993.888L320.476 994.486L321.273 995.084L322.071 995.682L322.868 996.28L323.666 996.878L324.464 997.277L325.261 997.676L326.059 998.075L326.856 998.473L327.654 998.872L328.451 999.271L329.249 999.67L330.046 1000.07L330.844 1000.47L331.641 1000.87L332.439 1001.26L333.236 1001.66L334.034 1002.06L334.832 1002.46L335.629 1002.86L336.427 1003.26L337.224 1003.66L338.022 1004.06L338.819 1004.26L339.617 1004.46L340.414 1004.65L341.212 1004.85L342.01 1005.05L342.807 1005.25L343.605 1005.45L344.402 1005.65L345.2 1005.85L345.997 1006.05L346.795 1006.25L347.592 1006.45L348.39 1006.65L349.187 1006.85L349.985 1007.05L350.783 1007.25L351.58 1007.45L350.783 1007.84L351.58 1008.04H352.378H353.175H353.973H354.77H355.568H356.365H357.163H357.961H358.758H359.556H360.353H360.951H361.55H362.347H363.145H363.942H364.74H365.537H366.335H367.132H367.93H368.727H369.525H370.323H371.12L371.918 1007.84L372.715 1007.65L373.513 1007.45L374.31 1007.25L375.108 1007.05L375.905 1006.85L376.703 1006.65L377.501 1006.45L378.298 1006.25L379.096 1006.05L379.893 1005.85L380.691 1005.65L381.488 1005.45L381.289 1005.05L382.086 1004.85L382.884 1004.65L383.681 1004.46L384.479 1004.26L385.277 1004.06L386.074 1003.86L386.872 1003.66L387.669 1003.46L388.467 1003.26L389.264 1003.06L390.062 1002.66L390.859 1002.26L391.657 1001.86L392.455 1001.46L393.252 1001.07L394.05 1000.67L394.847 1000.27L395.645 999.869L396.442 999.47L397.04 999.072L397.639 998.673L398.237 998.274L398.835 997.875L399.433 997.477L400.031 997.078L400.629 996.679L401.228 996.28L401.826 995.881L402.424 995.483L403.022 995.084L403.62 994.685L404.218 994.286L404.817 993.888L405.415 993.489L406.013 992.891L406.611 992.292L407.209 991.694L407.807 991.096L408.406 990.498L409.004 989.9L409.602 989.302L410.2 988.703L410.798 988.105L411.396 987.507L411.995 986.909L412.593 986.311L413.191 985.713L413.789 985.114L414.387 984.516L414.985 983.918L415.583 983.32L416.182 982.722L416.78 982.124L417.378 981.525L417.976 980.927L418.574 980.329L418.973 979.731L419.372 979.133L419.771 978.535L420.169 977.937L420.568 977.338L420.967 976.74L421.366 976.142L421.765 975.544L422.163 974.946L422.562 974.347L422.961 973.749L423.36 973.151L423.758 972.553L424.157 971.955L424.556 971.157L424.955 970.36L425.353 969.562L425.752 968.765L426.151 967.967L426.55 967.17L426.949 966.372L427.347 965.575L427.945 966.173L428.344 965.375L428.544 964.578L428.743 963.78L428.942 962.982L429.142 962.185L429.341 961.387L429.541 960.59L429.74 959.792L429.939 958.995L430.139 958.197L430.338 957.4L430.538 956.602L430.737 955.805L430.936 955.007L431.136 954.209L431.335 953.412L431.534 952.614L431.734 951.817L431.933 951.019L432.133 950.222L432.332 949.424V942.445H642.287L642.486 943.243L642.686 944.041L642.885 944.838L643.085 945.636L643.284 946.433L643.483 947.231L643.683 948.028L643.882 948.826L644.082 949.623L644.281 950.421L644.48 951.219L644.68 952.016L644.879 952.814L645.078 953.611L645.278 954.409L645.477 955.206L645.677 956.004L645.876 956.801L646.075 957.599L646.275 958.397L646.674 959.194L647.072 959.992L647.471 960.789L647.87 961.587L648.269 962.384L648.667 963.182L649.066 963.979L649.465 964.777L649.864 965.575L650.262 966.372L650.661 966.97L651.06 967.568L651.459 968.166L651.858 968.765L652.256 969.363L652.655 969.961L653.054 970.559L653.453 971.157L653.851 971.756L654.25 972.354L654.649 972.952L655.048 973.55L655.447 974.148L655.845 974.746L656.444 975.344L657.042 975.943L657.64 976.541L658.238 977.139L658.836 977.737L659.434 978.335L660.033 978.934L660.631 979.532L661.229 980.13L661.827 980.728L662.425 981.326L663.023 981.924L663.621 982.522L664.22 983.121L664.818 983.719L665.416 984.317L666.014 984.915L666.612 985.513L667.21 986.111L667.809 986.71L668.407 987.308L669.005 987.906L669.603 988.305L670.201 988.703L670.799 989.102L671.398 989.501L671.996 989.9L672.594 990.299L673.192 990.697L673.79 991.096L674.388 991.495L674.987 991.894L675.585 992.292L676.183 992.691L676.781 993.09L677.379 993.489L677.977 993.888L678.775 994.286L679.572 994.685L680.37 995.084L681.168 995.483L681.965 995.881L682.763 996.28L683.56 996.679L684.358 997.078L685.155 997.477L685.953 997.676L686.75 997.875L687.548 998.075L688.346 998.274L689.143 998.473L689.941 998.673L690.738 998.872L691.536 999.072L692.333 999.271L693.131 999.47L693.928 999.67L694.726 999.869L695.523 1000.07L696.321 1000.27L697.118 1000.47L697.916 1000.67L698.714 1000.87L699.511 1001.07L700.309 1001.26L701.106 1001.46L701.904 1001.66L702.701 1001.86L703.499 1002.06L704.297 1002.26H705.094H705.892H706.689H707.487H708.284H709.082H709.879H710.677H711.474H712.272H713.07H713.867H714.465H715.063H715.861H716.658H717.456H718.254H719.051H719.849H720.646H721.444H722.241H723.039H723.836L724.634 1002.06L725.432 1001.86L726.229 1001.66L727.027 1001.46L727.824 1001.26L728.622 1001.07L729.419 1000.87L730.217 1000.67L731.014 1000.47L731.812 1000.27L732.609 1000.07L733.407 999.869L734.205 999.67L735.002 999.47L735.8 999.271L736.597 999.072L737.395 998.872L738.192 998.673L738.99 998.473L739.787 998.075L740.585 997.676L741.383 997.277L742.18 996.878L742.978 996.48L743.775 996.081L744.573 995.682L745.37 995.283L746.168 994.884L746.965 994.486L747.763 994.087L748.56 993.688L749.358 993.289L750.156 992.891L750.953 992.492L751.751 992.093L752.548 991.694L753.346 991.295L754.143 990.697L754.941 990.099L755.738 989.501L756.536 988.903L757.334 988.305L758.131 987.706L758.929 987.108L759.726 986.51L760.524 985.912L761.321 985.314L761.919 984.716L762.518 984.117L763.116 983.519L763.714 982.921L764.312 982.323L764.91 981.725L765.508 981.127L766.107 980.529L766.705 979.93L767.303 979.332L767.901 978.734L768.499 978.136L769.097 977.338L769.696 976.541L770.294 975.743L770.892 974.946L771.49 974.148L772.088 973.351L772.686 972.553L773.285 971.756L773.883 970.958L774.481 970.16L774.88 969.363L775.278 968.565L775.677 967.768L776.076 966.97L776.475 966.173L776.873 965.375L777.272 964.578L777.671 963.78L778.07 962.982L778.469 962.185L778.867 961.387L779.266 960.59L779.665 959.792L780.064 958.995L780.462 958.197L780.861 957.4L781.26 956.602L781.659 955.805L781.858 955.007L782.058 954.209L782.257 953.412L782.456 952.614L782.656 951.817L782.855 951.019L783.055 950.222L783.254 949.424L783.453 948.627L783.653 947.829L783.852 947.031L784.052 946.234L784.251 945.436L784.45 944.639L784.65 943.841L784.849 943.044L785.048 942.246L785.248 941.449L785.447 940.651V939.854V939.056V938.258V937.461V936.663V935.866V935.068V934.271V933.473V932.676V931.878V931.28V930.682V930.084V929.485V928.887V928.289V927.691V927.093V926.495V925.896V925.298V924.7V924.102V923.504V922.906V922.307L785.248 921.709L785.048 921.111L784.849 920.513L784.65 919.915L784.45 919.317L784.251 918.718L784.052 918.12L783.852 917.522L783.653 916.924L783.453 916.326L783.254 915.728L783.055 915.129L782.855 914.531L782.656 913.933L782.456 913.335L782.257 912.737L782.058 912.139L781.858 911.54L781.659 910.942L781.459 910.344L781.26 909.746L781.061 909.148L780.861 908.55L780.662 907.952L780.462 907.353L780.263 906.755L780.064 906.157L779.864 905.559L779.465 904.961L779.067 904.363L778.668 903.764L778.269 903.166L777.87 902.568L777.472 901.97L777.073 901.372L776.674 900.774L776.275 900.175L775.877 899.577L775.478 898.979L775.079 898.381L774.68 897.783L774.281 897.185L773.883 896.586L773.484 895.988L773.085 895.39L772.686 894.792L772.288 894.194L771.889 893.596H782.257V897.384H793.821V893.596H800.601V875.651H793.821V844.347H782.257V875.651H749.956L749.358 875.252L748.76 874.853L748.162 874.454L747.564 874.056L746.965 873.657L746.367 873.258L745.769 872.859L745.171 872.461L744.573 872.062L743.975 871.663L743.376 871.264L742.778 870.865L742.18 870.467L741.582 870.068L740.984 869.669L740.386 869.47V853.319L740.784 853.12L741.183 852.921L741.582 852.721L741.981 852.522L742.379 852.322L742.778 852.123L743.177 851.924L743.576 851.724L743.975 851.525L744.373 851.326H744.573H744.772H744.971H745.171H745.37H745.57H745.769H745.968H746.168H746.367H746.567H746.766H746.965H747.165H747.364H747.564C747.564 851.326 747.564 851.126 747.763 851.126C747.763 851.126 747.763 850.927 747.962 850.927C747.962 850.927 747.962 850.727 748.162 850.727C748.162 850.727 748.162 850.528 748.361 850.528C748.361 850.528 748.361 850.528 748.56 850.329C748.56 850.329 748.561 850.329 748.76 850.129C748.76 850.129 748.76 850.129 748.959 849.93C748.959 849.93 748.959 849.93 749.159 849.73C749.159 849.73 749.159 849.73 749.358 849.531C749.358 849.531 749.358 849.531 749.557 849.332C749.557 849.332 749.757 849.332 749.757 849.132C749.757 849.132 749.956 849.132 749.956 848.933C749.956 848.933 750.156 848.933 750.156 848.733C750.156 848.733 750.355 848.733 750.355 848.534L750.953 847.537L751.751 846.54L752.548 845.344L753.346 844.148L755.14 841.356L756.935 838.166L758.929 834.577L761.122 830.789L765.907 822.016L769.097 816.034L781.858 792.506L782.257 791.908L782.656 791.31L783.055 790.712L783.453 790.114L783.852 789.515L784.052 788.917L784.251 788.319L784.45 787.721L784.65 787.322L784.849 786.923L785.048 786.525L785.248 786.126L785.447 785.727L785.647 785.328L785.846 784.929L786.045 784.531L786.245 784.132L786.444 783.733L786.644 783.334L786.843 782.936L787.042 782.537L787.242 782.138L787.441 781.739V781.341V780.942V780.543V780.144V779.745V779.347V778.948V778.549V778.15V777.751V777.353V776.954V776.555V776.156V775.758V775.359V774.96V774.561V774.163V773.166L787.242 770.574L786.245 757.215L776.475 649.346L774.68 631.401L772.686 614.852L770.693 599.699L768.699 585.941L767.702 579.56L766.705 573.579L765.708 567.996L764.711 562.612L763.714 557.628L763.116 555.235L762.518 553.042L762.119 551.247L761.72 549.453L761.321 547.658L760.922 545.864L760.524 544.269L760.125 542.674L759.726 541.079L759.327 539.683L758.929 538.487L758.53 537.29L758.131 536.094L757.732 534.898L757.334 533.701L756.935 532.505L756.536 531.309L756.137 530.112L755.738 528.916L755.34 527.919L754.742 526.922L754.143 525.925L753.545 524.928L752.947 523.931L752.349 522.934L751.751 521.937L751.153 520.941L750.554 519.944L749.956 518.947L749.358 517.95L748.76 517.152L748.162 516.355L747.564 515.557L746.965 514.759L746.367 513.962L745.968 513.563L745.57 513.164L745.171 512.766L744.772 512.367L744.373 511.968L743.975 511.569L743.576 511.171L743.177 510.772L742.778 510.373L742.379 509.974L741.981 509.575L741.582 509.177L741.183 508.778L740.784 508.379" stroke="white" stroke-width="3.25" stroke-miterlimit="10" stroke-linecap="round" stroke-linejoin="round"/>
<path d="M356.8 494.531V71.0307" stroke="white" stroke-width="3"/>
<path fill-rule="evenodd" clip-rule="evenodd" d="M542.554 761.717C588.148 761.717 625.109 724.757 625.109 679.163C625.109 633.569 588.148 596.609 542.554 596.609C496.961 596.609 460 633.569 460 679.163C460 724.757 496.961 761.717 542.554 761.717ZM542.64 731.06C571.255 731.06 594.451 707.863 594.451 679.249C594.451 650.635 571.255 627.438 542.64 627.438C514.026 627.438 490.83 650.635 490.83 679.249C490.83 707.863 514.026 731.06 542.64 731.06Z" fill="white"/>
<path d="M358 258.061L533.5 164.531L358 71" stroke="white" stroke-width="3"/>
</g>
<defs>
<clipPath id="clip0">
<rect width="1080" height="1080" fill="white"/>
</clipPath>
</defs>
</svg>
