<svg width="1080" height="1080" viewBox="0 0 1080 1080" fill="none" xmlns="http://www.w3.org/2000/svg">
<path d="M222.315 458.842L220.829 458.634L220.829 458.634L222.315 458.842ZM189.834 560.761L188.443 560.2L187.718 562.001L189.643 562.248L189.834 560.761ZM257.718 278.123L259.187 278.429L259.199 278.369L259.207 278.308L257.718 278.123ZM273.309 175.227L274.739 175.681L274.739 175.681L273.309 175.227ZM274.969 166.543L276.452 166.769L276.452 166.769L274.969 166.543ZM357.433 104.242L357.352 105.74L357.352 105.74L357.433 104.242ZM440.908 191.508L439.408 191.49L439.407 191.582L439.417 191.674L440.908 191.508ZM454.55 300.591L456.03 300.345L456.03 300.345L454.55 300.591ZM460.421 333.789L458.945 334.055L458.945 334.055L460.421 333.789ZM475.338 426.28L473.84 426.357L473.84 426.357L475.338 426.28ZM494.501 560.761V562.261H496.256L495.983 560.528L494.501 560.761ZM440.908 560.761L439.467 560.346L438.916 562.261H440.908V560.761ZM434.872 404.542L433.381 404.709L433.381 404.709L434.872 404.542ZM426.292 322.407L424.793 322.474L424.793 322.474L426.292 322.407ZM417.197 157.969L415.701 158.065L415.701 158.065L417.197 157.969ZM295.071 157.969L296.499 158.426L296.499 158.426L295.071 157.969ZM286.952 213.166L285.462 212.999L285.462 212.999L286.952 213.166ZM279.48 269.005L278.008 268.718L278.008 268.718L279.48 269.005ZM269.155 315.751L270.617 316.086L270.617 316.086L269.155 315.751ZM251.547 402.51L253.042 402.632L253.042 402.632L251.547 402.51ZM246.348 445.235L244.861 445.039L244.861 445.039L246.348 445.235ZM237.905 526.896L236.407 526.969L236.407 526.969L237.905 526.896ZM237.905 566.947L237.714 568.435L239.324 568.642L239.403 567.021L237.905 566.947ZM59.6399 538.585V537.085H58.2824L58.1473 538.436L59.6399 538.585ZM188.594 538.585L188.732 537.091L188.663 537.085H188.594V538.585ZM316.249 552.889L316.832 551.506L316.832 551.506L316.249 552.889ZM328.306 558.768L327.616 560.099L327.616 560.099L328.306 558.768ZM643.964 538.585L645.457 538.436L645.322 537.085H643.964V538.585ZM515.01 538.585V537.085H514.941L514.872 537.091L515.01 538.585ZM387.355 552.889L386.772 551.506L386.772 551.506L387.355 552.889ZM375.298 558.768L375.988 560.099L375.988 560.099L375.298 558.768ZM220.829 458.634C219.031 471.506 213.282 491.087 206.78 510.422C200.289 529.724 193.089 548.664 188.443 560.2L191.225 561.321C195.89 549.739 203.111 530.744 209.624 511.378C216.124 492.046 221.96 472.227 223.8 459.049L220.829 458.634ZM256.25 277.817C245.971 327.17 224.476 432.521 220.829 458.634L223.8 459.049C227.429 433.063 248.895 327.847 259.187 278.429L256.25 277.817ZM271.879 174.773C270.932 177.756 269.718 183.882 268.377 191.736C267.03 199.631 265.537 209.381 264.045 219.687C261.061 240.3 258.071 263.169 256.23 277.937L259.207 278.308C261.046 263.554 264.033 240.705 267.014 220.117C268.505 209.822 269.993 200.1 271.334 192.241C272.683 184.34 273.866 178.429 274.739 175.681L271.879 174.773ZM273.486 166.317C272.925 170.003 272.485 172.866 271.879 174.773L274.739 175.681C275.433 173.494 275.907 170.348 276.452 166.769L273.486 166.317ZM357.514 102.744C320.995 100.773 300.69 110.992 289.151 124.793C277.695 138.494 275.14 155.453 273.486 166.317L276.452 166.769C278.116 155.839 280.602 139.694 291.453 126.717C302.22 113.838 321.488 103.804 357.352 105.74L357.514 102.744ZM442.408 191.526C442.573 177.493 438.535 156.266 425.859 138.047C413.135 119.761 391.765 104.593 357.514 102.744L357.352 105.74C390.662 107.538 411.191 122.219 423.396 139.761C435.649 157.371 439.568 177.954 439.408 191.49L442.408 191.526ZM456.03 300.345C452.4 278.512 445.432 218.601 442.399 191.342L439.417 191.674C442.447 218.902 449.424 278.906 453.07 300.837L456.03 300.345ZM461.898 333.523C459.459 319.981 457.315 308.075 456.03 300.345L453.07 300.837C454.36 308.592 456.508 320.522 458.945 334.055L461.898 333.523ZM476.836 426.202C476.481 419.328 474.277 404.681 471.412 387.566C468.54 370.41 464.984 350.663 461.898 333.523L458.945 334.055C462.032 351.199 465.585 370.927 468.453 388.061C471.328 405.235 473.496 419.692 473.84 426.357L476.836 426.202ZM495.983 560.528C492.952 541.265 488.357 511.428 484.422 484.52C480.481 457.563 477.221 433.667 476.836 426.202L473.84 426.357C474.234 434.001 477.524 458.08 481.454 484.954C485.39 511.876 489.987 541.724 493.019 560.994L495.983 560.528ZM440.908 562.261H494.501V559.261H440.908V562.261ZM444.93 519.733C444.93 537.014 441.278 554.042 439.467 560.346L442.35 561.175C444.219 554.671 447.93 537.358 447.93 519.733H444.93ZM433.381 404.709C436.123 429.12 439.012 454.841 441.215 475.993C443.423 497.193 444.93 513.689 444.93 519.733H447.93C447.93 513.493 446.399 496.802 444.199 475.682C441.994 454.515 439.104 428.782 436.363 404.374L433.381 404.709ZM424.793 322.474C425.222 332.073 429.131 366.867 433.381 404.709L436.363 404.374C432.102 366.44 428.213 331.807 427.79 322.34L424.793 322.474ZM415.701 158.065C416.35 168.153 423.82 300.67 424.793 322.474L427.79 322.34C426.816 300.511 419.344 167.974 418.694 157.873L415.701 158.065ZM357.433 123.325C377.395 123.325 391.845 129.723 401.364 137.286C406.131 141.074 409.661 145.153 412.03 148.869C414.419 152.618 415.561 155.891 415.701 158.065L418.694 157.873C418.509 155 417.093 151.231 414.56 147.257C412.006 143.25 408.248 138.924 403.23 134.937C393.18 126.952 378.072 120.325 357.433 120.325V123.325ZM296.499 158.426C299.177 150.058 304.443 141.316 313.958 134.654C323.476 127.99 337.367 123.325 357.433 123.325V120.325C336.899 120.325 322.369 125.103 312.237 132.197C302.102 139.293 296.486 148.622 293.642 157.512L296.499 158.426ZM288.443 213.333C289.764 201.544 291.048 190.089 292.373 180.42C293.702 170.714 295.058 162.932 296.499 158.426L293.642 157.512C292.109 162.302 290.726 170.335 289.4 180.013C288.07 189.726 286.782 201.221 285.462 212.999L288.443 213.333ZM280.952 269.293C283.814 254.648 286.184 233.491 288.443 213.333L285.462 212.999C283.197 233.206 280.841 254.22 278.008 268.718L280.952 269.293ZM270.617 316.086C274.836 297.657 278.755 280.539 280.952 269.293L278.008 268.718C275.822 279.905 271.917 296.965 267.693 315.417L270.617 316.086ZM253.042 402.632C254.287 387.442 262.934 349.649 270.617 316.086L267.693 315.417C260.045 348.826 251.32 386.919 250.052 402.387L253.042 402.632ZM247.835 445.431C250.201 427.471 252.33 411.313 253.042 402.632L250.052 402.387C249.348 410.974 247.233 427.035 244.861 445.039L247.835 445.431ZM239.403 526.824C239.1 520.54 240.155 508.133 241.827 493.234C243.495 478.383 245.759 461.197 247.835 445.431L244.861 445.039C242.785 460.798 240.517 478.014 238.846 492.899C237.18 507.736 236.09 520.397 236.407 526.969L239.403 526.824ZM239.403 567.021C239.73 560.368 240.186 543.037 239.403 526.824L236.407 526.969C237.183 543.057 236.73 560.285 236.407 566.874L239.403 567.021ZM189.643 562.248L237.714 568.435L238.097 565.46L190.026 559.273L189.643 562.248ZM59.6399 540.085H188.594V537.085H59.6399V540.085ZM188.456 540.079L197.922 540.953L198.198 537.966L188.732 537.091L188.456 540.079ZM238.209 544.54C251.245 545.548 268.469 547.065 283.545 548.799C291.084 549.667 298.071 550.587 303.723 551.523C309.433 552.469 313.618 553.407 315.667 554.271L316.832 551.506C314.407 550.484 309.876 549.502 304.213 548.563C298.492 547.616 291.449 546.689 283.888 545.819C268.761 544.078 251.497 542.558 238.44 541.549L238.209 544.54ZM315.667 554.271C319.444 555.862 323.482 557.956 327.616 560.099L328.997 557.436C324.889 555.306 320.74 553.153 316.832 551.506L315.667 554.271ZM327.616 560.099C332.158 562.455 336.816 564.872 341.214 566.638C345.588 568.394 349.889 569.585 353.701 569.339L353.507 566.345C350.384 566.547 346.594 565.565 342.332 563.854C338.094 562.152 333.571 559.808 328.997 557.436L327.616 560.099ZM17.4926 975.149L61.1324 538.734L58.1473 538.436L14.5074 974.851L17.4926 975.149ZM643.964 537.085H515.01V540.085H643.964V537.085ZM514.872 537.091L491.247 539.274L491.523 542.261L515.148 540.079L514.872 537.091ZM444.154 543.323C432.278 544.412 419.721 545.715 409.275 547.107C404.052 547.803 399.343 548.522 395.503 549.251C391.701 549.972 388.634 550.722 386.772 551.506L387.937 554.271C389.475 553.623 392.259 552.919 396.062 552.198C399.826 551.484 404.476 550.773 409.671 550.081C420.059 548.697 432.57 547.398 444.428 546.311L444.154 543.323ZM386.772 551.506C382.864 553.153 378.715 555.306 374.607 557.436L375.988 560.099C380.122 557.956 384.16 555.862 387.937 554.271L386.772 551.506ZM374.607 557.436C370.033 559.808 365.51 562.152 361.272 563.854C357.01 565.565 353.22 566.547 350.097 566.345L349.903 569.339C353.715 569.585 358.016 568.394 362.39 566.638C366.788 564.872 371.446 562.455 375.988 560.099L374.607 557.436ZM689.097 974.851L645.457 538.436L642.472 538.734L686.111 975.149L689.097 974.851Z" fill="white"/>
<path d="M463 800.575H408.581L394.832 776.924C393.911 775.387 393.638 773.549 394.073 771.812C394.508 770.075 395.616 768.581 397.154 767.658L426.489 750.053C428.029 749.134 429.872 748.862 431.614 749.296C433.355 749.73 434.853 750.836 435.779 752.369L460.677 795.154C461.674 796.858 462.454 798.679 463 800.575V800.575ZM462.605 814.867H387.841V800.32C387.821 799.539 387.562 798.782 387.099 798.152C386.635 797.522 385.989 797.049 385.247 796.797C384.506 796.544 383.704 796.525 382.951 796.74C382.198 796.956 381.53 797.397 381.035 798.004L354 830.874C352.153 833.116 351.143 835.929 351.143 838.831C351.143 841.734 352.153 844.546 354 846.788L381.198 879.589C381.7 880.205 382.381 880.649 383.147 880.861C383.914 881.073 384.727 881.042 385.475 880.772C386.223 880.502 386.868 880.007 387.321 879.355C387.774 878.703 388.012 877.927 388.003 877.134V862.587L422.006 862.471C426.203 862.46 430.322 861.348 433.951 859.246C437.58 857.143 440.589 854.125 442.677 850.495L460.677 819.014C461.452 817.697 462.098 816.308 462.605 814.867ZM331.727 862.332C332.631 862.329 333.526 862.146 334.358 861.793C335.191 861.44 335.944 860.925 336.574 860.277C337.204 859.63 337.697 858.863 338.026 858.022C338.354 857.182 338.51 856.284 338.485 855.382L337.858 821.238C337.828 819.46 337.097 817.766 335.823 816.521C334.549 815.277 332.836 814.583 331.053 814.589H303.646L276.449 861.637C278.355 862.115 280.313 862.356 282.279 862.355L331.727 862.332ZM243.259 819.107L261.538 850.495C262.316 851.798 263.219 853.023 264.232 854.155L301.579 789.572L314.214 796.799C314.896 797.189 315.683 797.361 316.466 797.291C317.249 797.22 317.992 796.911 318.593 796.405C319.194 795.899 319.625 795.221 319.826 794.463C320.027 793.704 319.99 792.902 319.719 792.166L304.622 752.392C303.589 749.659 301.631 747.371 299.087 745.925C296.542 744.478 293.571 743.964 290.686 744.47L248.647 751.42C247.86 751.543 247.131 751.908 246.561 752.464C245.991 753.02 245.609 753.739 245.469 754.521C245.328 755.304 245.436 756.111 245.777 756.829C246.117 757.548 246.674 758.143 247.37 758.531L260.005 765.758L243.212 795.154C241.1 798.796 239.992 802.93 240 807.137C240.008 811.344 241.133 815.473 243.259 819.107V819.107ZM313.61 675.069L288.968 717.808C288.523 718.585 288.238 719.443 288.128 720.331C288.018 721.219 288.086 722.121 288.328 722.982C288.57 723.844 288.981 724.65 289.537 725.352C290.094 726.054 290.784 726.639 291.569 727.073L321.53 743.613C323.077 744.449 324.889 744.653 326.583 744.182C328.277 743.711 329.722 742.601 330.612 741.088L344.292 717.391L317.164 670.39C315.79 671.797 314.597 673.369 313.61 675.069V675.069ZM355.882 742.524L397.967 749.474C400.839 749.941 403.784 749.399 406.3 747.942C408.816 746.484 410.747 744.201 411.763 741.482L426.651 701.639C426.928 700.899 426.968 700.093 426.766 699.33C426.565 698.567 426.131 697.885 425.526 697.378C424.92 696.87 424.172 696.562 423.384 696.495C422.596 696.429 421.806 696.607 421.124 697.006L408.512 704.303L391.394 674.86C389.286 671.241 386.259 668.24 382.618 666.158C378.977 664.076 374.85 662.987 370.653 663L334.282 663.116C332.767 663.135 331.259 663.298 329.776 663.602L367.17 728.116L354.558 735.413C353.861 735.804 353.305 736.403 352.967 737.125C352.629 737.847 352.525 738.657 352.671 739.44C352.817 740.224 353.205 740.943 353.781 741.496C354.356 742.049 355.091 742.408 355.882 742.524V742.524Z" fill="white"/>
</svg>
