<svg width="1600" height="800" viewBox="0 0 1600 800" fill="none" xmlns="http://www.w3.org/2000/svg">
<path d="M660.12 399H550.199L513 771H800.776V423.939C792.192 424.493 779.456 415.626 768.934 411.192C760.517 407.645 716.881 403.803 696.115 402.325L660.12 399Z" fill="#0000C8"/>
<path d="M939.655 399H1049.58L1086.78 771H799V423.939C807.583 424.493 820.32 415.626 830.841 411.192C839.258 407.645 882.895 403.803 903.661 402.325L939.655 399Z" fill="#0000C8"/>
<path d="M688.719 330.995C685.614 353.165 668.946 398.059 661 417.735L702.023 423C702.301 417.365 702.689 402.659 702.023 388.914C701.192 371.732 712.002 303.282 713.665 283.052C715.328 262.822 732.237 196.312 737.503 169.431C742.77 142.55 746.096 89.619 750.808 74.9314C755.52 60.2438 769.38 44.1706 804.028 44.1706C838.676 44.1706 854.475 66.3406 855.03 74.9314C855.584 83.5223 861.959 196.312 862.791 214.879C863.623 233.447 879.977 364.25 879.977 382.817C879.977 397.671 876.835 412.285 875.264 417.735H921C915.826 384.942 905.311 316.141 904.646 303.282C903.814 287.209 890.787 219.59 886.906 196.312C883.802 177.689 877.851 126.661 875.264 103.475C875.542 80.012 861.682 32.3096 804.028 29.2058C731.959 25.3261 736.117 77.4255 732.237 89.619C729.132 99.3738 722.073 152.064 718.932 177.19C710.154 219.221 691.823 308.825 688.719 330.995Z" fill="#0000C8"/>
<path d="M885 622.38H838.634L826.919 602.201C826.135 600.89 825.902 599.322 826.273 597.84C826.644 596.358 827.588 595.083 828.898 594.295L853.892 579.274C855.204 578.491 856.775 578.258 858.258 578.629C859.742 578.999 861.018 579.942 861.807 581.251L883.021 617.756C883.87 619.209 884.535 620.763 885 622.38V622.38ZM884.664 634.575H820.963V622.163C820.946 621.496 820.726 620.851 820.331 620.313C819.936 619.776 819.385 619.372 818.753 619.157C818.122 618.942 817.439 618.925 816.797 619.109C816.155 619.293 815.586 619.669 815.165 620.187L792.13 648.232C790.556 650.145 789.696 652.545 789.696 655.021C789.696 657.498 790.556 659.897 792.13 661.81L815.303 689.796C815.731 690.321 816.311 690.701 816.964 690.881C817.617 691.062 818.31 691.036 818.947 690.805C819.584 690.575 820.134 690.153 820.52 689.597C820.906 689.04 821.109 688.378 821.101 687.701V675.289L850.072 675.191C853.648 675.182 857.158 674.233 860.25 672.439C863.341 670.645 865.906 668.07 867.685 664.973L883.021 638.113C883.681 636.989 884.231 635.804 884.664 634.575ZM773.153 675.072C773.923 675.07 774.686 674.913 775.395 674.612C776.104 674.311 776.746 673.872 777.283 673.319C777.819 672.767 778.24 672.113 778.52 671.395C778.799 670.678 778.932 669.912 778.911 669.143L778.377 640.01C778.351 638.493 777.728 637.048 776.643 635.986C775.558 634.925 774.098 634.332 772.579 634.338H749.228L726.055 674.479C727.679 674.887 729.347 675.093 731.022 675.092L773.153 675.072ZM697.777 638.192L713.351 664.973C714.014 666.084 714.783 667.13 715.646 668.095L747.467 612.992L758.232 619.159C758.813 619.492 759.483 619.638 760.15 619.578C760.818 619.518 761.451 619.254 761.963 618.823C762.475 618.391 762.842 617.812 763.013 617.165C763.185 616.518 763.153 615.834 762.922 615.206L750.059 581.271C749.179 578.938 747.511 576.987 745.343 575.752C743.175 574.518 740.643 574.079 738.186 574.511L702.368 580.441C701.697 580.546 701.075 580.857 700.59 581.331C700.105 581.806 699.779 582.42 699.66 583.087C699.54 583.755 699.631 584.443 699.922 585.056C700.212 585.669 700.687 586.177 701.279 586.508L712.044 592.675L697.737 617.756C695.937 620.862 694.993 624.39 695 627.979C695.007 631.568 695.965 635.092 697.777 638.192V638.192ZM757.717 515.297L736.721 551.762C736.343 552.426 736.099 553.158 736.006 553.916C735.912 554.673 735.97 555.442 736.176 556.178C736.383 556.913 736.733 557.6 737.207 558.199C737.681 558.799 738.269 559.298 738.938 559.668L764.465 573.78C765.783 574.493 767.327 574.667 768.77 574.265C770.214 573.863 771.445 572.917 772.203 571.626L783.859 551.407L760.745 511.305C759.575 512.506 758.558 513.847 757.717 515.297V515.297ZM793.733 572.851L829.591 578.78C832.038 579.179 834.547 578.717 836.691 577.473C838.835 576.23 840.48 574.282 841.346 571.962L854.03 537.967C854.266 537.336 854.3 536.648 854.128 535.997C853.956 535.346 853.587 534.765 853.071 534.331C852.555 533.898 851.918 533.635 851.246 533.579C850.575 533.522 849.902 533.674 849.32 534.014L838.575 540.24L823.991 515.119C822.194 512.032 819.615 509.471 816.513 507.694C813.411 505.918 809.895 504.989 806.319 505L775.33 505.099C774.04 505.115 772.754 505.254 771.49 505.514L803.351 560.558L792.605 566.783C792.012 567.117 791.538 567.628 791.25 568.244C790.962 568.86 790.873 569.551 790.998 570.22C791.122 570.889 791.453 571.502 791.943 571.974C792.434 572.445 793.06 572.752 793.733 572.851V572.851Z" fill="#FFAFC8"/>
</svg>
