<svg width="400" height="200" viewBox="0 0 400 200" fill="none" xmlns="http://www.w3.org/2000/svg">
<path d="M89.2765 117.281C89.3616 119.164 89.7869 120.918 90.5526 122.544C91.4032 124.084 92.5091 125.453 93.8702 126.651C95.3164 127.764 96.9327 128.662 98.7191 129.347C100.591 129.946 102.547 130.245 104.589 130.245C108.587 130.245 111.65 129.561 113.776 128.192C115.903 126.737 117.434 125.025 118.37 123.057L132.151 130.759C131.385 132.385 130.322 134.096 128.961 135.893C127.6 137.605 125.813 139.188 123.602 140.642C121.475 142.097 118.838 143.295 115.69 144.236C112.628 145.178 109.012 145.648 104.844 145.648C100.08 145.648 95.7417 144.878 91.8286 143.338C87.9154 141.798 84.5127 139.573 81.6204 136.663C78.8131 133.754 76.6013 130.202 74.985 126.009C73.4538 121.816 72.6882 117.067 72.6882 111.762V110.991C72.6882 106.114 73.4963 101.664 75.1126 97.6421C76.814 93.6202 79.1108 90.1973 82.0032 87.3733C84.8955 84.5495 88.2557 82.3673 92.0838 80.827C95.9969 79.2012 100.165 78.3882 104.589 78.3882C110.033 78.3882 114.712 79.3723 118.625 81.3405C122.538 83.2231 125.771 85.6619 128.323 88.6569C130.875 91.5664 132.747 94.8182 133.938 98.4122C135.128 101.921 135.724 105.344 135.724 108.681V117.281H89.2765ZM104.461 93.0211C100.378 93.0211 97.0603 94.0908 94.5082 96.2301C91.9562 98.2839 90.2974 100.68 89.5317 103.418H119.391C118.88 100.423 117.264 97.9416 114.542 95.9734C111.905 94.0052 108.545 93.0211 104.461 93.0211Z" fill="white"/>
<path d="M139.229 80.1852H166.026V89.4271H168.323C169.513 85.9186 171.513 83.2231 174.32 81.3405C177.212 79.3723 180.657 78.3882 184.656 78.3882C190.951 78.3882 196.012 80.3992 199.84 84.4211C203.668 88.3574 205.583 94.3903 205.583 102.52V105.344L188.994 106.884V105.087C188.994 101.578 188.101 98.7973 186.314 96.7436C184.528 94.6042 181.848 93.5346 178.276 93.5346C174.703 93.5346 171.895 94.7754 169.854 97.257C167.812 99.7386 166.791 103.29 166.791 107.911V128.448H181.338V143.851H137.698V128.448H150.713V95.5883H139.229V80.1852Z" fill="white"/>
<path d="M274.123 112.788C274.123 118.094 273.23 122.8 271.443 126.908C269.657 130.93 267.232 134.353 264.17 137.177C261.107 139.915 257.577 142.011 253.579 143.466C249.666 144.921 245.54 145.648 241.201 145.648C236.863 145.648 232.694 144.921 228.696 143.466C224.783 142.011 221.295 139.915 218.233 137.177C215.17 134.353 212.746 130.93 210.959 126.908C209.173 122.8 208.28 118.094 208.28 112.788V111.248C208.28 106.028 209.173 101.407 210.959 97.3853C212.746 93.2779 215.17 89.8122 218.233 86.9883C221.295 84.1644 224.783 82.0251 228.696 80.5703C232.694 79.1156 236.863 78.3882 241.201 78.3882C245.54 78.3882 249.666 79.1156 253.579 80.5703C257.577 82.0251 261.107 84.1644 264.17 86.9883C267.232 89.8122 269.657 93.2779 271.443 97.3853C273.23 101.407 274.123 106.028 274.123 111.248V112.788ZM241.201 130.245C243.498 130.245 245.667 129.86 247.709 129.09C249.751 128.32 251.537 127.207 253.068 125.753C254.6 124.298 255.79 122.544 256.641 120.49C257.577 118.351 258.045 115.955 258.045 113.302V110.735C258.045 108.082 257.577 105.729 256.641 103.675C255.79 101.536 254.6 99.7386 253.068 98.2839C251.537 96.8291 249.751 95.7167 247.709 94.9465C245.667 94.1764 243.498 93.7913 241.201 93.7913C238.904 93.7913 236.735 94.1764 234.693 94.9465C232.652 95.7167 230.865 96.8291 229.334 98.2839C227.803 99.7386 226.569 101.536 225.634 103.675C224.783 105.729 224.358 108.082 224.358 110.735V113.302C224.358 115.955 224.783 118.351 225.634 120.49C226.569 122.544 227.803 124.298 229.334 125.753C230.865 127.207 232.652 128.32 234.693 129.09C236.735 129.86 238.904 130.245 241.201 130.245Z" fill="white"/>
<path d="M2 143.67V107.299L63.4411 73.4997V68.2997L53.332 70.2217H2V54H67.9341V92.3493L6.49295 126.149V131.349L16.6021 127.449H67.9341V143.67H2Z" fill="white"/>
<circle cx="289.143" cy="132.791" r="12.8571" fill="#FFAFE1"/>
</svg>
