<svg width="1080" height="1080" viewBox="0 0 1080 1080" fill="none" xmlns="http://www.w3.org/2000/svg">
<g clip-path="url(#clip0)">
<path d="M408.684 530.758L407.199 530.55L407.199 530.55L408.684 530.758ZM377.059 635.179L376.922 636.672L378.062 636.778L378.464 635.706L377.059 635.179ZM454.12 299.662L455.589 299.969L455.601 299.909L455.609 299.848L454.12 299.662ZM474.129 168.082L475.558 168.538L475.558 168.538L474.129 168.082ZM476.26 156.978L477.742 157.204L477.742 157.204L476.26 156.978ZM582.092 77.3093L582.172 75.8115L582.092 77.3093ZM689.221 188.902L687.721 188.884L687.72 188.977L687.73 189.068L689.221 188.902ZM706.728 328.393L708.208 328.146L708.208 328.146L706.728 328.393ZM714.263 370.844L712.787 371.111L712.787 371.111L714.263 370.844ZM733.406 489.119L731.908 489.197L731.908 489.197L733.406 489.119ZM755.665 646.215L754.183 646.447L754.381 647.712L755.661 647.715L755.665 646.215ZM893.912 646.899L893.995 645.401L893.959 645.399L893.923 645.399L893.912 646.899ZM920.165 839.545L918.665 839.579L918.673 839.941L918.846 840.26L920.165 839.545ZM936 1106.26L936.008 1107.76L937.551 1107.75L937.499 1106.21L936 1106.26ZM198.418 1110L196.918 1110.03L196.952 1111.51L198.425 1111.5L198.418 1110ZM188 658.965L186.624 658.368L186.493 658.67L186.5 659L188 658.965ZM198.835 634V632.5H197.85L197.459 633.403L198.835 634ZM364.27 634L364.407 632.506L364.339 632.5H364.27V634ZM528.038 652.308L528.619 650.925L528.619 650.925L528.038 652.308ZM429.239 639.798L427.739 639.805L427.745 641.186L429.122 641.294L429.239 639.798ZM543.506 659.833L542.817 661.165L542.817 661.165L543.506 659.833ZM575.96 671.448L576.056 672.944L576.056 672.944L575.96 671.448ZM600.222 661.69L600.897 663.03L600.897 663.03L600.222 661.69ZM640.134 646.899L640.246 648.394L640.246 648.394L640.134 646.899ZM692.61 646.193L692.614 647.693L693.857 647.69L694.084 646.467L692.61 646.193ZM681.474 461.321L679.983 461.489L679.983 461.489L681.474 461.321ZM670.463 356.291L668.964 356.358L668.964 356.358L670.463 356.291ZM658.791 146.014L660.288 145.917L660.288 145.917L658.791 146.014ZM502.058 146.014L500.629 145.555L500.629 145.555L502.058 146.014ZM491.639 216.597L493.129 216.765L493.129 216.765L491.639 216.597ZM482.049 288.003L483.521 288.291L483.521 288.291L482.049 288.003ZM468.798 347.779L470.26 348.115L470.26 348.115L468.798 347.779ZM446.2 458.723L447.695 458.846L447.695 458.846L446.2 458.723ZM439.529 513.358L441.016 513.555L441.016 513.555L439.529 513.358ZM428.693 617.784L430.191 617.711L430.191 617.711L428.693 617.784ZM407.199 530.55C403.644 555.912 388.125 601.403 375.655 634.652L378.464 635.706C390.912 602.514 406.562 556.712 410.17 530.967L407.199 530.55ZM452.652 299.355C439.459 362.475 411.877 497.175 407.199 530.55L410.17 530.967C414.83 497.719 442.382 363.154 455.589 299.969L452.652 299.355ZM472.7 167.627C471.495 171.409 469.94 179.213 468.219 189.263C466.49 199.354 464.576 211.818 462.661 224.995C458.831 251.352 454.995 280.593 452.632 299.475L455.609 299.848C457.97 280.978 461.804 251.758 465.63 225.427C467.543 212.261 469.453 199.825 471.176 189.769C472.906 179.672 474.429 172.084 475.558 168.538L472.7 167.627ZM474.777 156.751C474.059 161.45 473.489 165.149 472.7 167.627L475.558 168.538C476.437 165.78 477.041 161.796 477.742 157.204L474.777 156.751ZM582.172 75.8115C535.4 73.2957 509.488 86.3367 494.788 103.855C480.17 121.275 476.901 142.849 474.777 156.751L477.742 157.204C479.877 143.237 483.076 122.479 497.086 105.783C511.014 89.1852 535.889 76.3263 582.011 78.8071L582.172 75.8115ZM690.721 188.92C690.932 171.043 685.765 143.988 669.556 120.775C653.3 97.4946 625.993 78.1685 582.172 75.8115L582.011 78.8071C624.894 81.1137 651.36 99.9567 667.097 122.493C682.88 145.097 687.926 171.506 687.721 188.884L690.721 188.92ZM708.208 328.146C703.547 300.214 694.604 223.589 690.711 188.735L687.73 189.068C691.619 223.89 700.572 300.609 705.249 328.64L708.208 328.146ZM715.739 370.577C712.61 353.262 709.858 338.034 708.208 328.146L705.249 328.64C706.903 338.553 709.659 353.805 712.787 371.111L715.739 370.577ZM734.904 489.042C734.45 480.28 731.627 461.576 727.949 439.68C724.264 417.745 719.7 392.495 715.739 370.577L712.787 371.111C716.749 393.033 721.309 418.264 724.99 440.177C728.679 462.131 731.465 480.645 731.908 489.197L734.904 489.042ZM757.147 645.984C748.906 593.205 735.807 506.483 734.904 489.042L731.908 489.197C732.822 506.84 745.961 593.79 754.183 646.447L757.147 645.984ZM893.923 645.399C858.02 645.141 804.473 644.835 755.669 644.715L755.661 647.715C804.46 647.835 858.002 648.141 893.901 648.399L893.923 645.399ZM917.914 659.797C917.914 654.178 913.376 650.689 908.567 648.63C903.667 646.532 897.856 645.615 893.995 645.401L893.829 648.396C897.469 648.598 902.909 649.471 907.386 651.388C911.953 653.343 914.914 656.097 914.914 659.797H917.914ZM921.665 839.512C920.414 783.461 917.914 669.095 917.914 659.797H914.914C914.914 669.14 917.416 783.564 918.665 839.579L921.665 839.512ZM929.999 868.255C929.999 862.699 928.556 856.63 926.797 851.356C925.033 846.068 922.914 841.473 921.484 838.831L918.846 840.26C920.194 842.75 922.242 847.184 923.951 852.305C925.664 857.439 926.999 863.16 926.999 868.255H929.999ZM937.499 1106.21C934.998 1031.28 929.999 878.874 929.999 868.255H926.999C926.999 878.94 932.001 1031.44 934.501 1106.31L937.499 1106.21ZM198.425 1111.5L936.008 1107.76L935.992 1104.76L198.41 1108.5L198.425 1111.5ZM186.5 659L196.918 1110.03L199.917 1109.97L189.5 658.93L186.5 659ZM197.459 633.403L186.624 658.368L189.376 659.562L200.211 634.597L197.459 633.403ZM364.27 632.5H198.835V635.5H364.27V632.5ZM377.197 633.685L364.407 632.506L364.132 635.494L376.922 636.672L377.197 633.685ZM528.619 650.925C525.596 649.654 519.929 648.417 512.78 647.228C505.574 646.03 496.698 644.857 487.145 643.753C468.034 641.546 446.151 639.609 429.355 638.303L429.122 641.294C445.898 642.599 467.741 644.532 486.8 646.733C496.332 647.834 505.152 649.001 512.288 650.187C519.482 651.384 524.806 652.576 527.457 653.69L528.619 650.925ZM544.195 658.5C538.922 655.772 533.614 653.025 528.619 650.925L527.457 653.69C532.32 655.735 537.517 658.423 542.817 661.165L544.195 658.5ZM575.863 669.951C571.758 670.215 566.824 668.928 561.34 666.732C555.881 664.545 550.059 661.534 544.195 658.5L542.817 661.165C548.649 664.182 554.605 667.266 560.225 669.517C565.82 671.758 571.265 673.253 576.056 672.944L575.863 669.951ZM599.546 660.351C594.589 662.851 589.978 665.177 585.905 666.925C581.799 668.687 578.408 669.787 575.863 669.951L576.056 672.944C579.15 672.745 582.945 671.46 587.088 669.682C591.264 667.889 595.964 665.518 600.897 663.03L599.546 660.351ZM640.021 645.403C633.57 645.889 626.617 648.043 619.734 650.841C612.842 653.644 605.921 657.136 599.546 660.351L600.897 663.03C607.292 659.804 614.104 656.369 620.864 653.62C627.633 650.868 634.251 648.846 640.246 648.394L640.021 645.403ZM692.606 644.693C665.656 644.765 645.706 644.974 640.021 645.403L640.246 648.394C645.792 647.976 665.594 647.765 692.614 647.693L692.606 644.693ZM694.807 608.623C694.807 622.195 693.044 635.654 691.135 645.919L694.084 646.467C696.015 636.084 697.807 622.433 697.807 608.623H694.807ZM679.983 461.489C683.502 492.705 687.209 525.597 690.037 552.648C692.87 579.747 694.807 600.868 694.807 608.623H697.807C697.807 600.671 695.846 579.355 693.021 552.336C690.192 525.271 686.483 492.365 682.964 461.153L679.983 461.489ZM668.964 356.358C669.514 368.615 674.527 413.086 679.983 461.489L682.964 461.153C677.498 412.658 672.505 368.348 671.961 356.224L668.964 356.358ZM657.294 146.11C658.127 159.011 667.714 328.472 668.964 356.358L671.961 356.224C670.71 328.313 661.122 158.832 660.288 145.917L657.294 146.11ZM582.092 101.294C607.807 101.294 626.445 109.509 638.737 119.24C644.89 124.111 649.453 129.362 652.519 134.155C655.606 138.98 657.108 143.234 657.294 146.11L660.288 145.917C660.057 142.339 658.277 137.589 655.046 132.538C651.794 127.455 647.004 121.958 640.599 116.887C627.776 106.736 608.482 98.2944 582.092 98.2944V101.294ZM503.486 146.472C506.945 135.699 513.751 124.438 526.051 115.859C538.354 107.276 556.272 101.294 582.092 101.294V98.2944C555.806 98.2944 537.25 104.388 524.334 113.398C511.414 122.411 504.257 134.259 500.629 145.555L503.486 146.472ZM493.129 216.765C494.824 201.692 496.473 187.038 498.174 174.667C499.88 162.26 501.623 152.273 503.486 146.472L500.629 145.555C498.675 151.642 496.904 161.879 495.202 174.258C493.495 186.673 491.842 201.367 490.148 216.429L493.129 216.765ZM483.521 288.291C487.189 269.584 490.229 242.548 493.129 216.765L490.148 216.429C487.242 242.263 484.216 269.155 480.577 287.714L483.521 288.291ZM470.26 348.115C475.675 324.546 480.703 302.664 483.521 288.291L480.577 287.714C477.77 302.028 472.757 323.851 467.337 347.444L470.26 348.115ZM447.695 458.846C449.297 439.383 460.405 391.013 470.26 348.115L467.337 347.444C457.516 390.188 446.33 438.859 444.705 458.6L447.695 458.846ZM441.016 513.555C444.053 490.582 446.783 469.934 447.695 458.846L444.705 458.6C443.801 469.594 441.085 490.144 438.042 513.162L441.016 513.555ZM430.191 617.711C429.8 609.636 431.158 593.735 433.304 574.692C435.445 555.696 438.351 533.715 441.016 513.555L438.042 513.162C435.377 533.314 432.467 555.326 430.323 574.356C428.184 593.337 426.79 609.493 427.195 617.857L430.191 617.711ZM430.739 639.791C430.706 632.712 430.55 625.122 430.191 617.711L427.195 617.857C427.551 625.213 427.706 632.758 427.739 639.805L430.739 639.791Z" fill="white"/>
<path d="M325 884.494C325 872.779 327.799 863.692 333.398 857.231C338.997 850.771 346.793 847.541 356.784 847.541C366.776 847.541 374.572 850.771 380.17 857.231C385.769 863.692 388.569 872.779 388.569 884.494V904.649C388.569 916.709 385.769 925.882 380.17 932.17C374.572 938.458 366.776 941.602 356.784 941.602C346.793 941.602 338.997 938.458 333.398 932.17C327.799 925.882 325 916.709 325 904.649V884.494ZM356.784 931.782C363.761 931.782 368.973 929.371 372.418 924.547C375.95 919.637 377.716 912.746 377.716 903.874V885.269C377.716 881.134 377.285 877.387 376.423 874.028C375.562 870.583 374.227 867.654 372.418 865.242C370.695 862.744 368.499 860.806 365.829 859.428C363.245 858.05 360.23 857.361 356.784 857.361C353.253 857.361 350.195 858.05 347.611 859.428C345.027 860.806 342.83 862.744 341.021 865.242C339.299 867.654 338.007 870.583 337.145 874.028C336.284 877.387 335.853 881.134 335.853 885.269V903.874C335.853 912.746 337.576 919.637 341.021 924.547C344.553 929.371 349.807 931.782 356.784 931.782ZM348.515 894.572C348.515 892.332 349.334 890.394 350.97 888.757C352.607 887.121 354.545 886.302 356.784 886.302C359.024 886.302 360.962 887.121 362.599 888.757C364.235 890.394 365.053 892.332 365.053 894.572C365.053 896.811 364.235 898.749 362.599 900.386C360.962 902.022 359.024 902.841 356.784 902.841C354.545 902.841 352.607 902.022 350.97 900.386C349.334 898.749 348.515 896.811 348.515 894.572Z" fill="white"/>
<path d="M431.883 876.852H441.961L457.465 938.095H460.566L473.487 876.852H495.322L508.372 938.095H511.344L526.977 876.852H536.926L520.646 941.067H499.069L486.019 879.953H482.919L469.869 941.067H448.162L431.883 876.852Z" fill="white"/>
<path d="M545.28 923.237C545.28 912.211 552.3 905.967 566.34 904.502L591.923 902.047C591.32 890.333 585.29 884.476 573.834 884.476C568.666 884.476 564.359 885.768 560.914 888.352C557.554 890.936 555.875 895.07 555.875 900.755H545.538C545.538 893.778 548.079 887.835 553.161 882.925C558.243 878.015 565.134 875.56 573.834 875.56C582.706 875.56 589.683 878.231 594.765 883.571C599.934 888.912 602.518 895.932 602.518 904.631V932.023H611.95V941.067H600.58C595.498 941.067 592.956 938.569 592.956 933.573V930.085L594.636 923.366H591.535C588.348 936.028 580.079 942.359 566.728 942.359C563.196 942.359 560.052 941.929 557.296 941.067C554.626 940.12 552.558 939 551.094 937.708C549.63 936.33 548.424 934.736 547.476 932.927C546.529 931.032 545.926 929.353 545.668 927.888C545.409 926.338 545.28 924.787 545.28 923.237ZM555.875 921.945C555.875 925.563 556.951 928.362 559.105 930.343C561.258 932.324 564.23 933.315 568.02 933.315C575.169 933.315 580.94 931.118 585.333 926.725C589.726 922.332 591.923 916.734 591.923 909.929L568.149 912.384C563.929 912.814 560.828 913.762 558.846 915.226C556.865 916.604 555.875 918.844 555.875 921.945Z" fill="white"/>
<path d="M673.843 924.4C673.843 929.74 671.862 934.09 667.899 937.449C663.937 940.723 657.477 942.359 648.519 942.359C628.966 942.359 619.189 934.047 619.189 917.423H629.784C629.784 928.276 636.072 933.703 648.648 933.703C653.73 933.703 657.434 933.013 659.759 931.635C662.085 930.257 663.248 927.974 663.248 924.787C663.248 923.581 663.119 922.548 662.86 921.686C662.602 920.739 662.042 919.878 661.181 919.102C660.405 918.327 659.716 917.681 659.113 917.164C658.51 916.647 657.434 916.131 655.883 915.614C654.419 915.011 653.299 914.58 652.524 914.322C651.835 914.063 650.414 913.633 648.26 913.03C646.193 912.427 644.815 911.996 644.126 911.738C640.422 910.532 637.493 909.498 635.34 908.637C633.272 907.775 631.076 906.613 628.75 905.148C626.425 903.598 624.745 901.789 623.711 899.722C622.678 897.654 622.161 895.243 622.161 892.486C622.161 887.318 624.228 883.227 628.363 880.212C632.497 877.111 638.225 875.56 645.547 875.56C654.763 875.56 661.396 877.628 665.444 881.762C669.579 885.897 671.646 891.022 671.646 897.138H661.051C661.051 888.524 655.883 884.217 645.547 884.217C637.019 884.217 632.756 886.844 632.756 892.099C632.756 895.027 633.789 897.224 635.856 898.688C637.924 900.152 641.8 901.789 647.485 903.598C648.26 903.856 649.638 904.33 651.619 905.019C653.687 905.622 655.151 906.096 656.012 906.44C656.874 906.699 658.166 907.172 659.889 907.862C661.611 908.465 662.86 909.024 663.635 909.541C664.497 909.972 665.574 910.575 666.866 911.35C668.244 912.125 669.234 912.944 669.837 913.805C670.526 914.666 671.216 915.657 671.905 916.777C672.594 917.81 673.067 918.973 673.326 920.265C673.67 921.557 673.843 922.935 673.843 924.4Z" fill="white"/>
<path d="M705.507 933.444L728.118 932.023V941.067L703.827 942.359C700.812 942.531 698.573 941.885 697.109 940.421C695.73 938.871 695.041 936.588 695.041 933.573V885.897H680.829V876.852H695.041V860.314L705.507 857.084V876.852H725.534V885.897H705.507V933.444Z" fill="white"/>
<path d="M736.69 908.12C736.69 897.956 739.532 889.988 745.217 884.217C750.988 878.446 758.525 875.56 767.828 875.56C776.958 875.56 784.237 878.317 789.664 883.829C795.09 889.342 797.803 897.008 797.803 906.828V910.962H747.026C747.371 917.681 749.309 923.151 752.84 927.371C756.458 931.506 761.971 933.573 769.378 933.573C774.719 933.573 779.112 932.324 782.557 929.826C786.003 927.242 788.285 923.495 789.405 918.586H800C799.311 921.428 798.277 924.098 796.899 926.596C795.607 929.094 793.798 931.592 791.472 934.09C789.233 936.588 786.175 938.612 782.299 940.163C778.509 941.627 774.202 942.359 769.378 942.359C758.525 942.359 750.342 939.172 744.83 932.798C739.403 926.338 736.69 918.112 736.69 908.12ZM747.026 902.952H787.467C787.467 897.611 785.744 893.218 782.299 889.773C778.853 886.241 774.03 884.476 767.828 884.476C761.626 884.476 756.587 886.241 752.711 889.773C748.921 893.304 747.026 897.697 747.026 902.952Z" fill="white"/>
</g>
<defs>
<clipPath id="clip0">
<rect width="1080" height="1080" fill="white"/>
</clipPath>
</defs>
</svg>
