<svg width="1600" height="800" viewBox="0 0 1600 800" fill="none" xmlns="http://www.w3.org/2000/svg">
<g clip-path="url(#clip0)">
<rect width="1600" height="800" fill="#FFAFC8"/>
<path d="M103 481.992L110.758 818.364L660 815.571C658.138 759.716 654.414 646.02 654.414 638.076C654.414 630.132 650.277 620.492 648.208 616.665C647.277 574.877 645.416 489.564 645.416 482.613C645.416 475.662 634.245 473.303 628.659 472.993C571.149 472.579 452.839 472 439.682 472.993C423.236 474.234 401.515 490.681 391.895 491.301C382.276 491.922 368.002 481.992 356.21 477.027C346.777 473.055 297.872 468.752 274.599 467.097L234.26 463.374H111.068L103 481.992Z" fill="#0000C8"/>
<path d="M267.031 387.038C263.555 411.863 244.895 462.132 236 484.164L281.925 490.06C282.236 483.75 282.67 467.284 281.925 451.892C280.994 432.653 293.096 356.008 294.958 333.355C296.82 310.703 315.749 236.229 321.645 206.13C327.54 176.03 331.264 116.761 336.539 100.315C341.814 83.8689 357.33 65.8712 396.118 65.8712C434.906 65.8712 452.594 90.6957 453.214 100.315C453.835 109.935 460.972 236.229 461.903 257.02C462.834 277.81 481.142 424.275 481.142 445.066C481.142 461.698 477.625 478.061 475.867 484.164H527.067C521.275 447.445 509.504 370.406 508.759 356.008C507.828 338.01 493.244 262.295 488.9 236.229C485.424 215.377 478.763 158.239 475.867 132.277C476.177 106.004 460.662 52.5901 396.118 49.1146C315.438 44.7703 320.093 103.108 315.749 116.761C312.273 127.684 304.371 186.684 300.854 214.818C291.028 261.881 270.506 362.214 267.031 387.038Z" fill="#0000C8"/>
<path d="M476 678.38H429.634L417.919 658.201C417.135 656.89 416.902 655.322 417.273 653.84C417.644 652.358 418.588 651.083 419.898 650.295L444.892 635.274C446.204 634.491 447.775 634.258 449.258 634.629C450.742 634.999 452.018 635.942 452.807 637.251L474.021 673.756C474.87 675.209 475.535 676.763 476 678.38V678.38ZM475.664 690.575H411.963V678.163C411.946 677.496 411.726 676.851 411.331 676.313C410.936 675.776 410.385 675.372 409.753 675.157C409.122 674.941 408.439 674.925 407.797 675.109C407.155 675.293 406.586 675.669 406.165 676.187L383.13 704.232C381.556 706.145 380.695 708.545 380.695 711.021C380.695 713.497 381.556 715.897 383.13 717.81L406.303 745.796C406.731 746.321 407.311 746.701 407.964 746.881C408.617 747.062 409.31 747.036 409.947 746.805C410.584 746.575 411.134 746.153 411.52 745.597C411.906 745.04 412.109 744.378 412.101 743.701V731.289L441.072 731.191C444.648 731.182 448.158 730.233 451.25 728.439C454.341 726.645 456.906 724.07 458.685 720.972L474.021 694.113C474.681 692.989 475.231 691.804 475.664 690.575ZM364.153 731.072C364.923 731.07 365.686 730.913 366.395 730.612C367.104 730.311 367.746 729.872 368.283 729.319C368.819 728.767 369.24 728.113 369.52 727.395C369.799 726.678 369.932 725.912 369.911 725.143L369.377 696.01C369.351 694.493 368.728 693.048 367.643 691.986C366.558 690.925 365.098 690.332 363.579 690.338H340.228L317.055 730.479C318.679 730.887 320.347 731.093 322.022 731.092L364.153 731.072ZM288.777 694.192L304.351 720.972C305.014 722.084 305.783 723.13 306.646 724.095L338.467 668.992L349.232 675.159C349.813 675.492 350.483 675.638 351.15 675.578C351.818 675.518 352.451 675.254 352.963 674.822C353.475 674.391 353.842 673.812 354.013 673.165C354.185 672.518 354.153 671.834 353.922 671.206L341.059 637.271C340.179 634.938 338.511 632.987 336.343 631.752C334.175 630.518 331.643 630.079 329.186 630.511L293.368 636.44C292.697 636.546 292.075 636.857 291.59 637.331C291.105 637.806 290.779 638.419 290.66 639.087C290.54 639.755 290.631 640.443 290.922 641.056C291.212 641.669 291.687 642.177 292.279 642.508L303.044 648.675L288.737 673.756C286.937 676.862 285.993 680.39 286 683.979C286.007 687.568 286.965 691.092 288.777 694.192V694.192ZM348.717 571.297L327.721 607.762C327.343 608.426 327.099 609.158 327.006 609.915C326.912 610.673 326.97 611.442 327.176 612.178C327.383 612.913 327.733 613.6 328.207 614.199C328.681 614.798 329.269 615.298 329.938 615.668L355.465 629.78C356.783 630.493 358.327 630.667 359.77 630.265C361.214 629.863 362.445 628.917 363.203 627.626L374.859 607.407L351.745 567.305C350.575 568.506 349.558 569.847 348.717 571.297V571.297ZM384.733 628.851L420.591 634.78C423.038 635.179 425.547 634.717 427.691 633.473C429.835 632.23 431.48 630.282 432.346 627.962L445.03 593.967C445.266 593.336 445.3 592.648 445.128 591.997C444.956 591.346 444.587 590.764 444.071 590.331C443.555 589.898 442.918 589.635 442.246 589.579C441.575 589.522 440.902 589.674 440.32 590.014L429.575 596.24L414.991 571.119C413.194 568.032 410.615 565.471 407.513 563.694C404.411 561.918 400.895 560.989 397.319 561L366.33 561.099C365.04 561.115 363.754 561.254 362.49 561.514L394.351 616.558L383.605 622.783C383.012 623.117 382.538 623.628 382.25 624.244C381.962 624.86 381.873 625.551 381.998 626.22C382.122 626.889 382.453 627.502 382.943 627.973C383.434 628.445 384.06 628.752 384.733 628.851V628.851Z" fill="#FFAFC8"/>
<path d="M830 356.125C798.016 356.125 767.946 343.651 745.329 321C722.713 298.35 710.258 268.233 710.258 236.2C710.258 204.167 722.713 174.051 745.329 151.4C767.946 128.749 798.016 116.275 830 116.275C861.984 116.275 892.055 128.749 914.671 151.4C937.287 174.051 949.742 204.167 949.742 236.2C949.742 268.233 937.287 298.35 914.671 321C892.055 343.651 861.984 356.125 830 356.125ZM830 120.375C766.231 120.375 714.352 172.334 714.352 236.2C714.352 300.066 766.231 352.025 830 352.025C893.769 352.025 945.648 300.066 945.648 236.2C945.648 172.334 893.769 120.375 830 120.375Z" fill="#0000C8"/>
<path d="M830 330.5C778.082 330.5 735.844 288.197 735.844 236.2C735.844 184.203 778.082 141.9 830 141.9C881.918 141.9 924.156 184.203 924.156 236.2C924.156 288.197 881.918 330.5 830 330.5ZM830 146C780.339 146 739.938 186.463 739.938 236.2C739.938 285.937 780.339 326.4 830 326.4C879.661 326.4 920.062 285.937 920.062 236.2C920.062 186.463 879.661 146 830 146Z" fill="#0000C8"/>
<path d="M830 253.625C820.406 253.625 812.602 245.808 812.602 236.2C812.602 226.592 820.406 218.775 830 218.775C839.594 218.775 847.398 226.592 847.398 236.2C847.398 245.808 839.594 253.625 830 253.625ZM830 222.875C822.664 222.875 816.695 228.853 816.695 236.2C816.695 243.548 822.664 249.525 830 249.525C837.337 249.525 843.305 243.548 843.305 236.2C843.305 228.853 837.337 222.875 830 222.875Z" fill="#0000C8"/>
<path d="M830 202.375C828.87 202.375 827.953 201.457 827.953 200.325V169.575C827.953 168.443 828.87 167.525 830 167.525C831.13 167.525 832.047 168.443 832.047 169.575V200.325C832.047 201.457 831.13 202.375 830 202.375Z" fill="#0000C8"/>
<path d="M830 310C828.87 310 827.953 309.082 827.953 307.95V277.2C827.953 276.068 828.87 275.15 830 275.15C831.13 275.15 832.047 276.068 832.047 277.2V307.95C832.047 309.082 831.13 310 830 310Z" fill="#0000C8"/>
<path d="M857.138 213.633C856.615 213.633 856.091 213.433 855.691 213.033C854.891 212.232 854.891 210.934 855.691 210.134L877.401 188.39C878.2 187.589 879.496 187.589 880.295 188.39C881.095 189.19 881.095 190.489 880.295 191.289L858.585 213.033C858.186 213.433 857.662 213.633 857.138 213.633Z" fill="#0000C8"/>
<path d="M781.151 289.735C780.627 289.735 780.104 289.535 779.704 289.135C778.904 288.334 778.904 287.035 779.704 286.236L801.414 264.493C802.214 263.692 803.51 263.692 804.309 264.493C805.108 265.294 805.108 266.591 804.309 267.391L782.598 289.135C782.199 289.535 781.675 289.735 781.151 289.735Z" fill="#0000C8"/>
<path d="M899.082 240.812H868.379C867.249 240.812 866.332 239.895 866.332 238.763C866.332 237.63 867.249 236.713 868.379 236.713H899.082C900.212 236.713 901.129 237.63 901.129 238.763C901.129 239.895 900.212 240.812 899.082 240.812Z" fill="#0000C8"/>
<path d="M791.621 240.812H760.918C759.788 240.812 758.871 239.895 758.871 238.763C758.871 237.63 759.788 236.713 760.918 236.713H791.621C792.751 236.713 793.668 237.63 793.668 238.763C793.668 239.895 792.751 240.812 791.621 240.812Z" fill="#0000C8"/>
<path d="M878.848 289.735C878.325 289.735 877.8 289.535 877.401 289.135L855.691 267.391C854.891 266.59 854.891 265.292 855.691 264.493C856.49 263.692 857.787 263.692 858.585 264.493L880.295 286.236C881.095 287.037 881.095 288.335 880.295 289.135C879.896 289.535 879.372 289.735 878.848 289.735Z" fill="#0000C8"/>
<path d="M802.862 213.633C802.338 213.633 801.815 213.433 801.414 213.033L779.704 191.289C778.904 190.488 778.904 189.19 779.704 188.39C780.504 187.589 781.799 187.589 782.598 188.39L804.309 210.134C805.108 210.935 805.108 212.232 804.309 213.033C803.91 213.433 803.386 213.633 802.862 213.633Z" fill="#0000C8"/>
<path d="M1062 517.906C1046.86 517.906 1032.63 512.049 1021.93 501.415C1011.22 490.78 1005.33 476.64 1005.33 461.6C1005.33 446.56 1011.22 432.42 1021.93 421.785C1032.63 411.151 1046.86 405.294 1062 405.294C1077.14 405.294 1091.37 411.151 1102.07 421.785C1112.78 432.42 1118.67 446.56 1118.67 461.6C1118.67 476.64 1112.78 490.78 1102.07 501.415C1091.37 512.049 1077.14 517.906 1062 517.906ZM1062 407.219C1031.82 407.219 1007.27 431.614 1007.27 461.6C1007.27 491.586 1031.82 515.981 1062 515.981C1092.18 515.981 1116.73 491.586 1116.73 461.6C1116.73 431.614 1092.18 407.219 1062 407.219Z" fill="#0000C8"/>
<path d="M1062 505.875C1037.43 505.875 1017.44 486.013 1017.44 461.6C1017.44 437.187 1037.43 417.325 1062 417.325C1086.57 417.325 1106.56 437.187 1106.56 461.6C1106.56 486.013 1086.57 505.875 1062 505.875ZM1062 419.25C1038.5 419.25 1019.38 438.248 1019.38 461.6C1019.38 484.952 1038.5 503.95 1062 503.95C1085.5 503.95 1104.62 484.952 1104.62 461.6C1104.62 438.248 1085.5 419.25 1062 419.25Z" fill="#0000C8"/>
<path d="M1062 469.781C1057.46 469.781 1053.77 466.111 1053.77 461.6C1053.77 457.089 1057.46 453.419 1062 453.419C1066.54 453.419 1070.23 457.089 1070.23 461.6C1070.23 466.111 1066.54 469.781 1062 469.781ZM1062 455.344C1058.53 455.344 1055.7 458.15 1055.7 461.6C1055.7 465.05 1058.53 467.856 1062 467.856C1065.47 467.856 1068.3 465.05 1068.3 461.6C1068.3 458.15 1065.47 455.344 1062 455.344Z" fill="#0000C8"/>
<path d="M1062 445.719C1061.47 445.719 1061.03 445.288 1061.03 444.756V430.319C1061.03 429.787 1061.47 429.356 1062 429.356C1062.53 429.356 1062.97 429.787 1062.97 430.319V444.756C1062.97 445.288 1062.53 445.719 1062 445.719Z" fill="#0000C8"/>
<path d="M1062 496.25C1061.47 496.25 1061.03 495.819 1061.03 495.288V480.85C1061.03 480.318 1061.47 479.888 1062 479.888C1062.53 479.888 1062.97 480.318 1062.97 480.85V495.288C1062.97 495.819 1062.53 496.25 1062 496.25Z" fill="#0000C8"/>
<path d="M1074.84 451.005C1074.6 451.005 1074.35 450.91 1074.16 450.723C1073.78 450.347 1073.78 449.737 1074.16 449.362L1084.43 439.153C1084.81 438.777 1085.43 438.777 1085.8 439.153C1086.18 439.528 1086.18 440.138 1085.8 440.514L1075.53 450.723C1075.34 450.91 1075.09 451.005 1074.84 451.005Z" fill="#0000C8"/>
<path d="M1038.88 486.735C1038.63 486.735 1038.39 486.641 1038.2 486.453C1037.82 486.077 1037.82 485.468 1038.2 485.092L1048.47 474.884C1048.85 474.508 1049.46 474.508 1049.84 474.884C1050.22 475.26 1050.22 475.869 1049.84 476.245L1039.57 486.453C1039.38 486.641 1039.13 486.735 1038.88 486.735Z" fill="#0000C8"/>
<path d="M1094.7 463.766H1080.16C1079.63 463.766 1079.2 463.335 1079.2 462.803C1079.2 462.272 1079.63 461.841 1080.16 461.841H1094.7C1095.23 461.841 1095.66 462.272 1095.66 462.803C1095.66 463.335 1095.23 463.766 1094.7 463.766Z" fill="#0000C8"/>
<path d="M1043.84 463.766H1029.3C1028.77 463.766 1028.34 463.335 1028.34 462.803C1028.34 462.272 1028.77 461.841 1029.3 461.841H1043.84C1044.37 461.841 1044.8 462.272 1044.8 462.803C1044.8 463.335 1044.37 463.766 1043.84 463.766Z" fill="#0000C8"/>
<path d="M1085.12 486.735C1084.87 486.735 1084.62 486.641 1084.43 486.453L1074.16 476.245C1073.78 475.869 1073.78 475.259 1074.16 474.884C1074.54 474.508 1075.15 474.508 1075.53 474.884L1085.8 485.092C1086.18 485.469 1086.18 486.078 1085.8 486.453C1085.61 486.641 1085.37 486.735 1085.12 486.735Z" fill="#0000C8"/>
<path d="M1049.16 451.005C1048.91 451.005 1048.66 450.91 1048.47 450.723L1038.2 440.514C1037.82 440.138 1037.82 439.528 1038.2 439.153C1038.57 438.777 1039.19 438.777 1039.57 439.153L1049.84 449.362C1050.22 449.738 1050.22 450.347 1049.84 450.723C1049.65 450.91 1049.4 451.005 1049.16 451.005Z" fill="#0000C8"/>
</g>
<defs>
<clipPath id="clip0">
<rect width="1600" height="800" fill="white"/>
</clipPath>
</defs>
</svg>
