<svg width="1600" height="800" viewBox="0 0 1600 800" fill="none" xmlns="http://www.w3.org/2000/svg">
<g clip-path="url(#clip0)">
<path d="M260.85 341.65C262.95 337.45 263.65 332.55 262.25 327.65C258.4 315.05 249.65 304.55 237.75 298.25C225.85 291.95 212.55 290.9 199.6 294.75L145.35 311.9C132.75 315.75 122.25 324.5 115.95 336.4C109.65 348.3 108.6 361.6 112.45 374.55C113.85 379.1 117 382.95 121.2 385.05C124.35 386.8 128.2 387.5 131.7 387.15L163.9 490.05C164.25 491.45 165.65 492.5 167.4 492.5C167.75 492.5 168.1 492.5 168.45 492.5L199.95 482.7L188.4 518.05C188.05 519.1 188.05 519.8 188.75 520.85C189.1 521.55 189.8 522.25 190.85 522.6L305.3 559.7C305.65 559.7 306 559.7 306.35 559.7C307.05 559.7 307.4 559.7 308.1 559.35C308.8 559 309.5 558.3 309.85 557.25L343.1 454.7C351.5 455.75 359.9 450.5 362.7 442.45C371.1 416.2 356.75 388.2 330.85 379.8L276.6 362.3C270.3 360.2 263.3 359.5 257 360.2L253.85 349.7C256.3 347.6 259.1 345.15 260.85 341.65ZM274.15 368.6L328.4 386.1C350.8 393.45 363.05 417.6 356.05 440C354.3 445.95 348 449.1 342.05 447C340.3 446.3 338.2 447.35 337.5 449.1L303.9 552L196.45 517L229.7 414.8C230.05 413.75 230.05 413.05 229.35 412C229 411.3 228.3 410.6 227.25 410.25C224.45 409.2 222 407.45 220.6 404.65C219.2 401.85 218.85 399.05 219.9 396.25C223.4 385.4 231.1 376.65 241.25 371.4C251.75 366.15 263.3 365.1 274.15 368.6ZM238.1 365.1C226.2 371.05 217.45 381.55 213.25 394.15C211.85 398.7 212.2 403.6 214.3 408.15C216.05 411.3 218.5 414.1 221.65 415.85L202.4 475L169.5 485.15L137.3 382.6C136.6 380.85 134.85 379.8 132.75 380.15C126.8 381.9 120.5 378.75 118.75 372.8C115.25 361.95 116.3 350.4 121.55 340.25C126.8 330.1 135.9 322.75 146.75 319.25L201 302.1C211.85 298.6 223.4 299.65 233.55 304.9C243.7 310.15 251.05 319.25 254.55 330.1C255.6 332.9 255.25 336.05 253.85 338.5C252.45 341.3 250 343.05 247.2 344.1C246.15 344.45 245.45 345.15 245.1 345.85C244.75 346.55 244.75 347.6 244.75 348.65L248.6 361.25C245.8 361.95 241.95 363 238.1 365.1Z" fill="#0000C8"/>
<path d="M236.47 444.869C237.233 442.678 236.074 440.284 233.884 439.522C231.693 438.76 229.299 439.918 228.537 442.109C227.774 444.3 228.933 446.694 231.123 447.456C233.314 448.218 235.708 447.06 236.47 444.869Z" fill="#0000C8"/>
<path d="M257.324 488.243C258.086 486.052 256.928 483.659 254.737 482.896C252.546 482.134 250.152 483.292 249.39 485.483C248.628 487.674 249.786 490.068 251.977 490.83C254.167 491.592 256.561 490.434 257.324 488.243Z" fill="#0000C8"/>
<path d="M274.664 513.179C275.426 510.988 274.268 508.594 272.077 507.832C269.886 507.069 267.493 508.227 266.73 510.418C265.968 512.609 267.126 515.003 269.317 515.765C271.508 516.528 273.902 515.369 274.664 513.179Z" fill="#0000C8"/>
<path d="M289.79 534.28C290.553 532.089 289.394 529.696 287.204 528.933C285.013 528.171 282.619 529.329 281.857 531.52C281.094 533.711 282.252 536.105 284.443 536.867C286.634 537.629 289.028 536.471 289.79 534.28Z" fill="#0000C8"/>
<path d="M275.663 475.96C276.425 473.769 275.267 471.375 273.077 470.613C270.886 469.851 268.492 471.009 267.729 473.2C266.967 475.391 268.125 477.785 270.316 478.547C272.507 479.309 274.901 478.151 275.663 475.96Z" fill="#0000C8"/>
<path d="M301.814 489.89C302.576 487.7 301.418 485.306 299.227 484.543C297.037 483.781 294.643 484.939 293.88 487.13C293.118 489.321 294.276 491.715 296.467 492.477C298.658 493.239 301.052 492.081 301.814 489.89Z" fill="#0000C8"/>
<path d="M320.296 476.988C321.058 474.797 319.9 472.403 317.709 471.641C315.519 470.879 313.125 472.037 312.362 474.228C311.6 476.419 312.758 478.813 314.949 479.575C317.14 480.337 319.534 479.179 320.296 476.988Z" fill="#0000C8"/>
<path d="M252.734 459.853C253.497 457.662 252.339 455.268 250.148 454.506C247.957 453.743 245.563 454.901 244.801 457.092C244.038 459.283 245.197 461.677 247.387 462.439C249.578 463.202 251.972 462.043 252.734 459.853Z" fill="#0000C8"/>
<path d="M228.381 480.056C229.143 477.865 227.985 475.471 225.794 474.709C223.603 473.946 221.209 475.105 220.447 477.295C219.685 479.486 220.843 481.88 223.034 482.642C225.225 483.405 227.619 482.246 228.381 480.056Z" fill="#0000C8"/>
<path d="M216.095 506.982C216.857 504.791 215.699 502.397 213.508 501.635C211.318 500.873 208.924 502.031 208.161 504.222C207.399 506.413 208.557 508.807 210.748 509.569C212.939 510.331 215.333 509.173 216.095 506.982Z" fill="#0000C8"/>
<path d="M247.987 520.015C248.749 517.824 247.591 515.43 245.4 514.668C243.209 513.906 240.815 515.064 240.053 517.255C239.291 519.446 240.449 521.84 242.64 522.602C244.831 523.364 247.225 522.206 247.987 520.015Z" fill="#0000C8"/>
<path d="M330.314 401.884C331.077 399.693 329.919 397.299 327.728 396.537C325.537 395.774 323.143 396.932 322.381 399.123C321.618 401.314 322.777 403.708 324.967 404.47C327.158 405.233 329.552 404.074 330.314 401.884Z" fill="#0000C8"/>
<path d="M349.119 428.348C349.882 426.157 348.723 423.763 346.533 423.001C344.342 422.239 341.948 423.397 341.186 425.588C340.423 427.779 341.581 430.172 343.772 430.935C345.963 431.697 348.357 430.539 349.119 428.348Z" fill="#0000C8"/>
<path d="M322.219 450.116C322.981 447.925 321.823 445.531 319.632 444.769C317.441 444.006 315.047 445.164 314.285 447.355C313.523 449.546 314.681 451.94 316.872 452.702C319.063 453.465 321.457 452.306 322.219 450.116Z" fill="#0000C8"/>
<path d="M297.719 453.617C298.482 451.426 297.324 449.032 295.133 448.27C292.942 447.507 290.548 448.666 289.786 450.856C289.023 453.047 290.182 455.441 292.372 456.203C294.563 456.966 296.957 455.808 297.719 453.617Z" fill="#0000C8"/>
<path d="M301.372 393.696C302.134 391.505 300.976 389.111 298.785 388.349C296.594 387.587 294.2 388.745 293.438 390.936C292.676 393.127 293.834 395.52 296.025 396.283C298.216 397.045 300.61 395.887 301.372 393.696Z" fill="#0000C8"/>
<path d="M288.971 420.953C289.734 418.762 288.576 416.368 286.385 415.606C284.194 414.844 281.8 416.002 281.038 418.193C280.275 420.384 281.434 422.778 283.624 423.54C285.815 424.302 288.209 423.144 288.971 420.953Z" fill="#0000C8"/>
<path d="M272.858 443.884C273.62 441.694 272.462 439.3 270.271 438.537C268.08 437.775 265.686 438.933 264.924 441.124C264.162 443.315 265.32 445.709 267.511 446.471C269.702 447.233 272.096 446.075 272.858 443.884Z" fill="#0000C8"/>
<path d="M321.285 425.782C322.047 423.591 320.889 421.197 318.698 420.435C316.507 419.672 314.114 420.831 313.351 423.021C312.589 425.212 313.747 427.606 315.938 428.368C318.129 429.131 320.523 427.973 321.285 425.782Z" fill="#0000C8"/>
<path d="M274.298 388.117C275.061 385.926 273.902 383.532 271.712 382.77C269.521 382.008 267.127 383.166 266.364 385.357C265.602 387.548 266.76 389.942 268.951 390.704C271.142 391.466 273.536 390.308 274.298 388.117Z" fill="#0000C8"/>
<path d="M262.41 413.152C263.172 410.962 262.014 408.568 259.823 407.805C257.632 407.043 255.238 408.201 254.476 410.392C253.714 412.583 254.872 414.977 257.063 415.739C259.254 416.501 261.648 415.343 262.41 413.152Z" fill="#0000C8"/>
<path d="M244.537 420.717C245.299 418.526 244.141 416.132 241.95 415.37C239.759 414.608 237.365 415.766 236.603 417.957C235.841 420.147 236.999 422.541 239.19 423.304C241.381 424.066 243.775 422.908 244.537 420.717Z" fill="#0000C8"/>
<path d="M305.3 521.2C307.62 521.2 309.5 519.32 309.5 517C309.5 514.68 307.62 512.8 305.3 512.8C302.98 512.8 301.1 514.68 301.1 517C301.1 519.32 302.98 521.2 305.3 521.2Z" fill="#0000C8"/>
<path d="M244.006 388.285C244.768 386.094 243.61 383.7 241.419 382.937C239.228 382.175 236.834 383.333 236.072 385.524C235.31 387.715 236.468 390.109 238.659 390.871C240.85 391.634 243.244 390.475 244.006 388.285Z" fill="#0000C8"/>
<path d="M517.567 524.086C553.058 524.086 588.55 510.648 615.426 483.426C669.525 429.328 669.525 341.462 615.426 287.364L594.752 267.034C593.374 265.655 591.306 265.655 589.928 267.034L399.034 458.272C398.345 458.962 398 459.651 398 460.684C398 461.718 398.345 462.407 399.034 463.097L419.708 483.426C446.585 510.648 482.076 524.086 517.567 524.086ZM573.388 293.566L588.55 308.727C629.209 349.387 629.209 415.545 588.205 456.55C568.564 476.19 542.377 487.217 514.122 487.217C486.211 487.217 460.023 476.19 440.038 456.55L424.877 441.388L573.388 293.566ZM420.397 446.212L435.559 461.374C456.578 482.393 484.488 494.108 514.466 494.108C544.1 494.108 572.355 482.393 593.374 461.374C636.79 417.957 636.79 347.32 593.374 303.903L578.212 288.742L592.684 274.27L610.602 292.188C661.944 343.529 661.944 427.261 610.602 478.602C559.261 529.944 475.529 529.944 424.188 478.602L406.27 460.684L420.397 446.212Z" fill="#0000C8"/>
<path d="M573.733 446.557C575.111 446.557 576.49 445.868 577.523 444.834C579.591 442.767 579.591 439.321 577.523 436.909C575.8 435.186 570.632 434.497 568.909 434.152C568.22 434.152 567.875 434.152 567.531 434.497C567.186 435.186 567.186 435.531 567.186 436.22C567.531 437.943 568.22 443.111 569.943 444.834C570.976 445.868 572.355 446.557 573.733 446.557Z" fill="#0000C8"/>
<path d="M550.646 413.133C552.025 413.133 553.403 412.444 554.437 411.41C555.47 410.377 556.16 408.998 556.16 407.62C556.16 406.242 555.47 404.863 554.437 403.83C552.714 402.107 547.545 401.418 545.822 401.073C545.133 401.073 544.789 401.073 544.444 401.418C544.1 401.762 543.755 402.451 544.099 402.796C544.444 404.519 545.133 409.687 546.856 411.41C547.89 412.789 549.268 413.133 550.646 413.133Z" fill="#0000C8"/>
<path d="M594.063 381.777C595.441 381.777 596.819 381.088 597.853 380.054C598.887 379.02 599.576 377.642 599.576 376.264C599.576 374.885 598.887 373.507 597.853 372.473C596.13 370.751 590.962 370.061 589.239 369.717C588.894 369.717 588.205 369.717 587.86 370.061C587.516 370.406 587.171 371.095 587.516 371.44C587.86 373.163 588.55 378.331 590.272 380.054C591.306 381.088 592.685 381.777 594.063 381.777Z" fill="#0000C8"/>
<path d="M517.567 388.324C518.946 388.324 520.324 387.635 521.358 386.601C522.391 385.567 523.08 384.189 523.08 382.811C523.08 381.432 522.391 380.054 521.358 379.02C519.635 377.297 514.466 376.608 512.743 376.264C512.054 376.264 511.71 376.264 511.365 376.608C511.02 376.953 510.676 377.642 511.02 377.987C511.365 379.71 512.054 384.878 513.777 386.601C514.811 387.979 516.189 388.324 517.567 388.324Z" fill="#0000C8"/>
<path d="M512.054 432.085C513.432 432.085 514.811 431.396 515.844 430.362C517.912 428.295 517.912 424.849 515.844 422.437C514.122 420.714 508.953 420.025 507.23 419.68C506.541 419.68 506.196 419.68 505.852 420.025C505.507 420.369 505.163 421.058 505.507 421.403C505.852 423.126 506.541 428.295 508.264 430.017C509.298 431.396 510.676 432.085 512.054 432.085Z" fill="#0000C8"/>
<path d="M511.71 469.988C513.088 469.988 514.466 469.299 515.5 468.265C516.534 467.231 517.223 465.853 517.223 464.475C517.223 463.096 516.534 461.718 515.5 460.684C513.777 458.962 508.608 458.272 506.886 457.928C506.196 457.928 505.852 457.928 505.507 458.272C505.163 458.617 504.818 459.306 505.163 459.651C505.507 461.374 506.196 466.542 507.919 468.265C508.608 469.299 509.987 469.988 511.71 469.988Z" fill="#0000C8"/>
<path d="M466.57 439.321C467.949 439.321 469.327 438.632 470.361 437.598C471.394 436.564 472.084 435.186 472.084 433.808C472.084 432.429 471.394 431.051 470.361 430.017C468.638 428.294 463.469 427.605 461.746 427.261C461.057 427.261 460.713 427.261 460.368 427.605C460.023 427.95 459.679 428.639 460.023 428.984C460.368 430.706 461.057 435.875 462.78 437.598C463.814 438.632 465.192 439.321 466.57 439.321Z" fill="#0000C8"/>
<path d="M576.834 330.091C578.212 330.091 579.591 329.402 580.624 328.368C582.692 326.301 582.692 322.855 580.624 320.443C578.902 318.72 573.733 318.031 572.01 317.686C571.321 317.686 570.976 317.686 570.632 318.031C570.287 318.375 569.943 319.064 570.287 319.409C570.632 321.132 571.321 326.301 573.044 328.023C574.077 329.402 575.456 330.091 576.834 330.091Z" fill="#0000C8"/>
<path d="M559.95 366.96C561.328 366.96 562.707 366.271 563.74 365.237C564.774 364.204 565.463 362.825 565.463 361.447C565.463 360.069 564.774 358.69 563.74 357.657C562.017 355.934 556.849 355.245 555.126 354.9C554.781 354.9 554.092 354.9 553.748 355.245C553.403 355.589 553.403 356.278 553.403 356.623C553.748 358.346 554.437 363.514 556.16 365.237C557.193 366.271 558.572 366.96 559.95 366.96Z" fill="#0000C8"/>
<path d="M343 514.5L294.5 343L421.5 307L432.5 423.5L467.5 481L343 514.5Z" fill="#FFAFC8"/>
<path d="M445.064 404.811C445.803 404.612 446.296 404.48 447.101 404.529C447.84 404.331 448.58 404.133 448.941 403.508C449.301 402.883 449.35 402.077 449.152 401.338L423.73 306.464C423.334 304.986 422.084 304.264 420.606 304.66L364.913 319.583C364.174 319.781 363.501 320.226 363.206 321.097C362.845 321.722 362.797 322.527 363.242 323.2C363.818 324.366 364.395 325.533 364.725 326.765C367.498 337.115 361.365 347.738 351.015 350.511C340.665 353.285 330.041 347.151 327.268 336.801C326.938 335.569 326.854 334.271 326.771 332.973C326.819 332.167 326.374 331.494 325.749 331.133C325.125 330.773 324.253 330.478 323.514 330.676L292.464 338.996C290.986 339.392 290.264 340.642 290.66 342.12L337.145 515.604C337.541 517.082 338.791 517.804 340.27 517.408L378.959 507.041C379.698 506.843 380.371 506.399 380.666 505.527C380.961 504.656 381.009 503.851 380.564 503.177C379.988 502.011 379.477 501.092 379.213 500.106C377.166 492.467 381.676 484.655 389.315 482.608C396.955 480.562 404.766 485.071 406.813 492.711C407.077 493.696 407.161 494.994 407.178 496.046C407.13 496.852 407.575 497.525 408.265 498.132C408.956 498.739 409.762 498.788 410.501 498.589L468.411 483.073C469.89 482.676 470.611 481.427 470.215 479.948L457.735 433.374C457.537 432.634 457.093 431.961 456.468 431.6C455.843 431.239 455.038 431.191 454.364 431.636C453.625 431.834 453.198 432.212 452.459 432.41C444.82 434.457 437.008 429.947 434.962 422.308C432.915 414.669 437.425 406.857 445.064 404.811ZM430.033 423.629C432.806 433.979 443.364 439.866 453.533 437.405L464.626 478.804L412.138 492.869C412.005 492.376 411.873 491.883 411.741 491.39C408.968 481.04 398.345 474.907 387.995 477.68C377.645 480.453 371.511 491.077 374.285 501.427C374.417 501.919 374.549 502.412 374.681 502.905L341.413 511.819L296.249 343.264L321.631 336.463C321.763 336.956 321.961 337.695 322.093 338.188C325.593 351.248 339.028 359.005 352.089 355.506C365.149 352.006 372.906 338.571 369.407 325.51C369.275 325.017 369.077 324.278 368.945 323.785L419.216 310.315L443.25 400.014C433.213 402.968 427.326 413.525 430.033 423.629Z" fill="#0000C8"/>
<path d="M352.997 427.895C344.372 430.206 339.321 438.955 341.632 447.58C343.943 456.205 352.692 461.256 361.317 458.945C369.942 456.634 374.993 447.885 372.682 439.26C370.371 430.635 361.622 425.584 352.997 427.895ZM360.062 454.263C354.148 455.847 348.211 452.42 346.627 446.506C345.042 440.591 348.47 434.655 354.384 433.07C360.298 431.485 366.235 434.913 367.819 440.827C369.404 446.741 365.977 452.678 360.062 454.263Z" fill="#0000C8"/>
<path d="M386.607 362.104C376.997 364.679 371.471 374.611 373.98 383.976C376.489 393.34 386.487 399.112 395.852 396.603C405.216 394.094 410.988 384.096 408.479 374.731C405.97 365.367 396.218 359.529 386.607 362.104ZM394.597 391.921C387.697 393.77 380.757 389.555 378.974 382.901C377.191 376.248 381.341 369.061 387.994 367.279C394.648 365.496 401.834 369.645 403.617 376.298C405.4 382.952 401.497 390.072 394.597 391.921Z" fill="#0000C8"/>
<path d="M103 481.992L110.758 818.364L660 815.571C658.138 759.716 654.414 646.02 654.414 638.076C654.414 630.132 650.277 620.492 648.208 616.665C647.277 574.877 645.416 489.564 645.416 482.613C645.416 475.662 634.245 473.303 628.659 472.993C571.149 472.579 452.839 472 439.682 472.993C423.236 474.234 401.515 490.681 391.895 491.301C382.276 491.922 368.002 481.992 356.21 477.027C346.777 473.055 297.872 468.752 274.599 467.097L234.26 463.374H111.068L103 481.992Z" fill="#0000C8"/>
<path d="M267.031 387.038C263.555 411.863 244.895 462.132 236 484.164L281.925 490.06C282.236 483.75 282.67 467.284 281.925 451.892C280.994 432.653 293.096 356.008 294.958 333.355C296.82 310.703 315.749 236.229 321.645 206.13C327.54 176.03 331.264 116.761 336.539 100.315C341.814 83.8689 357.33 65.8712 396.118 65.8712C434.906 65.8712 452.594 90.6957 453.214 100.315C453.835 109.935 460.972 236.229 461.903 257.02C462.834 277.81 481.142 424.275 481.142 445.066C481.142 461.698 477.625 478.061 475.867 484.164H527.067C521.275 447.445 509.504 370.406 508.759 356.008C507.828 338.01 493.244 262.295 488.9 236.229C485.424 215.377 478.763 158.239 475.867 132.277C476.177 106.004 460.662 52.5901 396.118 49.1146C315.438 44.7703 320.093 103.108 315.749 116.761C312.273 127.684 304.371 186.684 300.854 214.818C291.028 261.881 270.506 362.214 267.031 387.038Z" fill="#0000C8"/>
<path d="M476 678.38H429.634L417.919 658.201C417.135 656.89 416.902 655.322 417.273 653.84C417.644 652.358 418.588 651.083 419.898 650.295L444.892 635.274C446.204 634.491 447.775 634.258 449.258 634.629C450.742 634.999 452.018 635.942 452.807 637.251L474.021 673.756C474.87 675.209 475.535 676.763 476 678.38ZM475.664 690.575H411.963V678.163C411.946 677.496 411.726 676.851 411.331 676.313C410.936 675.776 410.385 675.372 409.753 675.157C409.122 674.941 408.439 674.925 407.797 675.109C407.155 675.293 406.586 675.669 406.165 676.187L383.13 704.232C381.556 706.145 380.696 708.545 380.696 711.021C380.696 713.497 381.556 715.897 383.13 717.81L406.303 745.796C406.731 746.321 407.311 746.701 407.964 746.881C408.617 747.062 409.31 747.036 409.947 746.805C410.584 746.575 411.134 746.153 411.52 745.597C411.906 745.04 412.109 744.378 412.101 743.701V731.289L441.072 731.191C444.648 731.182 448.158 730.233 451.25 728.439C454.341 726.645 456.906 724.07 458.685 720.972L474.021 694.113C474.681 692.989 475.231 691.804 475.664 690.575ZM364.153 731.072C364.923 731.07 365.686 730.913 366.395 730.612C367.104 730.311 367.746 729.872 368.283 729.319C368.819 728.767 369.24 728.113 369.52 727.395C369.799 726.678 369.932 725.912 369.911 725.143L369.377 696.01C369.351 694.493 368.728 693.048 367.643 691.986C366.558 690.925 365.098 690.332 363.579 690.338H340.228L317.055 730.479C318.679 730.887 320.347 731.093 322.022 731.092L364.153 731.072ZM288.777 694.192L304.351 720.972C305.014 722.084 305.783 723.13 306.646 724.095L338.467 668.992L349.232 675.159C349.813 675.492 350.483 675.638 351.15 675.578C351.818 675.518 352.451 675.254 352.963 674.822C353.475 674.391 353.842 673.812 354.013 673.165C354.185 672.518 354.153 671.834 353.922 671.206L341.059 637.271C340.179 634.938 338.511 632.987 336.343 631.752C334.175 630.518 331.643 630.079 329.186 630.511L293.368 636.44C292.697 636.546 292.075 636.857 291.59 637.331C291.105 637.806 290.779 638.419 290.66 639.087C290.54 639.755 290.631 640.443 290.922 641.056C291.212 641.669 291.687 642.177 292.279 642.508L303.044 648.675L288.737 673.756C286.937 676.862 285.993 680.39 286 683.979C286.007 687.568 286.965 691.092 288.777 694.192ZM348.717 571.297L327.721 607.762C327.343 608.426 327.099 609.158 327.006 609.915C326.912 610.673 326.97 611.442 327.176 612.178C327.383 612.913 327.733 613.6 328.207 614.199C328.681 614.798 329.269 615.298 329.938 615.668L355.465 629.78C356.783 630.493 358.327 630.667 359.77 630.265C361.214 629.863 362.445 628.917 363.203 627.626L374.859 607.407L351.745 567.305C350.575 568.506 349.558 569.847 348.717 571.297ZM384.733 628.851L420.591 634.78C423.038 635.179 425.547 634.717 427.691 633.473C429.835 632.23 431.48 630.282 432.346 627.962L445.03 593.967C445.266 593.336 445.3 592.648 445.128 591.997C444.956 591.346 444.587 590.764 444.071 590.331C443.555 589.898 442.918 589.635 442.246 589.579C441.575 589.522 440.902 589.674 440.32 590.014L429.575 596.24L414.991 571.119C413.194 568.032 410.615 565.471 407.513 563.694C404.411 561.918 400.895 560.989 397.319 561L366.33 561.099C365.04 561.115 363.754 561.254 362.49 561.514L394.351 616.558L383.605 622.783C383.012 623.117 382.538 623.628 382.25 624.244C381.962 624.86 381.873 625.551 381.998 626.22C382.122 626.889 382.453 627.502 382.943 627.973C383.434 628.445 384.06 628.752 384.733 628.851Z" fill="#FFAFC8"/>
</g>
<defs>
<clipPath id="clip0">
<rect width="1600" height="800" fill="white"/>
</clipPath>
</defs>
</svg>
